<svg width="32" height="32" viewBox="0 0 32 32" fill="none" xmlns="http://www.w3.org/2000/svg">
<rect width="32" height="32" rx="16" fill="#002D6B" fill-opacity="0.1"/>
<path fill-rule="evenodd" clip-rule="evenodd" d="M15.7655 21.3659C15.6155 21.5159 15.4121 21.6002 15.1999 21.6002C14.9878 21.6002 14.7843 21.5159 14.6343 21.3659L9.83433 16.5659C9.68435 16.4159 9.6001 16.2125 9.6001 16.0003C9.6001 15.7882 9.68435 15.5847 9.83433 15.4347L14.6343 10.6347C14.7852 10.489 14.9873 10.4084 15.197 10.4102C15.4068 10.412 15.6075 10.4961 15.7558 10.6445C15.9041 10.7928 15.9882 10.9934 15.9901 11.2032C15.9919 11.413 15.9113 11.615 15.7655 11.7659L12.3311 15.2003H21.5999C21.8121 15.2003 22.0156 15.2846 22.1656 15.4346C22.3156 15.5847 22.3999 15.7882 22.3999 16.0003C22.3999 16.2125 22.3156 16.416 22.1656 16.566C22.0156 16.716 21.8121 16.8003 21.5999 16.8003H12.3311L15.7655 20.2347C15.9155 20.3847 15.9998 20.5882 15.9998 20.8003C15.9998 21.0125 15.9155 21.2159 15.7655 21.3659Z" fill="#203864"/>
</svg>
