<svg width="64" height="64" viewBox="0 0 64 64" fill="none" xmlns="http://www.w3.org/2000/svg">
<rect width="64" height="64" rx="32" fill="#EDF3FA"/>
<path d="M20 20C18.9391 20 17.9217 20.4214 17.1716 21.1716C16.4214 21.9217 16 22.9391 16 24V26H48V24C48 22.9391 47.5786 21.9217 46.8284 21.1716C46.0783 20.4214 45.0609 20 44 20H20Z" fill="#203864"/>
<path fill-rule="evenodd" clip-rule="evenodd" d="M48 30H16V40C16 41.0609 16.4214 42.0783 17.1716 42.8284C17.9217 43.5786 18.9391 44 20 44H44C45.0609 44 46.0783 43.5786 46.8284 42.8284C47.5786 42.0783 48 41.0609 48 40V30ZM20 38C20 37.4696 20.2107 36.9609 20.5858 36.5858C20.9609 36.2107 21.4696 36 22 36H24C24.5304 36 25.0391 36.2107 25.4142 36.5858C25.7893 36.9609 26 37.4696 26 38C26 38.5304 25.7893 39.0391 25.4142 39.4142C25.0391 39.7893 24.5304 40 24 40H22C21.4696 40 20.9609 39.7893 20.5858 39.4142C20.2107 39.0391 20 38.5304 20 38ZM30 36C29.4696 36 28.9609 36.2107 28.5858 36.5858C28.2107 36.9609 28 37.4696 28 38C28 38.5304 28.2107 39.0391 28.5858 39.4142C28.9609 39.7893 29.4696 40 30 40H32C32.5304 40 33.0391 39.7893 33.4142 39.4142C33.7893 39.0391 34 38.5304 34 38C34 37.4696 33.7893 36.9609 33.4142 36.5858C33.0391 36.2107 32.5304 36 32 36H30Z" fill="#203864"/>
</svg>
