<svg width="64" height="64" viewBox="0 0 64 64" fill="none" xmlns="http://www.w3.org/2000/svg">
<rect width="64" height="64" rx="32" fill="#EDF3FA"/>
<path fill-rule="evenodd" clip-rule="evenodd" d="M20 20C18.9391 20 17.9217 20.4214 17.1716 21.1716C16.4214 21.9217 16 22.9391 16 24V32C16 33.0609 16.4214 34.0783 17.1716 34.8284C17.9217 35.5786 18.9391 36 20 36V24H40C40 22.9391 39.5786 21.9217 38.8284 21.1716C38.0783 20.4214 37.0609 20 36 20H20ZM24 32C24 30.9391 24.4214 29.9217 25.1716 29.1716C25.9217 28.4214 26.9391 28 28 28H44C45.0609 28 46.0783 28.4214 46.8284 29.1716C47.5786 29.9217 48 30.9391 48 32V40C48 41.0609 47.5786 42.0783 46.8284 42.8284C46.0783 43.5786 45.0609 44 44 44H28C26.9391 44 25.9217 43.5786 25.1716 42.8284C24.4214 42.0783 24 41.0609 24 40V32ZM36 40C37.0609 40 38.0783 39.5786 38.8284 38.8284C39.5786 38.0783 40 37.0609 40 36C40 34.9391 39.5786 33.9217 38.8284 33.1716C38.0783 32.4214 37.0609 32 36 32C34.9391 32 33.9217 32.4214 33.1716 33.1716C32.4214 33.9217 32 34.9391 32 36C32 37.0609 32.4214 38.0783 33.1716 38.8284C33.9217 39.5786 34.9391 40 36 40Z" fill="#203864"/>
</svg>
