<svg width="32" height="32" viewBox="0 0 32 32" fill="none" xmlns="http://www.w3.org/2000/svg">
<rect width="32" height="32" rx="16" fill="#EDF0FA"/>
<path fill-rule="evenodd" clip-rule="evenodd" d="M10.293 10.2936C10.4806 10.1061 10.7349 10.0008 11 10.0008C11.2652 10.0008 11.5195 10.1061 11.707 10.2936L16 14.5866L20.293 10.2936C20.3853 10.1981 20.4956 10.1219 20.6176 10.0695C20.7396 10.0171 20.8709 9.98947 21.0036 9.98832C21.1364 9.98717 21.2681 10.0125 21.391 10.0627C21.5139 10.113 21.6255 10.1873 21.7194 10.2812C21.8133 10.3751 21.8876 10.4867 21.9379 10.6096C21.9881 10.7325 22.0134 10.8642 22.0123 10.997C22.0111 11.1298 21.9835 11.261 21.9311 11.383C21.8787 11.505 21.8025 11.6153 21.707 11.7076L17.414 16.0006L21.707 20.2936C21.8892 20.4822 21.99 20.7348 21.9877 20.997C21.9854 21.2592 21.8803 21.51 21.6948 21.6954C21.5094 21.8808 21.2586 21.986 20.9964 21.9882C20.7342 21.9905 20.4816 21.8897 20.293 21.7076L16 17.4146L11.707 21.7076C11.5184 21.8897 11.2658 21.9905 11.0036 21.9882C10.7414 21.986 10.4906 21.8808 10.3052 21.6954C10.1198 21.51 10.0146 21.2592 10.0124 20.997C10.0101 20.7348 10.1109 20.4822 10.293 20.2936L14.586 16.0006L10.293 11.7076C10.1056 11.52 10.0002 11.2657 10.0002 11.0006C10.0002 10.7354 10.1056 10.4811 10.293 10.2936Z" fill="#203864"/>
</svg>
