<svg width="181" height="180" viewBox="0 0 181 180" fill="none" xmlns="http://www.w3.org/2000/svg">
<path opacity="0.1" d="M90.843 179.999C140.485 179.999 180.727 156.764 180.727 128.102C180.727 99.4401 140.485 76.2051 90.843 76.2051C41.2014 76.2051 0.958984 99.4401 0.958984 128.102C0.958984 156.764 41.2014 179.999 90.843 179.999Z" fill="#F5F5F5"/>
<path d="M133.368 104.993L121.857 98.252L128.711 107.678L133.368 104.993Z" fill="#407BFF"/>
<path opacity="0.6" d="M133.368 104.993L121.857 98.252L128.711 107.678L133.368 104.993Z" fill="black"/>
<path d="M126.527 129.941L59.1605 91.043C58.8714 90.8765 58.6312 90.6369 58.4642 90.3481C58.2971 90.0593 58.2091 89.7316 58.209 89.398V43.3997C58.2092 43.0661 58.2971 42.7385 58.4639 42.4497C58.6306 42.1608 58.8704 41.9208 59.1591 41.7538C59.4478 41.5868 59.7753 41.4986 60.1088 41.498C60.4424 41.4975 60.7702 41.5846 61.0594 41.7507L128.434 80.6491C128.723 80.8165 128.963 81.057 129.13 81.3464C129.297 81.6358 129.385 81.964 129.386 82.2981V128.296C129.386 128.631 129.297 128.959 129.13 129.249C128.962 129.538 128.722 129.778 128.432 129.945C128.142 130.112 127.813 130.199 127.479 130.199C127.145 130.198 126.816 130.109 126.527 129.941Z" fill="#E0E0E0"/>
<path d="M128.712 107.677L133.368 104.992V159.421C133.369 159.912 133.24 160.394 132.994 160.819C132.748 161.243 132.395 161.596 131.969 161.84L127.369 164.505L128.712 107.677Z" fill="#407BFF"/>
<path opacity="0.3" d="M128.712 107.677L133.368 104.992V159.421C133.369 159.912 133.24 160.394 132.994 160.819C132.748 161.243 132.395 161.596 131.969 161.84L127.369 164.505L128.712 107.677Z" fill="black"/>
<path d="M123.471 131.662L56.0959 92.7631C55.8078 92.5949 55.5687 92.3541 55.4025 92.0648C55.2363 91.7755 55.1487 91.4478 55.1484 91.1141V45.1037C55.1482 44.77 55.2358 44.4421 55.4025 44.1531C55.5693 43.8641 55.8092 43.6241 56.0982 43.4573C56.3872 43.2906 56.7151 43.2029 57.0487 43.2031C57.3824 43.2034 57.7101 43.2915 57.9989 43.4587L125.374 82.3571C125.663 82.5236 125.903 82.7632 126.07 83.052C126.237 83.3408 126.325 83.6685 126.325 84.0021V130.013C126.325 130.347 126.237 130.675 126.071 130.964C125.904 131.254 125.663 131.494 125.374 131.661C125.085 131.828 124.756 131.916 124.422 131.916C124.088 131.917 123.76 131.829 123.471 131.662Z" fill="#EBEBEB"/>
<path d="M120.41 133.462L53.0394 94.5674C52.7502 94.4 52.5101 94.1595 52.3431 93.8701C52.1762 93.5807 52.0881 93.2525 52.0879 92.9184V46.9201C52.0876 46.5864 52.1753 46.2586 52.342 45.9695C52.5087 45.6805 52.7487 45.4405 53.0377 45.2738C53.3267 45.107 53.6545 45.0193 53.9882 45.0195C54.3219 45.0198 54.6496 45.1079 54.9383 45.2751L122.313 84.1735C122.603 84.3407 122.844 84.5816 123.011 84.8719C123.179 85.1622 123.266 85.4916 123.265 85.8266V131.817C123.264 132.151 123.176 132.478 123.008 132.767C122.841 133.056 122.601 133.296 122.312 133.463C122.023 133.629 121.695 133.717 121.361 133.717C121.027 133.717 120.699 133.629 120.41 133.462Z" fill="#FAFAFA"/>
<path d="M42.6055 46.3143V113.927C42.6054 114.886 42.8579 115.829 43.3378 116.66C43.8176 117.491 44.5079 118.181 45.3391 118.66L124.765 164.509C125.166 164.741 125.621 164.862 126.084 164.862C126.548 164.862 127.003 164.74 127.404 164.508C127.805 164.277 128.138 163.944 128.37 163.543C128.601 163.142 128.724 162.687 128.724 162.223V107.678L86.834 83.4872L79.5969 66.7957C78.2462 63.6784 75.9278 61.0787 72.9848 59.3813L46.476 44.0606C46.0824 43.8333 45.6356 43.714 45.1811 43.7148C44.7265 43.7157 44.2802 43.8366 43.8874 44.0653C43.4945 44.2941 43.1691 44.6225 42.944 45.0175C42.7189 45.4124 42.6022 45.8598 42.6055 46.3143Z" fill="#407BFF"/>
<path opacity="0.2" d="M42.6055 46.3143V113.927C42.6054 114.886 42.8579 115.829 43.3378 116.66C43.8176 117.491 44.5079 118.181 45.3391 118.66L124.765 164.509C125.166 164.741 125.621 164.862 126.084 164.862C126.548 164.862 127.003 164.74 127.404 164.508C127.805 164.277 128.138 163.944 128.37 163.543C128.601 163.142 128.724 162.687 128.724 162.223V107.678L86.834 83.4872L79.5969 66.7957C78.2462 63.6784 75.9278 61.0787 72.9848 59.3813L46.476 44.0606C46.0824 43.8333 45.6356 43.714 45.1811 43.7148C44.7265 43.7157 44.2802 43.8366 43.8874 44.0653C43.4945 44.2941 43.1691 44.6225 42.944 45.0175C42.7189 45.4124 42.6022 45.8598 42.6055 46.3143Z" fill="black"/>
<path d="M105.55 120.097C105.328 119.968 105.107 119.855 104.889 119.754C104.719 114.553 101.091 108.405 96.656 105.84C95.1602 104.974 93.7571 104.631 92.5476 104.736C90.8543 99.2445 86.9636 93.85 82.4319 91.2213C76.6504 87.883 71.909 90.29 71.4494 96.5634C71.1712 96.3699 70.889 96.1884 70.6068 96.0231C66.2162 93.4912 62.6602 95.5433 62.6602 100.611C62.6602 105.679 66.2162 111.844 70.6068 114.376L105.562 134.559C109.025 136.575 111.832 134.938 111.832 130.93C111.832 126.923 109.013 122.076 105.55 120.097Z" fill="#407BFF"/>
<path opacity="0.4" d="M105.55 120.097C105.328 119.968 105.107 119.855 104.889 119.754C104.719 114.553 101.091 108.405 96.656 105.84C95.1602 104.974 93.7571 104.631 92.5476 104.736C90.8543 99.2445 86.9636 93.85 82.4319 91.2213C76.6504 87.883 71.909 90.29 71.4494 96.5634C71.1712 96.3699 70.889 96.1884 70.6068 96.0231C66.2162 93.4912 62.6602 95.5433 62.6602 100.611C62.6602 105.679 66.2162 111.844 70.6068 114.376L105.562 134.559C109.025 136.575 111.832 134.938 111.832 130.93C111.832 126.923 109.013 122.076 105.55 120.097Z" fill="white"/>
<path d="M75.7676 119.623L84.0045 134.641L92.8058 129.307L89.3264 127.344V112.479L79.9485 107.076V122.062L75.7676 119.623Z" fill="white"/>
<path d="M52.0723 24.7109C43.2938 24.7108 34.7431 27.5052 27.6589 32.6895C20.5748 37.8738 15.3249 45.1787 12.6699 53.5461L9.33563 51.627C9.23792 51.5697 9.12721 51.5384 9.014 51.5359C8.90079 51.5334 8.78882 51.5599 8.6887 51.6128C8.58857 51.6657 8.5036 51.7432 8.44184 51.8381C8.38007 51.9331 8.34356 52.0422 8.33575 52.1551C7.72996 58.6177 8.66253 65.1319 11.0572 71.1649C12.2348 74.1592 13.8282 76.9728 15.7905 79.5227C15.8533 79.602 15.9359 79.6634 16.0299 79.7007C16.124 79.738 16.2262 79.7499 16.3262 79.7352C16.4263 79.7205 16.5208 79.6797 16.6001 79.6169C16.6795 79.5541 16.7409 79.4716 16.7783 79.3776C18.2313 75.7332 20.2356 72.3338 22.7211 69.2982C24.3286 67.3032 26.1362 65.4781 28.1156 63.8513C28.2267 63.7606 28.3141 63.6443 28.3702 63.5123C28.4263 63.3803 28.4493 63.2366 28.4374 63.0937C28.4255 62.9508 28.379 62.8129 28.3018 62.692C28.2247 62.5711 28.1192 62.4708 27.9946 62.3998L23.9951 60.0896C26.127 52.3862 30.7864 45.6229 37.2249 40.8864C43.6634 36.15 51.5071 33.7152 59.496 33.9734C67.4848 34.2316 75.155 37.1677 81.2742 42.31C87.3935 47.4522 91.6065 54.5022 93.2365 62.3273C92.3077 52.0509 87.5692 42.4934 79.9522 35.533C72.3352 28.5725 62.3905 24.7123 52.0723 24.7109Z" fill="#407BFF"/>
<path opacity="0.4" d="M52.0723 24.7109C43.2938 24.7108 34.7431 27.5052 27.6589 32.6895C20.5748 37.8738 15.3249 45.1787 12.6699 53.5461L9.33563 51.627C9.23792 51.5697 9.12721 51.5384 9.014 51.5359C8.90079 51.5334 8.78882 51.5599 8.6887 51.6128C8.58857 51.6657 8.5036 51.7432 8.44184 51.8381C8.38007 51.9331 8.34356 52.0422 8.33575 52.1551C7.72996 58.6177 8.66253 65.1319 11.0572 71.1649C12.2348 74.1592 13.8282 76.9728 15.7905 79.5227C15.8533 79.602 15.9359 79.6634 16.0299 79.7007C16.124 79.738 16.2262 79.7499 16.3262 79.7352C16.4263 79.7205 16.5208 79.6797 16.6001 79.6169C16.6795 79.5541 16.7409 79.4716 16.7783 79.3776C18.2313 75.7332 20.2356 72.3338 22.7211 69.2982C24.3286 67.3032 26.1362 65.4781 28.1156 63.8513C28.2267 63.7606 28.3141 63.6443 28.3702 63.5123C28.4263 63.3803 28.4493 63.2366 28.4374 63.0937C28.4255 62.9508 28.379 62.8129 28.3018 62.692C28.2247 62.5711 28.1192 62.4708 27.9946 62.3998L23.9951 60.0896C26.127 52.3862 30.7864 45.6229 37.2249 40.8864C43.6634 36.15 51.5071 33.7152 59.496 33.9734C67.4848 34.2316 75.155 37.1677 81.2742 42.31C87.3935 47.4522 91.6065 54.5022 93.2365 62.3273C92.3077 52.0509 87.5692 42.4934 79.9522 35.533C72.3352 28.5725 62.3905 24.7123 52.0723 24.7109Z" fill="white"/>
<path d="M131.556 33.2719C136.103 30.6466 136.104 22.1341 131.557 14.2587C127.01 6.38326 119.638 2.12716 115.091 4.75242C110.544 7.37767 110.543 15.8902 115.09 23.7656C119.637 31.641 127.009 35.8971 131.556 33.2719Z" fill="#407BFF"/>
<path opacity="0.2" d="M131.556 33.2719C136.103 30.6466 136.104 22.1341 131.557 14.2587C127.01 6.38326 119.638 2.12716 115.091 4.75242C110.544 7.37767 110.543 15.8902 115.09 23.7656C119.637 31.641 127.009 35.8971 131.556 33.2719Z" fill="black"/>
<path d="M130.873 33.6683C135.42 31.0431 135.42 22.5306 130.873 14.6552C126.326 6.77975 118.954 2.52364 114.407 5.1489C109.86 7.77415 109.86 16.2866 114.407 24.1621C118.954 32.0375 126.326 36.2936 130.873 33.6683Z" fill="#407BFF"/>
<path d="M118.023 23.3329L126.986 28.5339C127.095 28.5978 127.219 28.6318 127.346 28.6324C127.472 28.6329 127.596 28.6 127.706 28.5369C127.816 28.4739 127.907 28.383 127.97 28.2734C128.033 28.1638 128.067 28.0395 128.066 27.913V16.8256C128.064 16.5481 127.988 16.276 127.847 16.0373C127.705 15.7986 127.503 15.6018 127.26 15.4669L118.297 10.2821C118.188 10.2181 118.064 10.1841 117.938 10.1836C117.811 10.1831 117.687 10.216 117.577 10.279C117.467 10.342 117.376 10.433 117.313 10.5425C117.25 10.6521 117.216 10.7765 117.217 10.903V21.9903C117.222 22.2651 117.299 22.5338 117.44 22.7695C117.582 23.0051 117.783 23.1994 118.023 23.3329Z" fill="#407BFF"/>
<path opacity="0.6" d="M118.023 23.3329L126.986 28.5339C127.095 28.5978 127.219 28.6318 127.346 28.6324C127.472 28.6329 127.596 28.6 127.706 28.5369C127.816 28.4739 127.907 28.383 127.97 28.2734C128.033 28.1638 128.067 28.0395 128.066 27.913V16.8256C128.064 16.5481 127.988 16.276 127.847 16.0373C127.705 15.7986 127.503 15.6018 127.26 15.4669L118.297 10.2821C118.188 10.2181 118.064 10.1841 117.938 10.1836C117.811 10.1831 117.687 10.216 117.577 10.279C117.467 10.342 117.376 10.433 117.313 10.5425C117.25 10.6521 117.216 10.7765 117.217 10.903V21.9903C117.222 22.2651 117.299 22.5338 117.44 22.7695C117.582 23.0051 117.783 23.1994 118.023 23.3329Z" fill="white"/>
<path d="M118.922 21.7189L126.127 25.8596C126.215 25.9116 126.316 25.939 126.418 25.9388C126.521 25.9386 126.621 25.9109 126.71 25.8586C126.798 25.8063 126.87 25.7313 126.919 25.6414C126.969 25.5515 126.993 25.45 126.99 25.3475V17.0421C126.989 16.8214 126.931 16.6047 126.821 16.4136C126.71 16.2225 126.552 16.0639 126.361 15.9535L119.156 11.7968C119.068 11.7467 118.969 11.7204 118.868 11.7207C118.767 11.721 118.668 11.7478 118.581 11.7984C118.493 11.849 118.421 11.9217 118.37 12.0091C118.32 12.0966 118.293 12.1958 118.293 12.2967V20.6142C118.29 20.8376 118.347 21.0577 118.458 21.2519C118.568 21.446 118.729 21.6073 118.922 21.7189Z" fill="#407BFF"/>
<path opacity="0.4" d="M126.99 17.0412V25.3466C126.991 25.4481 126.965 25.548 126.915 25.6362C126.865 25.7243 126.792 25.7976 126.704 25.8485C126.616 25.8993 126.517 25.926 126.415 25.9256C126.314 25.9253 126.214 25.898 126.127 25.8466L118.922 21.718C118.731 21.609 118.572 21.4512 118.461 21.2606C118.351 21.0701 118.293 20.8537 118.293 20.6335V12.2958C118.292 12.1944 118.318 12.0944 118.368 12.0063C118.418 11.9181 118.491 11.8448 118.578 11.7939C118.666 11.7431 118.766 11.7165 118.867 11.7168C118.969 11.7171 119.068 11.7444 119.156 11.7959L126.361 15.9566C126.552 16.0657 126.711 16.2235 126.821 16.414C126.932 16.6046 126.99 16.821 126.99 17.0412Z" fill="white"/>
<path d="M126.989 25.0527V25.347C126.991 25.4485 126.965 25.5484 126.915 25.6366C126.864 25.7248 126.792 25.798 126.704 25.8489C126.616 25.8997 126.517 25.9264 126.415 25.926C126.314 25.9257 126.214 25.8984 126.127 25.847L118.922 21.7184C118.731 21.6094 118.572 21.4516 118.461 21.2611C118.351 21.0705 118.293 20.8541 118.293 20.6339V19.8275L120.18 18.2148L122.405 21.3838L124.578 18.7994L126.989 25.0527Z" fill="#FAFAFA"/>
<path d="M120.777 15.7191C120.796 16.0555 120.893 16.3829 121.061 16.6749C121.229 16.9669 121.463 17.2154 121.745 17.4004C122.281 17.7108 122.717 17.4609 122.717 16.84C122.698 16.5032 122.6 16.1756 122.431 15.8836C122.262 15.5916 122.027 15.3433 121.745 15.1587C121.213 14.8644 120.777 15.1023 120.777 15.7191Z" fill="#FAFAFA"/>
<path d="M151.736 74.6664C156.283 72.0411 156.283 63.5287 151.736 55.6532C147.19 47.7778 139.817 43.5217 135.27 46.1469C130.723 48.7722 130.723 57.2847 135.27 65.1601C139.817 73.0355 147.189 77.2916 151.736 74.6664Z" fill="#407BFF"/>
<path opacity="0.2" d="M151.736 74.6664C156.283 72.0411 156.283 63.5287 151.736 55.6532C147.19 47.7778 139.817 43.5217 135.27 46.1469C130.723 48.7722 130.723 57.2847 135.27 65.1601C139.817 73.0355 147.189 77.2916 151.736 74.6664Z" fill="black"/>
<path d="M151.052 75.0668C155.6 72.4415 155.6 63.929 151.053 56.0536C146.506 48.1782 139.134 43.9221 134.587 46.5473C130.04 49.1726 130.039 57.6851 134.586 65.5605C139.133 73.4359 146.505 77.692 151.052 75.0668Z" fill="#407BFF"/>
<path d="M138.477 51.6756C138.367 51.6128 138.243 51.5798 138.117 51.5801C137.99 51.5803 137.866 51.6138 137.757 51.677C137.647 51.7403 137.557 51.8312 137.493 51.9406C137.43 52.05 137.397 52.1742 137.396 52.3005V63.3879C137.396 63.6629 137.469 63.9331 137.607 64.171C137.745 64.4089 137.944 64.6061 138.183 64.7425L147.165 69.9314C147.276 70.0004 147.403 70.0379 147.534 70.0399C147.664 70.0419 147.793 70.0084 147.905 69.9429C148.018 69.8774 148.111 69.7824 148.174 69.6682C148.237 69.5539 148.267 69.4247 148.262 69.2944V61.0656L145.843 55.909L138.477 51.6756Z" fill="#407BFF"/>
<path opacity="0.6" d="M138.477 51.6756C138.367 51.6128 138.243 51.5798 138.117 51.5801C137.99 51.5803 137.866 51.6138 137.757 51.677C137.647 51.7403 137.557 51.8312 137.493 51.9406C137.43 52.05 137.397 52.1742 137.396 52.3005V63.3879C137.396 63.6629 137.469 63.9331 137.607 64.171C137.745 64.4089 137.944 64.6061 138.183 64.7425L147.165 69.9314C147.276 70.0004 147.403 70.0379 147.534 70.0399C147.664 70.0419 147.793 70.0084 147.905 69.9429C148.018 69.8774 148.111 69.7824 148.174 69.6682C148.237 69.5539 148.267 69.4247 148.262 69.2944V61.0656L145.843 55.909L138.477 51.6756Z" fill="white"/>
<path d="M145.492 57.7951L145.806 55.9082L148.225 61.0689L146.028 59.2586C145.818 59.0831 145.658 58.8555 145.564 58.5986C145.47 58.3417 145.445 58.0646 145.492 57.7951Z" fill="#407BFF"/>
<path opacity="0.4" d="M145.492 57.7951L145.806 55.9082L148.225 61.0689L146.028 59.2586C145.818 59.0831 145.658 58.8555 145.564 58.5986C145.47 58.3417 145.445 58.0646 145.492 57.7951Z" fill="white"/>
<path d="M146.366 62.1255C146.322 62.1248 146.279 62.1123 146.241 62.0892L139.149 58.005C139.093 57.9714 139.052 57.9171 139.036 57.8538C139.019 57.7905 139.028 57.7232 139.06 57.6663C139.093 57.6104 139.147 57.5697 139.209 57.5531C139.272 57.5365 139.339 57.5453 139.395 57.5776L146.491 61.6699C146.547 61.7035 146.588 61.7578 146.604 61.8211C146.621 61.8844 146.612 61.9517 146.58 62.0085C146.557 62.0452 146.526 62.0753 146.489 62.0959C146.451 62.1164 146.409 62.1266 146.366 62.1255Z" fill="#FAFAFA"/>
<path d="M146.366 64.53C146.322 64.5289 146.28 64.5179 146.241 64.4978L139.149 60.4015C139.093 60.3679 139.052 60.3136 139.036 60.2503C139.019 60.1869 139.028 60.1196 139.06 60.0628C139.093 60.0069 139.147 59.9662 139.209 59.9496C139.272 59.933 139.339 59.9418 139.395 59.9741L146.491 64.0543C146.547 64.0879 146.588 64.1421 146.604 64.2055C146.621 64.2688 146.612 64.3361 146.58 64.3929C146.56 64.4333 146.53 64.4675 146.492 64.4918C146.454 64.516 146.411 64.5292 146.366 64.53Z" fill="#FAFAFA"/>
<path d="M146.366 66.9324C146.322 66.9313 146.28 66.9202 146.241 66.9001L139.149 62.8038C139.093 62.7702 139.052 62.7159 139.036 62.6526C139.019 62.5893 139.028 62.522 139.06 62.4652C139.093 62.4093 139.147 62.3686 139.209 62.352C139.272 62.3353 139.339 62.3442 139.395 62.3765L146.491 66.4727C146.538 66.4997 146.575 66.5417 146.596 66.5921C146.617 66.6424 146.621 66.6983 146.606 66.751C146.592 66.8036 146.561 66.85 146.517 66.8828C146.474 66.9157 146.42 66.9331 146.366 66.9324Z" fill="#FAFAFA"/>
<path d="M109.61 50.7211C114.178 48.0958 114.195 39.5541 109.648 31.6425C105.101 23.7309 97.712 19.4455 93.144 22.0708C88.5761 24.696 88.559 33.2378 93.1059 41.1494C97.6528 49.061 105.042 53.3464 109.61 50.7211Z" fill="#407BFF"/>
<path opacity="0.2" d="M109.61 50.7211C114.178 48.0958 114.195 39.5541 109.648 31.6425C105.101 23.7309 97.712 19.4455 93.144 22.0708C88.5761 24.696 88.559 33.2378 93.1059 41.1494C97.6528 49.061 105.042 53.3464 109.61 50.7211Z" fill="black"/>
<path d="M108.443 50.8851C112.99 48.2599 112.99 39.7474 108.443 31.872C103.897 23.9965 96.5244 19.7404 91.9774 22.3657C87.4303 24.9909 87.4301 33.5034 91.977 41.3789C96.5239 49.2543 103.896 53.5104 108.443 50.8851Z" fill="#407BFF"/>
<path d="M95.5698 40.5674L104.553 45.7522C104.662 45.8162 104.786 45.8502 104.912 45.8507C105.039 45.8512 105.163 45.8183 105.273 45.7553C105.383 45.6923 105.474 45.6014 105.537 45.4918C105.6 45.3822 105.633 45.2578 105.633 45.1313V34.044C105.633 33.7684 105.56 33.4977 105.422 33.2592C105.284 33.0207 105.086 32.8227 104.847 32.6853L95.848 27.5004C95.7389 27.4375 95.6152 27.4043 95.4893 27.4043C95.3634 27.4043 95.2397 27.4374 95.1306 27.5003C95.0215 27.5632 94.9309 27.6537 94.8679 27.7627C94.8048 27.8717 94.7716 27.9954 94.7715 28.1213V39.2087C94.7732 39.4854 94.848 39.7567 94.9881 39.9953C95.1283 40.2338 95.3289 40.4312 95.5698 40.5674Z" fill="#407BFF"/>
<path opacity="0.6" d="M95.5698 40.5674L104.553 45.7522C104.662 45.8162 104.786 45.8502 104.912 45.8507C105.039 45.8512 105.163 45.8183 105.273 45.7553C105.383 45.6923 105.474 45.6014 105.537 45.4918C105.6 45.3822 105.633 45.2578 105.633 45.1313V34.044C105.633 33.7684 105.56 33.4977 105.422 33.2592C105.284 33.0207 105.086 32.8227 104.847 32.6853L95.848 27.5004C95.7389 27.4375 95.6152 27.4043 95.4893 27.4043C95.3634 27.4043 95.2397 27.4374 95.1306 27.5003C95.0215 27.5632 94.9309 27.6537 94.8679 27.7627C94.8048 27.8717 94.7716 27.9954 94.7715 28.1213V39.2087C94.7732 39.4854 94.848 39.7567 94.9881 39.9953C95.1283 40.2338 95.3289 40.4312 95.5698 40.5674Z" fill="white"/>
<path d="M98.0176 34.7456V38.5073C98.0176 38.6559 98.0766 38.7984 98.1817 38.9035C98.2868 39.0086 98.4294 39.0677 98.578 39.0677H101.84C101.947 39.0676 102.052 39.0367 102.143 38.9786C102.233 38.9205 102.305 38.8377 102.349 38.74C102.394 38.6423 102.409 38.5338 102.394 38.4275C102.379 38.3212 102.333 38.2216 102.263 38.1404L99.0013 34.3787C98.9265 34.2925 98.8271 34.2311 98.7164 34.2029C98.6058 34.1747 98.4892 34.181 98.3822 34.2209C98.2752 34.2608 98.1829 34.3324 98.1178 34.4262C98.0526 34.52 98.0176 34.6314 98.0176 34.7456Z" fill="#FAFAFA"/>
<path d="M123.325 35.2329C123.249 35.2329 123.177 35.2028 123.123 35.1491C123.069 35.0954 123.039 35.0226 123.039 34.9467V34.1847C123.039 34.1088 123.069 34.036 123.123 33.9823C123.177 33.9286 123.249 33.8984 123.325 33.8984C123.363 33.8984 123.4 33.9059 123.434 33.9203C123.469 33.9347 123.5 33.9559 123.526 33.9825C123.553 34.0092 123.573 34.0407 123.587 34.0755C123.601 34.1102 123.608 34.1473 123.608 34.1847V34.9467C123.608 34.9841 123.601 35.0212 123.587 35.0559C123.573 35.0906 123.553 35.1222 123.526 35.1489C123.5 35.1755 123.469 35.1967 123.434 35.2111C123.4 35.2255 123.363 35.233 123.325 35.2329Z" fill="#407BFF"/>
<path d="M123.325 77.882C123.249 77.882 123.177 77.8518 123.123 77.7982C123.069 77.7445 123.039 77.6717 123.039 77.5958V76.0718C123.039 75.9958 123.069 75.923 123.123 75.8693C123.177 75.8157 123.249 75.7855 123.325 75.7855C123.363 75.7855 123.4 75.7929 123.434 75.8074C123.469 75.8218 123.5 75.8429 123.526 75.8696C123.553 75.8962 123.573 75.9278 123.587 75.9625C123.601 75.9972 123.608 76.0344 123.608 76.0718V77.5958C123.608 77.6332 123.601 77.6703 123.587 77.705C123.573 77.7397 123.553 77.7713 123.526 77.7979C123.5 77.8246 123.469 77.8457 123.434 77.8601C123.4 77.8746 123.363 77.882 123.325 77.882ZM123.325 74.834C123.249 74.834 123.177 74.8038 123.123 74.7502C123.069 74.6965 123.039 74.6237 123.039 74.5477V73.0278C123.039 72.9519 123.069 72.879 123.123 72.8254C123.177 72.7717 123.249 72.7415 123.325 72.7415C123.363 72.7415 123.4 72.7489 123.434 72.7634C123.469 72.7778 123.5 72.799 123.526 72.8256C123.553 72.8522 123.573 72.8838 123.587 72.9185C123.601 72.9532 123.608 72.9904 123.608 73.0278V74.5356C123.61 74.574 123.604 74.6125 123.591 74.6486C123.578 74.6847 123.557 74.7178 123.531 74.7457C123.504 74.7737 123.473 74.7959 123.437 74.8111C123.402 74.8263 123.364 74.8341 123.325 74.834ZM123.325 71.79C123.249 71.79 123.177 71.7599 123.123 71.7062C123.069 71.6525 123.039 71.5797 123.039 71.5038V69.9798C123.039 69.9038 123.069 69.831 123.123 69.7773C123.177 69.7237 123.249 69.6935 123.325 69.6935C123.363 69.6935 123.4 69.7009 123.434 69.7154C123.469 69.7298 123.5 69.751 123.526 69.7776C123.553 69.8042 123.573 69.8358 123.587 69.8705C123.601 69.9052 123.608 69.9424 123.608 69.9798V71.5038C123.608 71.5412 123.601 71.5783 123.587 71.613C123.573 71.6477 123.553 71.6793 123.526 71.7059C123.5 71.7326 123.469 71.7537 123.434 71.7682C123.4 71.7826 123.363 71.79 123.325 71.79ZM123.325 68.742C123.249 68.742 123.177 68.7118 123.123 68.6582C123.069 68.6045 123.039 68.5317 123.039 68.4558V66.9317C123.039 66.8943 123.046 66.8573 123.061 66.8228C123.075 66.7883 123.097 66.757 123.123 66.7307C123.15 66.7045 123.181 66.6838 123.216 66.6698C123.251 66.6559 123.288 66.649 123.325 66.6495C123.4 66.6495 123.472 66.6793 123.525 66.7322C123.578 66.7851 123.608 66.8569 123.608 66.9317V68.4558C123.608 68.4932 123.601 68.5303 123.587 68.565C123.573 68.5997 123.553 68.6313 123.526 68.6579C123.5 68.6846 123.469 68.7057 123.434 68.7201C123.4 68.7346 123.363 68.742 123.325 68.742ZM123.325 65.698C123.249 65.698 123.177 65.6679 123.123 65.6142C123.069 65.5605 123.039 65.4877 123.039 65.4118V63.8878C123.039 63.8119 123.069 63.739 123.123 63.6854C123.177 63.6317 123.249 63.6015 123.325 63.6015C123.363 63.6015 123.4 63.6089 123.434 63.6234C123.469 63.6378 123.5 63.659 123.526 63.6856C123.553 63.7122 123.573 63.7438 123.587 63.7785C123.601 63.8132 123.608 63.8504 123.608 63.8878V65.4118C123.608 65.4492 123.601 65.4863 123.587 65.521C123.573 65.5557 123.553 65.5873 123.526 65.6139C123.5 65.6406 123.469 65.6617 123.434 65.6762C123.4 65.6906 123.363 65.698 123.325 65.698ZM123.325 62.65C123.249 62.65 123.177 62.6199 123.123 62.5662C123.069 62.5125 123.039 62.4397 123.039 62.3638V60.8277C123.039 60.7517 123.069 60.6789 123.123 60.6253C123.177 60.5716 123.249 60.5414 123.325 60.5414C123.363 60.5414 123.4 60.5488 123.434 60.5633C123.469 60.5777 123.5 60.5989 123.526 60.6255C123.553 60.6521 123.573 60.6837 123.587 60.7184C123.601 60.7531 123.608 60.7903 123.608 60.8277V62.3517C123.61 62.3901 123.604 62.4285 123.591 62.4646C123.578 62.5008 123.557 62.5338 123.531 62.5617C123.504 62.5897 123.473 62.6119 123.437 62.6271C123.402 62.6423 123.364 62.6501 123.325 62.65ZM123.325 59.602C123.288 59.6025 123.251 59.5956 123.216 59.5817C123.181 59.5677 123.15 59.547 123.123 59.5208C123.097 59.4945 123.075 59.4632 123.061 59.4287C123.046 59.3942 123.039 59.3572 123.039 59.3198V57.7958C123.039 57.7199 123.069 57.6471 123.123 57.5934C123.177 57.5397 123.249 57.5095 123.325 57.5095C123.363 57.5095 123.4 57.517 123.434 57.5314C123.469 57.5458 123.5 57.567 123.526 57.5936C123.553 57.6202 123.573 57.6518 123.587 57.6865C123.601 57.7212 123.608 57.7584 123.608 57.7958V59.3198C123.61 59.3582 123.604 59.3966 123.591 59.4327C123.578 59.4689 123.557 59.5019 123.531 59.5299C123.504 59.5578 123.473 59.58 123.437 59.5952C123.402 59.6104 123.364 59.6182 123.325 59.6181V59.602ZM123.325 56.558C123.249 56.558 123.177 56.5279 123.123 56.4742C123.069 56.4205 123.039 56.3477 123.039 56.2718V54.7478C123.039 54.6719 123.069 54.599 123.123 54.5454C123.177 54.4917 123.249 54.4615 123.325 54.4615C123.363 54.4615 123.4 54.4689 123.434 54.4834C123.469 54.4978 123.5 54.519 123.526 54.5456C123.553 54.5722 123.573 54.6038 123.587 54.6385C123.601 54.6732 123.608 54.7104 123.608 54.7478V56.2718C123.608 56.3092 123.601 56.3463 123.587 56.381C123.573 56.4157 123.553 56.4473 123.526 56.4739C123.5 56.5006 123.469 56.5217 123.434 56.5362C123.4 56.5506 123.363 56.558 123.325 56.558ZM123.325 53.51C123.288 53.51 123.251 53.5026 123.216 53.4882C123.181 53.4738 123.149 53.4528 123.123 53.4262C123.096 53.3996 123.075 53.368 123.061 53.3333C123.046 53.2986 123.039 53.2614 123.039 53.2238V51.7038C123.039 51.6279 123.069 51.5551 123.123 51.5014C123.177 51.4477 123.249 51.4175 123.325 51.4175C123.363 51.4175 123.4 51.425 123.434 51.4394C123.469 51.4538 123.5 51.475 123.526 51.5016C123.553 51.5283 123.573 51.5598 123.587 51.5946C123.601 51.6293 123.608 51.6664 123.608 51.7038V53.2238C123.608 53.2612 123.601 53.2983 123.587 53.333C123.573 53.3677 123.553 53.3993 123.526 53.4259C123.5 53.4526 123.469 53.4737 123.434 53.4882C123.4 53.5026 123.363 53.51 123.325 53.51ZM123.325 50.466C123.249 50.466 123.177 50.4359 123.123 50.3822C123.069 50.3285 123.039 50.2557 123.039 50.1798V48.6558C123.039 48.5799 123.069 48.5071 123.123 48.4534C123.177 48.3997 123.249 48.3695 123.325 48.3695C123.363 48.3695 123.4 48.377 123.434 48.3914C123.469 48.4058 123.5 48.427 123.526 48.4536C123.553 48.4802 123.573 48.5118 123.587 48.5465C123.601 48.5812 123.608 48.6184 123.608 48.6558V50.1798C123.608 50.2172 123.601 50.2543 123.587 50.289C123.573 50.3237 123.553 50.3553 123.526 50.382C123.5 50.4086 123.469 50.4297 123.434 50.4442C123.4 50.4586 123.363 50.466 123.325 50.466ZM123.325 47.418C123.249 47.418 123.177 47.3879 123.123 47.3342C123.069 47.2805 123.039 47.2077 123.039 47.1318V45.6078C123.039 45.5704 123.046 45.5333 123.061 45.4988C123.075 45.4643 123.097 45.433 123.123 45.4068C123.15 45.3805 123.181 45.3598 123.216 45.3459C123.251 45.3319 123.288 45.325 123.325 45.3255C123.4 45.3255 123.472 45.3553 123.525 45.4082C123.578 45.4611 123.608 45.5329 123.608 45.6078V47.1197C123.61 47.1581 123.604 47.1965 123.591 47.2326C123.578 47.2688 123.557 47.3018 123.531 47.3298C123.504 47.3577 123.473 47.3799 123.437 47.3951C123.402 47.4103 123.364 47.4181 123.325 47.418ZM123.325 44.3741C123.249 44.3741 123.177 44.3439 123.123 44.2902C123.069 44.2365 123.039 44.1637 123.039 44.0878V42.5638C123.039 42.4879 123.069 42.4151 123.123 42.3614C123.177 42.3077 123.249 42.2775 123.325 42.2775C123.363 42.2775 123.4 42.285 123.434 42.2994C123.469 42.3138 123.5 42.335 123.526 42.3616C123.553 42.3883 123.573 42.4198 123.587 42.4546C123.601 42.4893 123.608 42.5264 123.608 42.5638V44.0878C123.608 44.1252 123.601 44.1623 123.587 44.197C123.573 44.2317 123.553 44.2633 123.526 44.29C123.5 44.3166 123.469 44.3378 123.434 44.3522C123.4 44.3666 123.363 44.3741 123.325 44.3741ZM123.325 41.326C123.249 41.326 123.177 41.2959 123.123 41.2422C123.069 41.1885 123.039 41.1157 123.039 41.0398V39.5158C123.039 39.4399 123.069 39.3671 123.123 39.3134C123.177 39.2597 123.249 39.2295 123.325 39.2295C123.363 39.2295 123.4 39.237 123.434 39.2514C123.469 39.2658 123.5 39.287 123.526 39.3136C123.553 39.3402 123.573 39.3718 123.587 39.4065C123.601 39.4412 123.608 39.4784 123.608 39.5158V41.0398C123.608 41.0772 123.601 41.1143 123.587 41.149C123.573 41.1837 123.553 41.2153 123.526 41.242C123.5 41.2686 123.469 41.2897 123.434 41.3042C123.4 41.3186 123.363 41.326 123.325 41.326ZM123.325 38.278C123.288 38.2786 123.251 38.2717 123.216 38.2577C123.181 38.2438 123.15 38.2231 123.123 38.1968C123.097 38.1705 123.075 38.1393 123.061 38.1047C123.046 38.0702 123.039 38.0332 123.039 37.9958V36.4718C123.039 36.3959 123.069 36.3231 123.123 36.2694C123.177 36.2157 123.249 36.1855 123.325 36.1855C123.363 36.1855 123.4 36.193 123.434 36.2074C123.469 36.2218 123.5 36.243 123.526 36.2696C123.553 36.2963 123.573 36.3279 123.587 36.3626C123.601 36.3973 123.608 36.4344 123.608 36.4718V37.9958C123.608 38.0329 123.6 38.0696 123.586 38.1038C123.572 38.1381 123.551 38.1692 123.525 38.1954C123.499 38.2216 123.468 38.2424 123.433 38.2565C123.399 38.2707 123.362 38.278 123.325 38.278Z" fill="#407BFF"/>
<path d="M123.325 80.1801C123.288 80.1806 123.251 80.1737 123.216 80.1598C123.181 80.1458 123.15 80.1251 123.123 80.0989C123.097 80.0726 123.075 80.0413 123.061 80.0068C123.046 79.9723 123.039 79.9353 123.039 79.8979V79.1359C123.039 79.0599 123.069 78.9871 123.123 78.9335C123.177 78.8798 123.249 78.8496 123.325 78.8496C123.363 78.8496 123.4 78.857 123.434 78.8715C123.469 78.8859 123.5 78.9071 123.526 78.9337C123.553 78.9603 123.573 78.9919 123.587 79.0266C123.601 79.0613 123.608 79.0985 123.608 79.1359V79.8979C123.608 79.9727 123.578 80.0445 123.525 80.0974C123.472 80.1504 123.4 80.1801 123.325 80.1801Z" fill="#407BFF"/>
<path d="M130.521 61.4284C130.468 61.4291 130.416 61.4147 130.371 61.3868C130.326 61.359 130.29 61.3189 130.267 61.2712C130.25 61.2377 130.24 61.201 130.237 61.1635C130.234 61.1259 130.239 61.0882 130.251 61.0525C130.263 61.0168 130.282 60.9839 130.307 60.9556C130.332 60.9274 130.362 60.9045 130.396 60.8882L131.078 60.5495C131.111 60.5328 131.147 60.5229 131.185 60.5202C131.222 60.5176 131.259 60.5223 131.295 60.5341C131.33 60.5459 131.363 60.5645 131.391 60.589C131.419 60.6134 131.442 60.6432 131.459 60.6765C131.475 60.7099 131.485 60.7462 131.488 60.7834C131.491 60.8206 131.486 60.8579 131.474 60.8933C131.462 60.9287 131.444 60.9614 131.419 60.9896C131.395 61.0178 131.365 61.0408 131.332 61.0575L130.65 61.4002C130.61 61.4195 130.566 61.4292 130.521 61.4284Z" fill="#407BFF"/>
<path d="M127.167 63.0972C127.114 63.0979 127.062 63.0835 127.017 63.0556C126.972 63.0278 126.936 62.9877 126.913 62.94C126.892 62.9056 126.879 62.8673 126.875 62.8275C126.87 62.7877 126.874 62.7474 126.886 62.7093C126.899 62.6712 126.919 62.6361 126.946 62.6063C126.972 62.5766 127.005 62.5529 127.042 62.5368L128.719 61.7023C128.754 61.6824 128.792 61.6699 128.832 61.6657C128.871 61.6614 128.911 61.6655 128.949 61.6777C128.987 61.6898 129.022 61.7098 129.052 61.7362C129.082 61.7627 129.106 61.795 129.122 61.8313C129.142 61.8658 129.155 61.9041 129.159 61.9437C129.163 61.9833 129.159 62.0234 129.147 62.0614C129.135 62.0993 129.115 62.1343 129.088 62.1641C129.062 62.1939 129.03 62.2179 128.993 62.2344L127.296 63.069C127.256 63.0884 127.212 63.098 127.167 63.0972Z" fill="#407BFF"/>
<path d="M124.81 64.2713C124.757 64.2719 124.705 64.2575 124.66 64.2296C124.615 64.2018 124.579 64.1617 124.556 64.114C124.535 64.0796 124.522 64.0413 124.517 64.0015C124.513 63.9617 124.517 63.9214 124.529 63.8833C124.541 63.8452 124.561 63.8101 124.588 63.7803C124.615 63.7506 124.648 63.7269 124.685 63.7108L125.366 63.3722C125.4 63.3523 125.439 63.3398 125.478 63.3356C125.518 63.3314 125.558 63.3355 125.596 63.3476C125.634 63.3597 125.669 63.3797 125.699 63.4061C125.729 63.4326 125.753 63.465 125.769 63.5012C125.803 63.5691 125.808 63.6476 125.784 63.7194C125.76 63.7912 125.708 63.8504 125.64 63.8842L124.959 64.2229C124.914 64.2526 124.863 64.2693 124.81 64.2713Z" fill="#407BFF"/>
<path d="M114.252 43.6108C114.204 43.6111 114.156 43.5987 114.113 43.5746C114.071 43.5506 114.035 43.5157 114.011 43.4737L113.607 42.8205C113.586 42.7884 113.571 42.7521 113.563 42.714C113.556 42.6758 113.557 42.6366 113.566 42.5987C113.574 42.5609 113.591 42.5252 113.614 42.494C113.637 42.4628 113.666 42.4367 113.7 42.4174C113.733 42.3969 113.769 42.3831 113.807 42.3769C113.845 42.3706 113.884 42.3721 113.922 42.3811C113.96 42.3901 113.995 42.4065 114.026 42.4293C114.057 42.4522 114.083 42.481 114.103 42.5141L114.506 43.1673C114.533 43.2105 114.548 43.2601 114.549 43.311C114.55 43.3619 114.537 43.4121 114.512 43.4563C114.487 43.5005 114.45 43.5371 114.406 43.5621C114.362 43.5872 114.311 43.5998 114.26 43.5987L114.252 43.6108Z" fill="#407BFF"/>
<path d="M120.512 53.9381C120.462 53.9383 120.414 53.9259 120.371 53.9018C120.328 53.8778 120.292 53.8431 120.266 53.801L119.484 52.5108C119.462 52.4788 119.447 52.4426 119.439 52.4046C119.432 52.3665 119.432 52.3274 119.441 52.2895C119.449 52.2516 119.464 52.2158 119.487 52.1842C119.509 52.1526 119.538 52.1259 119.571 52.1056C119.604 52.0854 119.641 52.0721 119.679 52.0666C119.718 52.061 119.757 52.0633 119.794 52.0733C119.832 52.0832 119.867 52.1007 119.897 52.1247C119.928 52.1486 119.953 52.1785 119.971 52.2125L120.754 53.5026C120.774 53.5353 120.788 53.5718 120.794 53.6099C120.8 53.648 120.799 53.687 120.79 53.7245C120.781 53.7621 120.765 53.7974 120.742 53.8286C120.719 53.8597 120.69 53.886 120.657 53.9058C120.612 53.9297 120.562 53.9409 120.512 53.9381ZM118.947 51.3577C118.898 51.358 118.85 51.3455 118.806 51.3215C118.763 51.2975 118.727 51.2627 118.701 51.2206L117.919 49.9305C117.899 49.8978 117.885 49.8613 117.879 49.8232C117.873 49.7851 117.874 49.7461 117.883 49.7086C117.892 49.671 117.908 49.6357 117.931 49.6045C117.954 49.5734 117.983 49.5471 118.016 49.5273C118.049 49.5062 118.085 49.492 118.123 49.4855C118.162 49.4789 118.201 49.4802 118.238 49.4893C118.276 49.4983 118.312 49.5149 118.343 49.5381C118.374 49.5613 118.4 49.5905 118.419 49.6241L119.201 50.9142C119.227 50.9577 119.24 51.0069 119.24 51.057C119.241 51.1072 119.228 51.1566 119.204 51.2005C119.179 51.2444 119.144 51.2812 119.101 51.3073C119.059 51.3334 119.01 51.348 118.96 51.3497L118.947 51.3577ZM117.383 48.7774C117.334 48.7765 117.285 48.7631 117.242 48.7384C117.199 48.7137 117.163 48.6786 117.137 48.6363L116.355 47.3461C116.324 47.282 116.319 47.2087 116.339 47.1407C116.36 47.0726 116.405 47.0146 116.466 46.9779C116.526 46.9412 116.599 46.9284 116.668 46.9421C116.738 46.9557 116.8 46.9949 116.843 47.0518L117.621 48.3299C117.643 48.362 117.658 48.3983 117.665 48.4364C117.672 48.4746 117.671 48.5138 117.663 48.5517C117.654 48.5895 117.637 48.6252 117.614 48.6564C117.591 48.6876 117.562 48.7137 117.528 48.733C117.484 48.7599 117.434 48.7752 117.383 48.7774ZM115.819 46.193C115.77 46.1929 115.721 46.1803 115.678 46.1563C115.635 46.1323 115.599 46.0978 115.573 46.056L114.791 44.7658C114.771 44.7335 114.759 44.6977 114.753 44.6605C114.748 44.6232 114.749 44.5853 114.759 44.5488C114.768 44.5123 114.784 44.4779 114.807 44.4477C114.829 44.4175 114.857 44.392 114.889 44.3727C114.922 44.3534 114.958 44.3406 114.995 44.3351C115.032 44.3296 115.07 44.3315 115.106 44.3407C115.143 44.3498 115.177 44.3661 115.208 44.3886C115.238 44.411 115.263 44.4392 115.283 44.4715L116.065 45.7616C116.092 45.8048 116.106 45.8545 116.107 45.9054C116.108 45.9563 116.096 46.0065 116.07 46.0507C116.045 46.0949 116.008 46.1314 115.964 46.1565C115.92 46.1816 115.87 46.1942 115.819 46.193Z" fill="#407BFF"/>
<path d="M121.684 55.8818C121.635 55.8814 121.587 55.8681 121.544 55.8434C121.502 55.8187 121.467 55.7833 121.442 55.7407L121.039 55.0916C121.004 55.0271 120.995 54.9515 121.014 54.8804C121.033 54.8094 121.078 54.7484 121.141 54.71C121.204 54.6717 121.279 54.6589 121.35 54.6744C121.422 54.6899 121.486 54.7325 121.527 54.7933L121.93 55.4464C121.952 55.4788 121.966 55.5153 121.973 55.5536C121.98 55.592 121.979 55.6313 121.97 55.6692C121.961 55.707 121.944 55.7426 121.92 55.7737C121.897 55.8047 121.867 55.8306 121.833 55.8496C121.787 55.8738 121.736 55.885 121.684 55.8818Z" fill="#407BFF"/>
</svg>
