<svg width="188" height="160" viewBox="0 0 188 160" fill="none" xmlns="http://www.w3.org/2000/svg">
<path d="M178.749 155.308H50.1995C49.7989 155.311 49.4021 155.231 49.034 155.073C48.6659 154.915 48.3347 154.682 48.0611 154.389C47.7875 154.097 47.5776 153.75 47.4446 153.373C47.3116 152.995 47.2584 152.593 47.2884 152.194L52.5825 68.1846C52.6496 67.3473 53.0256 66.5648 53.6374 65.9892C54.2493 65.4137 55.0532 65.0862 55.8931 65.0704H184.436C184.836 65.0674 185.233 65.1475 185.601 65.3056C185.969 65.4638 186.3 65.6965 186.574 65.9892C186.848 66.2818 187.057 66.628 187.19 67.0059C187.323 67.3838 187.377 67.7851 187.347 68.1846L182.052 152.194C181.986 153.03 181.611 153.812 181 154.387C180.39 154.962 179.587 155.291 178.749 155.308Z" fill="#263238"/>
<path opacity="0.6" d="M178.749 155.308H50.1995C49.7989 155.311 49.4021 155.231 49.034 155.073C48.6659 154.915 48.3347 154.682 48.0611 154.389C47.7875 154.097 47.5776 153.75 47.4446 153.373C47.3116 152.995 47.2584 152.593 47.2884 152.194L52.5825 68.1846C52.6496 67.3473 53.0256 66.5648 53.6374 65.9892C54.2493 65.4137 55.0532 65.0862 55.8931 65.0704H184.436C184.836 65.0674 185.233 65.1475 185.601 65.3056C185.969 65.4638 186.3 65.6965 186.574 65.9892C186.848 66.2818 187.057 66.628 187.19 67.0059C187.323 67.3838 187.377 67.7851 187.347 68.1846L182.052 152.194C181.986 153.03 181.611 153.812 181 154.387C180.39 154.962 179.587 155.291 178.749 155.308Z" fill="black"/>
<path d="M177.788 155.308H49.2453C48.8442 155.312 48.4466 155.233 48.0777 155.075C47.7088 154.917 47.3767 154.685 47.1024 154.392C46.8281 154.099 46.6176 153.753 46.4842 153.374C46.3508 152.996 46.2974 152.594 46.3275 152.194L51.6216 68.1847C51.6887 67.3473 52.0646 66.5649 52.6765 65.9893C53.2883 65.4138 54.0923 65.0863 54.9322 65.0705H183.475C183.875 65.0664 184.273 65.1458 184.641 65.3036C185.01 65.4614 185.342 65.6942 185.615 65.987C185.889 66.2799 186.099 66.6265 186.232 67.0048C186.364 67.3832 186.417 67.785 186.386 68.1847L181.092 152.194C181.025 153.03 180.65 153.812 180.039 154.387C179.429 154.962 178.626 155.291 177.788 155.308Z" fill="#263238"/>
<path d="M177.625 156.377H24.6699C23.9657 156.371 23.2742 156.564 22.6751 156.934C22.0761 157.304 21.5941 157.836 21.2849 158.469C21.2065 158.633 21.1714 158.815 21.1828 158.997C21.1942 159.178 21.2517 159.354 21.35 159.507C21.4483 159.66 21.5841 159.786 21.7445 159.872C21.9048 159.958 22.0845 160.002 22.2665 159.999H179.995C180.177 160.002 180.356 159.958 180.517 159.872C180.677 159.786 180.813 159.66 180.911 159.507C181.009 159.354 181.067 159.178 181.078 158.997C181.09 158.815 181.055 158.633 180.976 158.469C180.671 157.841 180.194 157.311 179.602 156.941C179.009 156.571 178.324 156.376 177.625 156.377Z" fill="#263238"/>
<path opacity="0.6" d="M177.624 156.377H155.872C155.173 156.375 154.488 156.57 153.895 156.94C153.302 157.31 152.826 157.84 152.521 158.469C152.443 158.633 152.408 158.814 152.419 158.995C152.43 159.176 152.487 159.351 152.585 159.504C152.682 159.657 152.817 159.783 152.976 159.869C153.136 159.956 153.315 160.001 153.496 159.999H179.994C180.176 160.002 180.356 159.958 180.516 159.872C180.676 159.786 180.812 159.66 180.91 159.507C181.009 159.354 181.066 159.178 181.078 158.996C181.089 158.815 181.054 158.633 180.976 158.469C180.67 157.84 180.194 157.311 179.601 156.941C179.008 156.571 178.323 156.375 177.624 156.377Z" fill="black"/>
<path d="M164.139 159.018H158.52C158.39 159.016 158.266 158.963 158.175 158.871C158.083 158.778 158.032 158.653 158.032 158.524C158.032 158.394 158.083 158.269 158.175 158.176C158.266 158.084 158.39 158.031 158.52 158.029H164.139C164.204 158.029 164.268 158.042 164.328 158.067C164.388 158.092 164.442 158.128 164.488 158.174C164.534 158.22 164.571 158.274 164.595 158.334C164.62 158.394 164.633 158.459 164.633 158.524C164.633 158.588 164.62 158.653 164.595 158.713C164.571 158.773 164.534 158.827 164.488 158.873C164.442 158.919 164.388 158.955 164.328 158.98C164.268 159.005 164.204 159.018 164.139 159.018Z" fill="#407BFF"/>
<path opacity="0.7" d="M91.882 159.018H86.2696C86.1385 159.018 86.0128 158.966 85.9201 158.873C85.8275 158.78 85.7754 158.655 85.7754 158.524C85.7754 158.459 85.7882 158.394 85.813 158.334C85.8378 158.274 85.8743 158.22 85.9201 158.174C85.966 158.128 86.0205 158.092 86.0805 158.067C86.1404 158.042 86.2047 158.029 86.2696 158.029H91.882C91.9469 158.029 92.0111 158.042 92.0711 158.067C92.131 158.092 92.1855 158.128 92.2314 158.174C92.2773 158.22 92.3137 158.274 92.3386 158.334C92.3634 158.394 92.3762 158.459 92.3762 158.524C92.3762 158.655 92.3241 158.78 92.2314 158.873C92.1387 158.966 92.013 159.018 91.882 159.018Z" fill="white"/>
<path d="M169.954 158.029H166.278C166.054 158.029 165.872 158.211 165.872 158.436V158.612C165.872 158.836 166.054 159.018 166.278 159.018H169.954C170.179 159.018 170.361 158.836 170.361 158.612V158.436C170.361 158.211 170.179 158.029 169.954 158.029Z" fill="#407BFF"/>
<path d="M49.2251 149.16L54.1401 71.2169C54.1655 70.8918 54.3115 70.5878 54.5495 70.3648C54.7875 70.1418 55.1003 70.0159 55.4265 70.0118H182.358C182.513 70.0095 182.667 70.0396 182.811 70.1003C182.954 70.1611 183.083 70.251 183.189 70.3645C183.296 70.4779 183.377 70.6123 183.429 70.7591C183.48 70.9059 183.5 71.0619 183.488 71.2169L178.58 149.16C178.553 149.486 178.406 149.79 178.166 150.013C177.927 150.236 177.614 150.361 177.287 150.365H50.3625C50.207 150.367 50.0528 150.336 49.9098 150.275C49.7667 150.214 49.6378 150.124 49.531 150.011C49.4243 149.898 49.342 149.764 49.2894 149.617C49.2367 149.471 49.2149 149.315 49.2251 149.16Z" fill="white"/>
<path opacity="0.1" d="M121.433 67.6094L79.1545 147.97H47.965C47.8086 147.972 47.6534 147.942 47.5094 147.881C47.3654 147.819 47.2357 147.729 47.1286 147.615C47.0215 147.501 46.9395 147.366 46.8877 147.218C46.8358 147.07 46.8154 146.914 46.8277 146.758L51.7427 68.8212C51.7679 68.4954 51.9137 68.1907 52.1516 67.9666C52.3894 67.7425 52.7023 67.6151 53.029 67.6094H121.433Z" fill="#407BFF"/>
<path opacity="0.1" d="M158.459 67.6094L116.18 147.97H106.323L148.602 67.6094H158.459Z" fill="#407BFF"/>
<path opacity="0.1" d="M181.091 68.8197L176.176 146.756C176.152 147.083 176.007 147.388 175.769 147.613C175.53 147.837 175.217 147.964 174.889 147.968H126.822L169.101 67.6078H179.933C180.091 67.6036 180.248 67.6325 180.394 67.6927C180.54 67.7528 180.672 67.8429 180.781 67.957C180.89 68.0712 180.974 68.2069 181.027 68.3555C181.08 68.5041 181.102 68.6622 181.091 68.8197Z" fill="#407BFF"/>
<path opacity="0.4" d="M119.951 67.6894C119.932 67.935 119.823 68.1648 119.644 68.3338C119.465 68.5029 119.229 68.599 118.983 68.6034C118.865 68.6047 118.748 68.5814 118.64 68.5352C118.532 68.4889 118.435 68.4206 118.355 68.3346C118.274 68.2486 118.213 68.1468 118.174 68.0357C118.135 67.9246 118.12 67.8067 118.13 67.6894C118.147 67.4433 118.256 67.2126 118.435 67.0432C118.615 66.8739 118.851 66.7783 119.098 66.7754C119.215 66.7741 119.332 66.7974 119.44 66.8436C119.548 66.8899 119.646 66.9582 119.726 67.0442C119.806 67.1302 119.868 67.232 119.906 67.3431C119.945 67.4542 119.96 67.5721 119.951 67.6894Z" fill="white"/>
<path d="M98.9779 48.998C95.2747 53.236 93.1354 66.2277 95.8773 72.6186C98.6191 79.0095 66.8068 85.4072 93.0541 95.7924C119.302 106.178 140.295 94.1337 132.699 83.3762C125.103 72.6186 133.519 54.7051 124.724 50.203C116.776 46.1004 106.398 40.5016 98.9779 48.998Z" fill="#263238"/>
<path d="M91.1309 101.31C89.7431 106.049 88.2672 110.788 86.7372 115.527C85.2071 120.266 83.6162 124.951 81.9305 129.656L81.2873 131.43L80.9623 132.316L80.8608 132.58L80.6983 132.98C80.5968 133.237 80.4411 133.515 80.3057 133.779C79.6438 134.988 78.6564 135.987 77.4555 136.663C76.3652 137.255 75.1484 137.575 73.908 137.597C72.1684 137.605 70.4446 137.267 68.8372 136.602C67.5215 136.068 66.2474 135.437 65.0257 134.713C60.5869 131.983 56.5185 128.693 52.9209 124.924L55.8388 121.484C56.8204 122.114 57.8698 122.784 58.8853 123.414C59.9008 124.043 60.9637 124.653 61.9927 125.255C64.0091 126.435 66.0908 127.5 68.2279 128.444C69.2017 128.873 70.2065 129.229 71.2338 129.507C71.9442 129.743 72.6953 129.83 73.4408 129.764C73.6304 129.764 73.5965 129.656 73.4408 129.717C73.2851 129.778 73.1159 129.954 73.1091 129.933C73.1023 129.913 73.1091 129.933 73.1091 129.893C73.1123 129.879 73.1123 129.865 73.1091 129.852L73.1633 129.683L73.4205 128.81L73.9418 127.049L78.0783 112.832C79.4865 108.093 80.9353 103.354 82.4247 98.6152L91.1309 101.31Z" fill="#B65B52"/>
<path d="M55.6295 121.376L47.7627 118.465L50.8837 126.778C50.8837 126.778 56.4351 127.577 58.588 124.659L56.8345 122.31C56.5306 121.89 56.1123 121.566 55.6295 121.376Z" fill="#B55B52"/>
<path d="M40.8232 120.882L43.8156 127.699L50.9173 126.765L47.7896 118.451L40.8232 120.882Z" fill="#B55B52"/>
<path d="M85.3899 89.0484C81.7882 89.9624 79.2969 104.768 79.2969 104.768L89.215 111.538C89.215 111.538 98.693 96.6038 95.9511 92.6501C93.04 88.5001 90.6367 87.7147 85.3899 89.0484Z" fill="#407BFF"/>
<path opacity="0.5" d="M85.3899 89.0484C81.7882 89.9624 79.2969 104.768 79.2969 104.768L89.215 111.538C89.215 111.538 98.693 96.6038 95.9511 92.6501C93.04 88.5001 90.6367 87.7147 85.3899 89.0484Z" fill="white"/>
<path opacity="0.2" d="M85.0655 94.4316L92.763 96.2122L93.501 103.747C92.1968 106.407 90.7574 108.999 89.1885 111.512L83.1699 107.45C83.434 103.964 84.0839 96.8011 85.0655 94.4316Z" fill="black"/>
<path d="M85.3906 89.0493C85.3906 89.0493 81.2271 90.5116 89.561 141.734H125.009C124.413 127.307 124.4 118.404 131.291 88.7988C126.33 87.7727 121.3 87.1098 116.242 86.8151C110.277 86.524 105.41 86.3345 100.143 86.8151C93.2303 87.4448 85.3906 89.0493 85.3906 89.0493Z" fill="#407BFF"/>
<path opacity="0.5" d="M85.3906 89.0493C85.3906 89.0493 81.2271 90.5116 89.561 141.734H125.009C124.413 127.307 124.4 118.404 131.291 88.7988C126.33 87.7727 121.3 87.1098 116.242 86.8151C110.277 86.524 105.41 86.3345 100.143 86.8151C93.2303 87.4448 85.3906 89.0493 85.3906 89.0493Z" fill="white"/>
<path opacity="0.2" d="M122.951 102.543L127.527 106.443C126.552 111.622 125.896 115.921 125.496 119.773C124.623 115.927 122.443 105.488 122.951 102.543Z" fill="black"/>
<path d="M114.644 68.6855C113.629 73.8646 112.613 83.3562 116.242 86.8157C116.242 86.8157 112.857 94.5741 103.886 94.5741C94.9162 94.5741 100.143 86.8157 100.143 86.8157C105.917 85.4617 105.769 81.1492 104.767 77.1278L114.644 68.6855Z" fill="#B55B52"/>
<path d="M115.09 84.8798C114.237 86.6061 111.489 90.553 103.811 91.9612C103.598 92.0004 103.378 91.9568 103.195 91.8393C101.76 90.8374 100.866 88.7184 101.496 86.2608C101.538 86.1099 101.536 85.9502 101.492 85.7999C101.448 85.6497 101.363 85.5148 101.246 85.4106C101.129 85.3063 100.985 85.2369 100.831 85.2101C100.676 85.1832 100.517 85.2002 100.372 85.2589C99.7825 85.5057 99.2161 85.8047 98.6797 86.1525C98.5619 86.2306 98.4663 86.3379 98.4022 86.4639C97.8403 87.5201 95.5655 92.6924 102.43 95.881C102.54 95.9279 102.657 95.9554 102.776 95.9623C106.838 96.0435 113.939 95.2447 118.428 87.1613C118.508 87.0153 118.544 86.849 118.53 86.683C118.517 86.517 118.456 86.3585 118.353 86.227C117.75 85.5666 117.049 85.0027 116.275 84.5548C116.178 84.4922 116.068 84.4508 115.953 84.4333C115.839 84.4158 115.722 84.4226 115.61 84.4532C115.498 84.4839 115.394 84.5377 115.305 84.6112C115.215 84.6847 115.142 84.7762 115.09 84.8798Z" fill="#FAFAFA"/>
<path d="M116.972 106.19L107.832 105.926C107.737 105.927 107.642 105.907 107.555 105.869C107.468 105.83 107.389 105.774 107.325 105.703C107.261 105.632 107.213 105.548 107.184 105.457C107.155 105.366 107.145 105.27 107.155 105.175L107.243 104.044C107.27 103.854 107.365 103.68 107.511 103.556C107.657 103.431 107.844 103.364 108.036 103.367L117.175 103.631C117.271 103.631 117.366 103.65 117.454 103.689C117.542 103.728 117.621 103.786 117.685 103.857C117.749 103.929 117.797 104.014 117.826 104.106C117.855 104.197 117.864 104.294 117.852 104.39L117.764 105.513C117.738 105.704 117.642 105.877 117.497 106.002C117.351 106.127 117.164 106.194 116.972 106.19Z" fill="#FAFAFA"/>
<path opacity="0.2" d="M110.615 72.1309L104.766 77.1204C105.017 78.056 105.184 79.0121 105.267 79.9773C107.467 79.6591 110.5 77.2355 110.737 74.9269C110.866 73.9952 110.825 73.0477 110.615 72.1309Z" fill="black"/>
<path d="M121.468 58.89C119.836 67.4 119.329 71.0355 114.427 74.8741C107.055 80.6557 96.9605 76.7832 96.0262 67.9619C95.1799 60.0206 97.9895 47.4419 106.858 45.1131C108.802 44.5966 110.845 44.5848 112.794 45.0787C114.743 45.5727 116.534 46.556 117.997 47.9356C119.46 49.3152 120.547 51.0454 121.154 52.9624C121.762 54.8794 121.87 56.9197 121.468 58.89Z" fill="#B55B52"/>
<path d="M116.627 52.594C115.571 57.922 115.32 64.9831 120.201 64.9831C125.083 64.9831 128.908 56.6763 124.697 50.1703C120.486 43.6643 117.243 49.4527 116.627 52.594Z" fill="#263238"/>
<path d="M125.063 53.2497C125.063 59.0448 117.765 56.1811 114.535 53.6829C111.306 51.1848 111.15 51.4556 105.166 51.4488C99.181 51.4421 97.9827 51.0291 96.2157 48.1721C94.4487 45.3152 94.6112 43.4331 98.592 44.0357C102.573 44.6382 99.2284 40.5762 102.194 38.3218C105.159 36.0673 108.673 36.636 112.728 41.7812C116.783 46.9265 125.063 43.2097 125.063 53.2497Z" fill="#263238"/>
<path d="M122.92 66.4597C123.688 63.8405 122.935 61.3139 121.237 60.8163C119.54 60.3188 117.542 62.0387 116.774 64.6579C116.006 67.2771 116.76 69.8037 118.457 70.3013C120.154 70.7988 122.152 69.0789 122.92 66.4597Z" fill="white"/>
<path d="M109.369 73.0101C107.798 73.0098 106.243 72.6896 104.8 72.0691C104.769 72.0565 104.741 72.0378 104.717 72.0143C104.693 71.9907 104.675 71.9626 104.662 71.9317C104.65 71.9008 104.643 71.8677 104.644 71.8343C104.644 71.8009 104.651 71.7679 104.664 71.7373C104.692 71.6756 104.743 71.627 104.806 71.6018C104.869 71.5766 104.94 71.5766 105.003 71.6019C106.363 72.1857 107.827 72.4907 109.307 72.4988C110.787 72.507 112.254 72.2181 113.621 71.6493C114.95 71.1054 116.157 70.3011 117.171 69.2838C118.185 68.2665 118.985 67.0567 119.524 65.7256C121.555 59.9101 123.627 52.6526 121.23 48.1235C120.748 47.242 120.081 46.4752 119.275 45.8757C118.469 45.2762 117.542 44.8583 116.559 44.6505C116.494 44.633 116.438 44.5905 116.404 44.5322C116.37 44.4739 116.36 44.4046 116.376 44.339C116.394 44.2738 116.436 44.218 116.495 44.1838C116.553 44.1496 116.622 44.1397 116.688 44.1563C117.738 44.3823 118.727 44.8318 119.588 45.4743C120.449 46.1168 121.162 46.9373 121.677 47.8798C124.169 52.5579 122.09 59.9575 119.998 65.8813C119.431 67.2792 118.589 68.5493 117.523 69.6167C116.457 70.6841 115.188 71.5271 113.79 72.0961C112.39 72.6846 110.888 72.995 109.369 73.0101Z" fill="white"/>
<path opacity="0.6" d="M122.673 66.4841C122.07 68.5151 120.689 69.9436 119.585 69.6254C118.482 69.3072 118.076 67.371 118.678 65.3129C119.281 63.2548 120.662 61.8467 121.765 62.1716C122.869 62.4966 123.275 64.426 122.673 66.4841Z" fill="#407BFF"/>
<path d="M105.502 70.95L102.85 70.4383C102.384 70.3483 101.933 70.6534 101.843 71.1196L101.813 71.2725C101.724 71.7388 102.029 72.1897 102.495 72.2796L105.147 72.7913C105.613 72.8813 106.064 72.5762 106.154 72.11L106.184 71.9571C106.274 71.4908 105.969 71.0399 105.502 70.95Z" fill="white"/>
<path d="M102.038 59.5996C102.038 59.5996 100.467 62.4498 98.9775 63.7293C99.7832 64.711 101.408 64.5214 101.408 64.5214L102.038 59.5996Z" fill="#A02724"/>
<path d="M103.534 68.1642H103.595C105.129 68.2854 106.653 67.821 107.86 66.8644C107.885 66.8391 107.898 66.8051 107.898 66.7696C107.898 66.7342 107.885 66.7001 107.86 66.6748C107.848 66.6628 107.834 66.6532 107.818 66.6466C107.802 66.6401 107.785 66.6367 107.768 66.6367C107.751 66.6367 107.734 66.6401 107.719 66.6466C107.703 66.6532 107.689 66.6628 107.677 66.6748C106.525 67.5803 105.076 68.0222 103.615 67.9138C103.597 67.9109 103.58 67.9116 103.563 67.916C103.545 67.9203 103.529 67.9281 103.515 67.9389C103.501 67.9497 103.49 67.9633 103.481 67.9787C103.473 67.9942 103.468 68.0113 103.466 68.0288C103.462 68.0556 103.467 68.0828 103.479 68.1069C103.491 68.131 103.51 68.151 103.534 68.1642Z" fill="#263238"/>
<path d="M111.278 56.2492C111.317 56.2706 111.36 56.2817 111.403 56.2817C111.447 56.2817 111.49 56.2706 111.529 56.2492C111.587 56.2105 111.628 56.1508 111.643 56.0827C111.658 56.0146 111.646 55.9433 111.61 55.8836C111.286 55.3415 110.838 54.8842 110.302 54.5499C109.767 54.2155 109.159 54.0136 108.53 53.9609C108.459 53.9609 108.391 53.9885 108.34 54.0378C108.29 54.0872 108.261 54.1543 108.259 54.225C108.259 54.2938 108.286 54.36 108.334 54.4093C108.382 54.4586 108.447 54.4872 108.516 54.489C109.058 54.5407 109.581 54.7197 110.041 55.0115C110.501 55.3032 110.885 55.6995 111.163 56.168C111.193 56.205 111.233 56.2331 111.278 56.2492Z" fill="#263238"/>
<path d="M107.399 59.7148C107.284 60.3918 106.817 60.9131 106.357 60.8386C105.897 60.7641 105.632 60.1616 105.748 59.4304C105.863 58.6993 106.337 58.2321 106.79 58.3066C107.244 58.3811 107.521 59.0175 107.399 59.7148Z" fill="#263238"/>
<path d="M99.5059 58.3757C99.3908 59.0527 98.9237 59.574 98.4633 59.4995C98.003 59.425 97.7389 58.7887 97.854 58.0914C97.9691 57.394 98.443 56.8863 98.8966 56.9675C99.3502 57.0488 99.6278 57.6716 99.5059 58.3757Z" fill="#263238"/>
<path d="M99.0928 57.0413L97.4951 56.2695C97.4951 56.2695 98.1315 57.7251 99.0928 57.0413Z" fill="#263238"/>
<path d="M106.986 58.3803L105.389 57.6152C105.389 57.6152 106.025 59.0708 106.986 58.3803Z" fill="#263238"/>
<path d="M96.8243 53.6563C96.8652 53.6807 96.912 53.6936 96.9597 53.6936C97.0073 53.6936 97.0541 53.6807 97.0951 53.6563C97.5128 53.3051 98.0092 53.0602 98.542 52.9423C99.0748 52.8244 99.6283 52.8371 100.155 52.9793C100.222 53.0026 100.295 52.9986 100.358 52.9681C100.422 52.9377 100.47 52.8832 100.494 52.8168C100.517 52.7503 100.513 52.6774 100.482 52.6139C100.452 52.5504 100.398 52.5016 100.331 52.4783C99.7236 52.3053 99.0832 52.2814 98.4645 52.4087C97.8457 52.5359 97.2668 52.8106 96.7769 53.2094C96.7486 53.2294 96.7247 53.2551 96.7068 53.2847C96.689 53.3144 96.6774 53.3475 96.673 53.3818C96.6685 53.4162 96.6712 53.4511 96.681 53.4843C96.6907 53.5176 96.7072 53.5485 96.7295 53.575C96.7521 53.6111 96.7852 53.6394 96.8243 53.6563Z" fill="#263238"/>
<path d="M88.2132 150.366C88.2132 150.366 88.1184 145.519 89.5672 141.734H125.008C125.008 141.734 128.197 146.88 129.023 150.366H88.2132Z" fill="#407BFF"/>
<path d="M125.543 139.655L125.821 142.824C125.949 143.074 125.658 143.325 125.245 143.325H89.364C89.0458 143.325 88.7818 143.169 88.7615 142.966L88.4365 139.791C88.4365 139.574 88.6938 139.385 89.0458 139.385H124.927C125.044 139.372 125.163 139.391 125.271 139.438C125.379 139.486 125.473 139.561 125.543 139.655Z" fill="#407BFF"/>
<path opacity="0.3" d="M125.543 139.655L125.821 142.824C125.949 143.074 125.658 143.325 125.245 143.325H89.364C89.0458 143.325 88.7818 143.169 88.7615 142.966L88.4365 139.791C88.4365 139.574 88.6938 139.385 89.0458 139.385H124.927C125.044 139.372 125.163 139.391 125.271 139.438C125.379 139.486 125.473 139.561 125.543 139.655Z" fill="#FAFAFA"/>
<path d="M120.716 143.664H121.678C121.874 143.664 122.016 143.569 122.003 143.447L121.556 139.324C121.556 139.202 121.373 139.107 121.183 139.107H120.202C120.006 139.107 119.863 139.202 119.877 139.324L120.324 143.447C120.358 143.569 120.527 143.664 120.716 143.664Z" fill="#407BFF"/>
<path d="M92.0856 143.664H93.0469C93.2365 143.664 93.3854 143.569 93.3719 143.447L92.9183 139.324C92.9183 139.202 92.7423 139.107 92.5459 139.107H91.5846C91.395 139.107 91.2461 139.202 91.2596 139.324L91.7132 143.447C91.7268 143.569 91.896 143.664 92.0856 143.664Z" fill="#407BFF"/>
<path d="M106.405 143.664H107.339C107.528 143.664 107.677 143.569 107.664 143.447L107.21 139.324C107.21 139.202 107.028 139.107 106.838 139.107H105.877C105.687 139.107 105.538 139.202 105.552 139.324L106.005 143.447C106.046 143.569 106.208 143.664 106.405 143.664Z" fill="#407BFF"/>
<path d="M134.324 98.832C135.881 103.887 137.377 108.969 138.813 114.078L140.972 121.701L142.049 125.492L142.319 126.427L142.455 126.894L142.489 127.002L142.38 126.833C142.209 126.588 141.999 126.373 141.758 126.196C141.228 125.811 140.597 125.588 139.943 125.553C139.449 125.53 138.956 125.627 138.508 125.838C138.021 126.102 138.068 126.163 138.109 126.115C138.223 126.015 138.328 125.904 138.42 125.783C138.739 125.385 139.033 124.966 139.3 124.531C139.896 123.556 140.485 122.459 141.04 121.336C142.191 119.088 143.227 116.705 144.276 114.308C145.325 111.912 146.307 109.488 147.323 107.044C148.338 104.6 149.306 102.143 150.308 99.7189L154.634 101.005C153.51 106.286 152.197 111.472 150.572 116.637C149.773 119.23 148.886 121.796 147.864 124.396C147.336 125.695 146.774 126.995 146.077 128.343C145.705 129.071 145.289 129.777 144.831 130.455C144.547 130.88 144.23 131.283 143.883 131.66C143.334 132.283 142.667 132.792 141.92 133.156C141.175 133.518 140.351 133.691 139.523 133.657C138.542 133.602 137.599 133.256 136.815 132.662C136.316 132.285 135.884 131.828 135.536 131.308C135.316 130.974 135.123 130.623 134.96 130.258C134.9 130.11 134.832 129.954 134.784 129.818L134.656 129.487L134.48 129.006L134.128 128.051C133.667 126.785 133.2 125.519 132.774 124.253C131.907 121.721 131.041 119.196 130.228 116.658C128.567 111.584 127.019 106.487 125.584 101.364L134.324 98.832Z" fill="#B65B52"/>
<path d="M131.291 88.7988C134.845 89.8753 140.282 103.815 140.282 103.815L126.505 113.665C126.505 113.665 120.31 101.75 121.8 97.1598C123.357 92.3802 127.243 87.5667 131.291 88.7988Z" fill="#407BFF"/>
<path opacity="0.5" d="M131.291 88.7988C134.845 89.8753 140.282 103.815 140.282 103.815L126.505 113.665C126.505 113.665 120.31 101.75 121.8 97.1598C123.357 92.3802 127.243 87.5667 131.291 88.7988Z" fill="white"/>
<path d="M150.464 101.575L148.575 93.248L156.428 97.3913C156.428 97.3913 156.523 102.997 153.355 104.764L150.464 101.575Z" fill="#B55B52"/>
<path d="M151.865 86.6387L156.875 90.1929L156.428 97.3895L148.575 93.2462L151.865 86.6387Z" fill="#B55B52"/>
<path d="M10.1551 44.6156H64.9923C66.0393 44.6053 67.0771 44.8123 68.04 45.2236C69.0029 45.6349 69.8699 46.2415 70.5864 47.005C71.3028 47.7685 71.8531 48.6724 72.2023 49.6595C72.5516 50.6466 72.6922 51.6954 72.6154 52.7396L71.0853 77.5585C70.9171 79.7434 69.9398 81.7869 68.3447 83.2894C66.7496 84.7918 64.6513 85.6452 62.4603 85.6826H56.1101L58.703 94.206L46.3003 85.6826H7.64346C6.59647 85.6929 5.55872 85.4859 4.59583 85.0746C3.63294 84.6633 2.76586 84.0567 2.0494 83.2932C1.33294 82.5296 0.782696 81.6257 0.433453 80.6386C0.0842098 79.6516 -0.0564329 78.6028 0.0204138 77.5585L1.5369 52.7396C1.70502 50.5559 2.68132 48.5134 4.27502 47.0111C5.86873 45.5087 7.96532 44.6546 10.1551 44.6156Z" fill="#407BFF"/>
<path d="M59.9683 57.6136H13.5937C13.3968 57.6125 13.2023 57.5705 13.0224 57.4904C12.8426 57.4102 12.6814 57.2935 12.549 57.1478C12.4166 57.002 12.3159 56.8304 12.2534 56.6437C12.1908 56.457 12.1677 56.2593 12.1855 56.0632C12.2158 55.6524 12.3986 55.2676 12.698 54.9846C12.9973 54.7015 13.3916 54.5405 13.8036 54.5332H60.185C60.3809 54.5336 60.5746 54.5743 60.754 54.6528C60.9335 54.7313 61.0949 54.8458 61.2283 54.9893C61.3616 55.1328 61.464 55.3022 61.5291 55.4869C61.5942 55.6717 61.6206 55.8678 61.6067 56.0632C61.5825 56.4817 61.3995 56.8752 61.095 57.1634C60.7906 57.4515 60.3876 57.6125 59.9683 57.6136Z" fill="white"/>
<path d="M32.4955 66.6793H13.0385C12.8415 66.6807 12.6463 66.6414 12.4652 66.5637C12.2841 66.4861 12.121 66.3719 11.9862 66.2282C11.8515 66.0845 11.7478 65.9144 11.6819 65.7288C11.616 65.5431 11.5892 65.3458 11.6032 65.1493C11.6337 64.7372 11.8174 64.3516 12.1182 64.0684C12.4189 63.7851 12.8149 63.6249 13.228 63.6192H32.7054C32.903 63.6169 33.0989 63.6555 33.2808 63.7327C33.4627 63.81 33.6266 63.9241 33.7621 64.0679C33.8976 64.2117 34.0018 64.382 34.0682 64.5682C34.1345 64.7543 34.1615 64.9522 34.1474 65.1493C34.115 65.5653 33.927 65.9539 33.6208 66.2375C33.3147 66.5211 32.9128 66.6788 32.4955 66.6793Z" fill="white"/>
<path d="M49.1705 75.7438H12.4838C12.2868 75.7452 12.0916 75.7058 11.9105 75.6282C11.7294 75.5506 11.5664 75.4363 11.4316 75.2926C11.2968 75.1489 11.1932 74.9789 11.1272 74.7932C11.0613 74.6076 11.0345 74.4102 11.0485 74.2137C11.0775 73.8011 11.2607 73.4146 11.5618 73.1311C11.8629 72.8475 12.2598 72.6878 12.6733 72.6837H49.3601C49.5574 72.6812 49.7531 72.7199 49.9346 72.7972C50.1162 72.8745 50.2797 72.9887 50.4147 73.1326C50.5497 73.2765 50.6533 73.447 50.7188 73.6331C50.7843 73.8192 50.8104 74.017 50.7953 74.2137C50.7649 74.6257 50.5812 75.0114 50.2804 75.2946C49.9796 75.5779 49.5836 75.7381 49.1705 75.7438Z" fill="white"/>
<path d="M46.787 66.6793H39.1166C38.9196 66.6807 38.7244 66.6414 38.5433 66.5637C38.3622 66.4861 38.1992 66.3719 38.0644 66.2282C37.9296 66.0845 37.826 65.9144 37.76 65.7288C37.6941 65.5431 37.6673 65.3458 37.6814 65.1493C37.7133 64.7378 37.8975 64.353 38.1979 64.0701C38.4984 63.7872 38.8935 63.6264 39.3062 63.6193H46.9698C47.1671 63.6168 47.3628 63.6554 47.5444 63.7327C47.7259 63.81 47.8894 63.9243 48.0244 64.0682C48.1594 64.2121 48.263 64.3825 48.3285 64.5687C48.394 64.7548 48.4201 64.9525 48.4051 65.1493C48.3747 65.5601 48.192 65.9449 47.8926 66.2279C47.5933 66.511 47.199 66.672 46.787 66.6793Z" fill="white"/>
<path d="M86.5144 0.000262135H56.618C54.9131 0.0258503 53.2795 0.688098 52.038 1.85688C50.7966 3.02566 50.0372 4.61646 49.9089 6.31669L48.7445 25.6383C48.6865 26.4507 48.7974 27.2663 49.0702 28.0337C49.343 28.801 49.7718 29.5036 50.3296 30.097C50.8875 30.6904 51.5621 31.1619 52.3112 31.4816C53.0602 31.8013 53.8674 31.9625 54.6818 31.9548H59.5765L56.7466 38.5894L67.2131 31.9548H84.5579C86.2628 31.9292 87.8964 31.2669 89.1379 30.0981C90.3793 28.9294 91.1387 27.3386 91.267 25.6383L92.4517 6.31669C92.5097 5.50433 92.3988 4.68875 92.126 3.92138C91.8532 3.154 91.4244 2.45146 90.8666 1.85804C90.3088 1.26461 89.6341 0.793169 88.885 0.473428C88.136 0.153688 87.3288 -0.00741674 86.5144 0.000262135Z" fill="#407BFF"/>
<g opacity="0.5">
<path opacity="0.5" d="M86.5144 0.000262135H56.618C54.9131 0.0258503 53.2795 0.688098 52.038 1.85688C50.7966 3.02566 50.0372 4.61646 49.9089 6.31669L48.7445 25.6383C48.6865 26.4507 48.7974 27.2663 49.0702 28.0337C49.343 28.801 49.7718 29.5036 50.3296 30.097C50.8875 30.6904 51.5621 31.1619 52.3112 31.4816C53.0602 31.8013 53.8674 31.9625 54.6818 31.9548H59.5765L56.7466 38.5894L67.2131 31.9548H84.5579C86.2628 31.9292 87.8964 31.2669 89.1379 30.0981C90.3793 28.9294 91.1387 27.3386 91.267 25.6383L92.4517 6.31669C92.5097 5.50433 92.3988 4.68875 92.126 3.92138C91.8532 3.154 91.4244 2.45146 90.8666 1.85804C90.3088 1.26461 89.6341 0.793169 88.885 0.473428C88.136 0.153688 87.3288 -0.00741674 86.5144 0.000262135Z" fill="#FAFAFA"/>
</g>
<path d="M72.1013 19.1402C71.9983 19.5658 71.7556 19.9444 71.4119 20.2157C71.0682 20.4869 70.6435 20.6351 70.2057 20.6364H68.4388C68.4388 20.1354 68.4794 19.8308 68.4862 19.7225C68.5117 18.7466 68.7619 17.7899 69.2173 16.9264C69.857 15.964 70.6696 15.1284 71.6139 14.4622C72.367 13.9164 73.0776 13.3144 73.7397 12.6613C74.0909 12.2457 74.2997 11.7285 74.3354 11.1855C74.3621 10.8257 74.3057 10.4647 74.1707 10.1301C74.0357 9.79561 73.8257 9.49655 73.5569 9.25601C72.9001 8.69336 72.0508 8.40703 71.1874 8.45715C70.2795 8.43237 69.3921 8.72976 68.6825 9.29663C68.2608 9.64455 67.9151 10.0755 67.667 10.5626C67.4841 10.9185 67.2003 11.2124 66.851 11.4075C66.5017 11.6026 66.1026 11.6903 65.7037 11.6594C65.4166 11.6238 65.1432 11.5165 64.9087 11.3473C64.6742 11.178 64.4861 10.9524 64.3619 10.6912C64.2377 10.43 64.1814 10.1417 64.1982 9.85296C64.215 9.56423 64.3044 9.2844 64.458 9.03937C64.8665 8.35378 65.3911 7.74443 66.0083 7.23854C67.4755 6.05914 69.32 5.45072 71.2009 5.52572C73.4147 5.52572 75.1343 6.10118 76.3732 7.25885C76.9532 7.75751 77.4097 8.38382 77.7069 9.08861C78.0041 9.7934 78.1339 10.5575 78.086 11.3209C78.0239 12.1886 77.7241 13.0224 77.2195 13.731C76.2685 14.9019 75.1693 15.9442 73.9496 16.8317C73.3176 17.2729 72.7716 17.8258 72.3383 18.4632C72.2282 18.6768 72.1484 18.9046 72.1013 19.1402ZM68.2357 24.0011V23.7845C68.2713 23.2952 68.4894 22.8372 68.8467 22.5012C69.2041 22.1651 69.6746 21.9756 70.1651 21.9701H70.4088C70.6434 21.9667 70.8762 22.0121 71.0923 22.1034C71.3084 22.1947 71.5032 22.33 71.6643 22.5006C71.8253 22.6712 71.9492 22.8734 72.0279 23.0945C72.1066 23.3155 72.1386 23.5505 72.1216 23.7845V24.0011C72.0861 24.491 71.8683 24.9498 71.5111 25.2869C71.1539 25.6241 70.6833 25.8151 70.1922 25.8223H69.9756C69.7381 25.8296 69.5017 25.7869 69.2819 25.6968C69.062 25.6068 68.8636 25.4715 68.6994 25.2997C68.5353 25.1279 68.4092 24.9235 68.3293 24.6998C68.2494 24.4761 68.2175 24.238 68.2357 24.0011Z" fill="white"/>
</svg>
