<svg width="77" height="77" viewBox="0 0 77 77" fill="none" xmlns="http://www.w3.org/2000/svg">
<rect width="77" height="77" rx="8" fill="#D9E6FF"/>
<path d="M25.7967 69.0367L25.2052 68.6978C25.1067 68.6338 25.0247 68.5475 24.9658 68.4459C24.9069 68.3443 24.8728 68.2303 24.8662 68.113V24.2885C24.8727 24.1712 24.9067 24.0571 24.9657 23.9555C25.0246 23.8539 25.1066 23.7677 25.2052 23.7038L52.3911 8.00748C52.496 7.95378 52.6122 7.92578 52.73 7.92578C52.8479 7.92578 52.9641 7.95378 53.069 8.00748L53.6605 8.34646C53.759 8.41044 53.841 8.49673 53.8999 8.59832C53.9588 8.69991 53.9929 8.81395 53.9995 8.93119V52.7557C53.9932 52.873 53.9592 52.9872 53.9002 53.0888C53.8413 53.1904 53.7592 53.2767 53.6605 53.3404L26.4713 69.0367C26.3669 69.0901 26.2513 69.118 26.134 69.118C26.0167 69.118 25.9011 69.0901 25.7967 69.0367Z" fill="#203864"/>
<path opacity="0.4" d="M53.988 8.87516C53.9659 8.70568 53.8185 8.63619 53.649 8.73449L26.4716 24.4308C26.3724 24.4934 26.2903 24.5796 26.2326 24.6816L24.9648 23.9511C25.0226 23.8491 25.1047 23.7629 25.2038 23.7003L52.3914 8.004C52.4962 7.95003 52.6125 7.92188 52.7304 7.92188C52.8483 7.92188 52.9645 7.95003 53.0693 8.004L53.6626 8.34297C53.7518 8.40317 53.827 8.48185 53.8831 8.57367C53.9393 8.6655 53.975 8.76832 53.988 8.87516Z" fill="white"/>
<path opacity="0.15" d="M26.413 69.0596C26.4063 69.061 26.3994 69.061 26.3926 69.0596L26.3587 69.0715H26.3452C26.3248 69.0715 26.3045 69.0817 26.2825 69.0868C26.1481 69.1121 26.0094 69.101 25.8808 69.0545C25.8552 69.0449 25.8303 69.0336 25.8062 69.0206L25.213 68.6817C25.1148 68.6174 25.033 68.531 24.9742 68.4295C24.9153 68.328 24.881 68.2141 24.874 68.0969V24.2843C24.8779 24.1648 24.9117 24.0483 24.9723 23.9453L26.2401 24.6758C26.1774 24.778 26.1429 24.8949 26.1401 25.0148V68.8393C26.1364 68.9029 26.155 68.9658 26.1926 69.0173C26.2135 69.0436 26.2417 69.0631 26.2737 69.0734C26.3057 69.0836 26.34 69.0842 26.3723 69.0749C26.3863 69.0711 26.3999 69.066 26.413 69.0596Z" fill="black"/>
<path d="M45.5019 16.0716L45.4528 16.0411L44.8918 15.719C44.6877 15.6053 44.466 15.5268 44.2359 15.4868C44.1392 15.4648 44.0528 15.4394 43.9765 15.414C43.8919 15.3863 43.8092 15.3528 43.7291 15.314L43.7698 15.2614L43.1393 14.8936C43.0861 14.8639 43.029 14.8417 42.9698 14.8275C42.7308 14.7682 42.3732 14.9072 42.0173 14.8665C41.8877 14.8538 41.7625 14.8128 41.6506 14.7463C41.5387 14.6798 41.4429 14.5895 41.3698 14.4818C41.1529 14.1902 41.0224 13.6801 40.8308 13.2564L41.0003 13.0106C40.9834 13 40.9658 12.9904 40.9478 12.9818L40.3664 12.6428C40.2683 12.5851 40.1566 12.5546 40.0427 12.5547C39.8255 12.5661 39.615 12.6345 39.4326 12.753C38.0411 13.5581 37.9936 15.4648 37.4919 16.7224C36.9902 17.98 36.2801 18.3715 35.8937 18.9122C35.5072 19.4528 35.4801 19.8528 34.6242 21.0325C33.7683 22.2121 33.7344 22.5002 33.7344 22.7274V24.4849L34.3683 24.851L45.7612 18.2698L45.5019 16.0716ZM35.0547 22.8511C34.9072 22.9341 34.7852 22.8206 34.7852 22.5918C34.7838 22.4823 34.8073 22.374 34.854 22.2751C34.9007 22.1761 34.9693 22.0891 35.0547 22.0206C35.2021 21.9359 35.3225 22.0528 35.3225 22.2816C35.3237 22.3901 35.3002 22.4974 35.2538 22.5955C35.2074 22.6936 35.1393 22.7798 35.0547 22.8477V22.8511ZM40.0597 17.9173C39.9879 17.9697 39.9048 18.0046 39.8172 18.0194C39.7295 18.0341 39.6396 18.0283 39.5546 18.0023C39.4696 17.9763 39.3918 17.9309 39.3274 17.8697C39.263 17.8085 39.2137 17.7331 39.1834 17.6495C38.7411 17.7342 38.4122 17.3105 38.4122 16.5749C38.4122 15.7106 38.8682 14.7496 39.4292 14.4241C39.5011 14.3718 39.5842 14.3369 39.672 14.3223C39.7597 14.3076 39.8497 14.3136 39.9347 14.3398C40.0197 14.3659 40.0975 14.4115 40.1618 14.4729C40.2262 14.5343 40.2753 14.6099 40.3054 14.6936C40.7478 14.6055 41.0749 15.0326 41.0749 15.7665C41.0749 16.6275 40.6224 17.5885 40.0597 17.9139V17.9173ZM43.8443 17.7749C43.6952 17.8614 43.5748 17.7461 43.5748 17.5173C43.5721 17.4077 43.5951 17.2989 43.6419 17.1998C43.6887 17.1006 43.758 17.0137 43.8443 16.9461C43.9935 16.8597 44.1138 16.9749 44.1138 17.2037C44.1159 17.3128 44.0926 17.4208 44.0458 17.5193C43.9991 17.6178 43.9301 17.7042 43.8443 17.7715V17.7749Z" fill="#455A64"/>
<path opacity="0.5" d="M35.0044 23.1638L33.779 22.457C33.7511 22.5453 33.7374 22.6374 33.7383 22.7299V24.4875L34.3722 24.8536L35.0044 24.4875V23.1638Z" fill="#37474F"/>
<path opacity="0.5" d="M36.2646 20.9705L36.8985 19.5078L35.8917 18.918C35.5968 19.3264 35.5104 19.6569 35.1138 20.3061L36.2646 20.9705Z" fill="#37474F"/>
<path opacity="0.5" d="M38.7975 18.0439L38.8788 17.6167C38.5992 17.4998 38.4127 17.1218 38.4127 16.571C38.4127 15.8371 38.7415 15.0354 39.1839 14.61L38.306 14.1016C37.9331 14.949 37.7975 15.9659 37.489 16.7235C37.4246 16.893 37.3551 17.0337 37.2856 17.1693L38.7975 18.0439Z" fill="#37474F"/>
<path d="M45.5028 16.0742L45.4536 16.0437C45.2671 15.9571 45.0707 15.8934 44.8689 15.8539C44.5376 15.7957 44.229 15.6467 43.9774 15.4234C43.9137 15.3658 43.8444 15.3147 43.7706 15.2709C43.718 15.2396 43.6608 15.2167 43.6011 15.2031C43.2181 15.1098 42.5198 15.5285 42.0181 14.8776C42.0121 14.8716 42.007 14.8648 42.0029 14.8573C41.652 14.3861 41.5232 13.3319 40.9978 13.0218C40.9808 13.0111 40.9633 13.0015 40.9452 12.9929C40.7283 12.8912 40.447 12.9099 40.0605 13.1302C38.669 13.9353 38.6216 15.842 38.1199 17.0996C37.6182 18.3572 36.9097 18.7488 36.5233 19.2894C36.1369 19.8301 36.1114 20.2301 35.2538 21.4097C34.3962 22.5894 34.3657 22.8792 34.3657 23.1046V24.8639L45.7587 18.2827V16.5166C45.7673 16.4254 45.7473 16.3338 45.7014 16.2545C45.6556 16.1752 45.5861 16.1122 45.5028 16.0742ZM35.6826 23.2198C35.5335 23.3063 35.4132 23.191 35.4132 22.9605C35.4111 22.8513 35.4344 22.743 35.4811 22.6442C35.5279 22.5454 35.5968 22.4588 35.6826 22.3911C35.8318 22.3046 35.9504 22.4216 35.9504 22.6504C35.9527 22.7595 35.9297 22.8677 35.8832 22.9665C35.8368 23.0653 35.7681 23.152 35.6826 23.2198ZM40.0554 17.9217C39.9836 17.974 39.9006 18.009 39.813 18.0237C39.7253 18.0385 39.6354 18.0327 39.5504 18.0067C39.4654 17.9807 39.3876 17.9353 39.3232 17.8741C39.2587 17.8128 39.2094 17.7374 39.1792 17.6539C39.0797 17.4307 39.0322 17.1879 39.0402 16.9437C39.0402 16.081 39.4944 15.1183 40.0571 14.7946C40.1332 14.7491 40.2162 14.7164 40.3029 14.698C40.7453 14.6099 41.0724 15.037 41.0724 15.7708C41.0758 16.6302 40.6232 17.5912 40.0605 17.9166L40.0554 17.9217ZM44.4774 18.1352C44.3282 18.2216 44.2079 18.1064 44.2079 17.8793C44.2054 17.7699 44.2285 17.6615 44.2753 17.5627C44.3221 17.4638 44.3913 17.3772 44.4774 17.3098C44.6248 17.2234 44.7452 17.3386 44.7452 17.5674C44.7473 17.6763 44.7242 17.7842 44.6778 17.8827C44.6313 17.9812 44.5627 18.0676 44.4774 18.1352Z" fill="#37474F"/>
<path d="M41.0763 15.7593C41.0763 16.6237 40.6238 17.5847 40.0594 17.9101C39.9875 17.9625 39.9045 17.9975 39.8169 18.0122C39.7292 18.027 39.6393 18.0211 39.5543 17.9952C39.4693 17.9692 39.3915 17.9238 39.3271 17.8625C39.2627 17.8013 39.2134 17.7259 39.1831 17.6423C39.2696 17.6232 39.3525 17.5906 39.4289 17.5457C39.9899 17.2203 40.4458 16.2593 40.4458 15.3949C40.4532 15.1513 40.4057 14.9092 40.3068 14.6865C40.7492 14.6017 41.0763 15.0271 41.0763 15.7593Z" fill="#263238"/>
<path d="M35.6837 23.2165C35.5345 23.3012 35.4142 23.186 35.4142 22.9589C35.4121 22.8493 35.4354 22.7408 35.4821 22.6417C35.5289 22.5427 35.5978 22.4557 35.6837 22.3877C35.8311 22.3012 35.9515 22.4199 35.9515 22.647C35.9533 22.7561 35.9302 22.8641 35.8837 22.9629C35.8373 23.0616 35.7689 23.1483 35.6837 23.2165Z" fill="#263238"/>
<path d="M44.4776 18.1337C44.3285 18.2185 44.2081 18.1049 44.2081 17.8761C44.2061 17.7666 44.2293 17.6581 44.2761 17.559C44.3228 17.4599 44.3918 17.373 44.4776 17.3049C44.6251 17.2202 44.7454 17.3371 44.7454 17.566C44.7471 17.6748 44.7239 17.7825 44.6775 17.881C44.6311 17.9794 44.5627 18.0659 44.4776 18.1337Z" fill="#263238"/>
<path d="M28.2361 28.5315L51.8932 14.8725C51.956 14.8407 52.0254 14.8242 52.0958 14.8242C52.1661 14.8242 52.2355 14.8407 52.2983 14.8725L52.5271 15.0047C52.5859 15.0432 52.6349 15.095 52.6699 15.156C52.7049 15.217 52.7251 15.2853 52.7288 15.3555V51.4463C52.7254 51.5166 52.7053 51.585 52.6703 51.646C52.6352 51.707 52.5861 51.7588 52.5271 51.7971L28.87 65.4562C28.8072 65.4879 28.7378 65.5044 28.6674 65.5044C28.5971 65.5044 28.5277 65.4879 28.4649 65.4562L28.2361 65.324C28.1769 65.2858 28.1276 65.234 28.0922 65.173C28.0568 65.112 28.0365 65.0435 28.0327 64.9731V28.8824C28.0367 28.812 28.0572 28.7436 28.0926 28.6827C28.1279 28.6217 28.1771 28.57 28.2361 28.5315Z" fill="#F5F5F5"/>
<path d="M52.7223 15.2945C52.6969 15.2115 52.6189 15.1843 52.5274 15.2386L28.8702 28.8976C28.8093 28.9337 28.7595 28.9859 28.7262 29.0485L28.0923 28.6841C28.1265 28.6218 28.1761 28.5693 28.2363 28.5315L51.8935 14.8725C51.9563 14.8407 52.0257 14.8242 52.096 14.8242C52.1664 14.8242 52.2358 14.8407 52.2986 14.8725L52.5274 15.0047C52.5776 15.0375 52.6207 15.0801 52.6542 15.1299C52.6876 15.1796 52.7108 15.2356 52.7223 15.2945Z" fill="#FAFAFA"/>
<path d="M28.8216 65.4777C28.7973 65.4865 28.7724 65.4933 28.747 65.4981H28.708C28.6669 65.5023 28.6254 65.5023 28.5843 65.4981C28.559 65.4931 28.5341 65.4863 28.5097 65.4777L28.464 65.4557L28.2368 65.3252C28.1781 65.2866 28.1293 65.2347 28.0942 65.1738C28.0592 65.1128 28.039 65.0445 28.0352 64.9744V28.8819C28.0364 28.8118 28.0562 28.7434 28.0928 28.6836L28.7267 29.048C28.6906 29.1087 28.6702 29.1774 28.6673 29.248V65.3388C28.6673 65.4489 28.7351 65.5032 28.8216 65.4777Z" fill="#E0E0E0"/>
<path d="M47.3999 19.9827L46.7694 19.6183C46.6705 19.5698 46.5612 19.5461 46.451 19.5494C46.3409 19.5526 46.2331 19.5827 46.1372 19.6369C45.4016 19.9606 45.083 20.1081 44.7034 20.2674L44.4288 20.3776C44.2796 20.4369 43.983 20.386 44.0746 19.8691L45.0525 17.237H45.0372L44.4186 16.8793C44.3872 16.8596 44.352 16.8469 44.3152 16.8421C44.2966 16.8421 44.2729 16.8421 44.2474 16.8421C43.8474 16.8319 43.739 14.2506 43.7305 14.1709L43.7017 14.1557L43.0898 13.8031C42.9835 13.7428 42.8629 13.7124 42.7407 13.715C42.5362 13.7244 42.3369 13.7825 42.1593 13.8845C41.1983 14.393 40.2272 15.8861 39.9899 17.2302C39.8407 18.0776 38.9882 19.3827 38.495 19.864C38.0018 20.3454 37.9679 20.7454 37.9679 20.7454L37.5849 22.9182L37.4611 23.6148C37.3713 24.1334 36.8391 24.6317 36.8391 24.6317L34.8544 26.0995C33.6121 27.13 33.2612 28.1723 33.0239 29.4604V29.4706C33.0239 29.5164 33.0239 29.5469 33.046 29.5587C33.0492 29.5609 33.0531 29.562 33.057 29.562C33.0609 29.562 33.0647 29.5609 33.068 29.5587L33.3222 29.4147L46.9762 21.5403C47.0083 21.5183 47.0358 21.4903 47.057 21.4577C47.0782 21.4251 47.0928 21.3887 47.0999 21.3504C47.1779 20.881 47.405 19.9945 47.405 19.9945L47.3999 19.9827ZM43.4525 15.9946C43.3051 16.82 42.7102 17.742 42.1187 18.0522C41.7102 18.2658 41.4119 18.1336 41.3119 17.7573C41.2385 17.786 41.159 17.7958 41.0808 17.7857C41.0026 17.7757 40.9282 17.7461 40.8644 17.6997C40.6746 17.5505 42.4136 14.5641 42.5593 14.6302C42.6271 14.6659 42.6859 14.7165 42.7314 14.7781C42.7769 14.8398 42.8079 14.9109 42.822 14.9862C43.3102 14.8387 43.583 15.2523 43.4525 15.9946Z" fill="#455A64"/>
<path opacity="0.5" d="M35.0043 27.5511L34.0094 26.9766C33.4332 27.7359 33.201 28.5342 33.0298 29.4613V29.4714C33.0298 29.5172 33.0298 29.5477 33.0518 29.5596C33.0551 29.5617 33.0589 29.5628 33.0628 29.5628C33.0667 29.5628 33.0706 29.5617 33.0739 29.5596L33.8586 28.9392L35.0043 27.5511Z" fill="#37474F"/>
<path opacity="0.5" d="M37.3965 23.8201L38.7998 24.6285L39.432 20.9727L38.1677 20.2422C38.067 20.3867 37.9993 20.5516 37.9694 20.7252L37.5863 22.8981L37.4626 23.5947C37.4486 23.6719 37.4265 23.7475 37.3965 23.8201Z" fill="#37474F"/>
<path opacity="0.5" d="M40.6549 15.4609C40.3351 16.0005 40.1104 16.591 39.9905 17.2067C39.8897 17.643 39.7228 18.0614 39.4956 18.4473L40.6973 19.1422L41.2956 17.7609C41.2243 17.7866 41.1478 17.7945 41.0727 17.7839C40.9977 17.7732 40.9264 17.7444 40.8651 17.6999C40.7668 17.6219 41.1803 16.7965 41.6227 16.0202L40.6549 15.4609Z" fill="#37474F"/>
<path d="M47.4068 19.9874H47.3984C47.2992 19.9405 47.1903 19.9179 47.0807 19.9214C46.971 19.925 46.8638 19.9545 46.7679 20.0077C45.8662 20.406 45.5933 20.5365 45.0577 20.7484C44.9154 20.806 44.6255 20.7602 44.7018 20.2721C44.701 20.2608 44.701 20.2495 44.7018 20.2382L44.8255 19.5433L45.1645 17.6501C45.1645 17.6501 45.2425 17.3518 45.0459 17.24H45.0306C44.9812 17.2171 44.9274 17.2056 44.873 17.2061C44.7578 17.1922 44.6473 17.1526 44.5495 17.09C44.4518 17.0275 44.3695 16.9438 44.3086 16.8451C44.203 16.6877 44.1298 16.5109 44.0935 16.3249C44.0571 16.1389 44.0582 15.9476 44.0967 15.762C44.2408 14.9502 44.0832 14.3807 43.7239 14.1688L43.6951 14.1519C43.4629 14.0282 43.151 14.0485 42.7866 14.24C41.8239 14.7485 40.8527 16.2417 40.6172 17.5857C40.4663 18.4332 39.6138 19.7399 39.1206 20.2196C38.6274 20.6992 38.5952 21.1009 38.5952 21.1009L38.224 23.2619L38.102 23.9568C38.0104 24.4754 37.4782 24.9737 37.4782 24.9737L35.4952 26.4618C34.7038 27.0917 34.1324 27.9563 33.8631 28.9312C33.8631 28.9312 33.119 29.5092 33.0732 29.555L33.3275 29.4109L47.0204 21.5399C47.0204 21.5399 47.1763 21.4534 47.2119 21.4314C47.2475 21.4094 47.7984 20.889 47.7984 20.889C47.7679 20.445 47.6356 20.1246 47.4068 19.9874ZM43.451 15.9942C43.3035 16.8196 42.7086 17.7416 42.1171 18.0518C41.7087 18.2654 41.4104 18.1332 41.3104 17.7569C41.2657 17.5457 41.2657 17.3275 41.3104 17.1162C41.4578 16.2891 42.0544 15.3688 42.6459 15.0603C42.7001 15.0306 42.7569 15.0057 42.8154 14.9858C43.3086 14.8383 43.5815 15.2519 43.451 15.9942Z" fill="#37474F"/>
<path d="M43.4531 15.9951C43.3057 16.8205 42.7108 17.7425 42.1193 18.0527C41.7108 18.2662 41.4125 18.134 41.3125 17.7578C41.3708 17.7385 41.4274 17.7147 41.482 17.6866C42.0752 17.3764 42.6684 16.4544 42.8159 15.6273C42.8604 15.4161 42.8604 15.1979 42.8159 14.9866C43.3108 14.8392 43.5836 15.2527 43.4531 15.9951Z" fill="#263238"/>
<path d="M42.8808 15.024C42.9362 15.0207 42.9915 15.0317 43.0414 15.0561C43.0913 15.0804 43.134 15.1173 43.1655 15.163C43.4113 15.5121 43.1757 16.4003 43.074 16.6884C42.9333 17.0833 42.0147 18.0121 41.7621 18.0121C41.6785 17.9983 41.5985 17.9676 41.5271 17.9218C41.4557 17.8761 41.3944 17.8162 41.3469 17.746C41.3052 17.5425 41.3052 17.3326 41.3469 17.1291C41.491 16.3121 42.0808 15.4037 42.6621 15.0952C42.7139 15.0679 42.7677 15.0447 42.8231 15.0257H42.8791L42.8808 15.024ZM42.8791 14.9867H42.8164C42.7578 15.0066 42.7011 15.0316 42.6469 15.0613C42.0554 15.3698 41.4605 16.2901 41.3113 17.1172C41.2667 17.3284 41.2667 17.5466 41.3113 17.7579C41.3623 17.8342 41.4286 17.8992 41.5059 17.9487C41.5831 17.9983 41.6698 18.0314 41.7605 18.046C42.035 18.046 42.9587 17.1087 43.1062 16.6901C43.2536 16.2715 43.574 14.9766 42.8757 14.9766L42.8791 14.9867Z" fill="#263238"/>
<path d="M33.0691 29.5621L47.0145 21.5454L47.2078 21.4386C47.2417 21.4182 47.7925 20.8945 47.7925 20.8945L33.8572 28.9384C33.8572 28.9384 33.0131 29.5927 33.0691 29.5621Z" fill="#263238"/>
<path d="M31.2002 35.1835V35.5004C31.2002 35.6699 31.3222 35.7428 31.4714 35.6563L49.9218 25.0023C50.0005 24.951 50.066 24.882 50.1131 24.8007C50.1602 24.7195 50.1876 24.6283 50.193 24.5345V24.2159C50.193 24.0464 50.071 23.9735 49.9218 24.06L31.4714 34.7157C31.3926 34.7669 31.327 34.8359 31.2799 34.9172C31.2328 34.9985 31.2055 35.0897 31.2002 35.1835Z" fill="#E0E0E0"/>
<path d="M31.2002 37.0985V37.4154C31.2002 37.5849 31.3222 37.6578 31.4714 37.5714L49.9218 26.9157C50.0006 26.8644 50.0662 26.7954 50.1133 26.7141C50.1604 26.6329 50.1877 26.5416 50.193 26.4479V26.1292C50.193 25.9597 50.071 25.8886 49.9218 25.9733L31.4714 36.6307C31.3926 36.6819 31.327 36.7509 31.2799 36.8322C31.2328 36.9135 31.2055 37.0047 31.2002 37.0985Z" fill="#E0E0E0"/>
<path d="M31.2002 39.0038V39.319C31.2002 39.4885 31.3222 39.5614 31.4714 39.475L49.9218 28.8226C50.0005 28.7713 50.066 28.7023 50.1131 28.621C50.1602 28.5398 50.1876 28.4486 50.193 28.3549V28.0362C50.193 27.8667 50.071 27.7938 49.9218 27.8803L31.4714 38.536C31.3926 38.5872 31.327 38.6562 31.2799 38.7375C31.2328 38.8188 31.2055 38.91 31.2002 39.0038Z" fill="#E0E0E0"/>
<path d="M31.2002 43.2301V43.5471C31.2002 43.7166 31.3222 43.7894 31.4714 43.703L49.9218 33.0524C50.0006 33.0012 50.0662 32.9321 50.1133 32.8509C50.1604 32.7696 50.1877 32.6784 50.193 32.5846V32.2659C50.193 32.0965 50.071 32.0253 49.9218 32.11L31.4714 42.7623C31.3926 42.8135 31.327 42.8826 31.2799 42.9639C31.2328 43.0451 31.2055 43.1363 31.2002 43.2301Z" fill="#E0E0E0"/>
<path d="M31.2002 45.1405V45.4591C31.2002 45.6286 31.3222 45.6998 31.4714 45.6151L49.9218 34.9594C50.0006 34.9082 50.0662 34.8391 50.1133 34.7578C50.1604 34.6766 50.1877 34.5854 50.193 34.4916V34.1729C50.193 34.0034 50.071 33.9306 49.9218 34.017L31.4714 44.6727C31.3927 44.724 31.3272 44.7931 31.2801 44.8743C31.233 44.9556 31.2056 45.0468 31.2002 45.1405Z" fill="#E0E0E0"/>
<path d="M31.2002 47.0516V47.3686C31.2002 47.538 31.3222 47.6109 31.4714 47.5245L49.9218 36.8688C50.0006 36.8176 50.0662 36.7485 50.1133 36.6673C50.1604 36.586 50.1877 36.4948 50.193 36.401V36.0823C50.193 35.9129 50.071 35.8417 49.9218 35.9264L31.4714 46.5838C31.3926 46.635 31.327 46.7041 31.2799 46.7853C31.2328 46.8666 31.2055 46.9578 31.2002 47.0516Z" fill="#E0E0E0"/>
<path d="M31.2002 51.2694V51.588C31.2002 51.7575 31.3222 51.8287 31.4714 51.744L49.9218 41.0883C50.0006 41.0371 50.0662 40.968 50.1133 40.8868C50.1604 40.8055 50.1877 40.7143 50.193 40.6205V40.3018C50.193 40.1324 50.071 40.0595 49.9218 40.1459L31.4714 50.8016C31.3927 50.8529 31.3272 50.922 31.2801 51.0032C31.233 51.0845 31.2056 51.1757 31.2002 51.2694Z" fill="#E0E0E0"/>
<path d="M31.2002 53.1835V53.5004C31.2002 53.6699 31.3222 53.7428 31.4714 53.6563L49.9218 43.0006C50.0006 42.9498 50.0662 42.8811 50.1133 42.8001C50.1604 42.7191 50.1877 42.6281 50.193 42.5345V42.2159C50.193 42.0464 50.071 41.9735 49.9218 42.06L31.4714 52.7157C31.3926 52.7669 31.327 52.8359 31.2799 52.9172C31.2328 52.9985 31.2055 53.0897 31.2002 53.1835Z" fill="#E0E0E0"/>
<path d="M31.2002 55.0941V55.4128C31.2002 55.5823 31.3222 55.6535 31.4714 55.5687L49.9218 44.9164C50.0006 44.8652 50.0662 44.7961 50.1133 44.7149C50.1604 44.6336 50.1877 44.5424 50.193 44.4486V44.13C50.193 43.9605 50.071 43.8876 49.9218 43.974L31.4714 54.6264C31.3927 54.6777 31.3272 54.7467 31.2801 54.828C31.233 54.9092 31.2056 55.0004 31.2002 55.0941Z" fill="#E0E0E0"/>
<path d="M40.6968 55.3462L50.1966 49.8633V50.0463L40.6968 55.5293V55.3462Z" fill="#E0E0E0"/>
<path d="M42.9084 52.4984C43.3033 52.234 43.744 51.7882 43.6728 51.2611C43.6304 50.9408 43.3694 50.817 43.0745 50.9306C42.4966 51.1526 42.1322 52.0221 41.9305 52.5475C41.761 53.0068 41.5288 53.8729 42.2186 54.0204C43.0271 54.1899 43.6525 53.0034 43.8355 52.3865C43.8609 52.3001 43.7203 52.2526 43.6796 52.3306C43.6084 52.4713 43.1321 53.4001 43.6559 53.2831C43.8423 53.2424 43.9491 52.9526 44.0169 52.8051C44.1355 52.5407 44.1948 52.173 44.3813 51.9458L44.244 51.8831C44.2525 52.1272 44.244 52.2933 44.4135 52.4831C44.4264 52.5008 44.4457 52.5126 44.4673 52.5161C44.4888 52.5196 44.5109 52.5144 44.5287 52.5018C44.7965 52.2526 44.8152 51.8475 45.1101 51.6221L44.9897 51.5645C44.9897 51.6425 44.9541 51.8645 44.9491 51.9679C44.9491 52.017 45.0152 52.0492 45.0541 52.034C45.0924 52.026 45.1281 52.0085 45.1577 51.983C45.1874 51.9575 45.2101 51.9249 45.2236 51.8882L45.0948 51.8408C45.2067 52.4391 45.7168 51.8408 45.8914 51.6136C46.3999 50.9357 46.7626 50.2086 46.7761 49.3408C46.7761 49.2713 46.6456 49.2357 46.6439 49.3188C46.6321 49.9866 46.3405 50.5984 46.1524 51.2289C45.9507 51.9069 45.7829 52.6001 45.644 53.2984L45.7643 53.3424C45.8025 52.8483 45.9288 52.365 46.1372 51.9153C46.2686 51.5148 46.4881 51.1488 46.7795 50.8442L46.6677 50.8018C46.6972 50.976 46.6883 51.1546 46.6414 51.3251C46.5946 51.4955 46.511 51.6536 46.3965 51.7882C46.3609 51.834 46.4405 51.9204 46.4761 51.8747C46.6626 51.6408 46.9693 51.5662 47.1693 51.3391C47.3573 51.0839 47.5245 50.8142 47.6693 50.5323L47.5778 50.4865C47.5659 51.056 48.1032 50.1679 48.1761 50.073L48.088 50.0391C48.1236 50.156 48.171 50.234 48.3032 50.2357C48.5659 50.2357 48.6642 49.8527 48.8625 49.8086C48.8625 49.8086 48.949 49.8815 48.9795 49.8849C49.0888 49.9009 49.2003 49.88 49.2964 49.8255C49.5181 49.6822 49.6972 49.482 49.8151 49.2459C49.8456 49.1917 49.7422 49.1239 49.7083 49.1832C49.5778 49.4035 49.171 49.9883 48.8761 49.7018C48.8574 49.6849 48.8185 49.6679 48.7981 49.6916C48.7185 49.79 48.2625 50.312 48.1778 50.0306C48.1676 49.9967 48.1185 49.9594 48.0914 49.9967C48.0219 50.0882 47.9659 50.1899 47.9015 50.2865C47.8659 50.3391 47.6676 50.673 47.6744 50.5035C47.6744 50.4628 47.6117 50.4154 47.5829 50.4577C47.3982 50.7408 47.2626 51.112 47.0049 51.3425C46.8134 51.5119 46.5626 51.5764 46.3965 51.7814L46.4761 51.8679C46.6042 51.7236 46.6984 51.5526 46.7521 51.3673C46.8057 51.182 46.8174 50.9871 46.7863 50.7967C46.7838 50.7851 46.7784 50.7743 46.7707 50.7652C46.7629 50.7562 46.753 50.7493 46.7419 50.7451C46.7308 50.7408 46.7188 50.7395 46.707 50.7411C46.6952 50.7427 46.684 50.7473 46.6744 50.7543C46.3575 51.0459 46.1795 51.456 46.0219 51.8492C45.8104 52.3083 45.6819 52.8012 45.6423 53.3051C45.6423 53.3577 45.749 53.417 45.7626 53.3492C45.9058 52.5957 46.092 51.851 46.3202 51.1187C46.5066 50.5289 46.7592 49.9611 46.7711 49.334L46.6389 49.312C46.6263 49.9613 46.4217 50.5924 46.0507 51.1255C45.9558 51.273 45.8558 51.4204 45.7473 51.5594C45.6999 51.6221 45.2796 52.1713 45.2253 51.8526C45.2168 51.8069 45.127 51.7425 45.0965 51.8052L44.9745 51.9136L45.0796 51.978C45.088 51.8408 45.1152 51.7119 45.1219 51.573C45.1219 51.5204 45.0406 51.4865 45.0016 51.517C44.7016 51.7458 44.6796 52.1509 44.4101 52.4001L44.5253 52.4187C44.4338 52.2654 44.389 52.0887 44.3965 51.9102C44.3965 51.8509 44.305 51.7933 44.2592 51.8475C44.0525 52.095 43.9881 52.4899 43.8525 52.778C43.7779 52.9357 43.5135 53.356 43.5982 52.9085C43.6544 52.7231 43.7347 52.5459 43.8372 52.3814L43.6813 52.3255C43.522 52.8645 43.0966 53.6814 42.5152 53.8509C41.7728 54.0729 41.9017 53.1526 42.0372 52.7424C42.1986 52.2645 42.438 51.8167 42.7457 51.417C42.8021 51.3374 42.8663 51.2636 42.9372 51.1967C43.0881 51.0611 43.1321 51.0272 43.3423 51.1476C43.5525 51.2679 43.5626 51.334 43.5118 51.5611C43.4807 51.6739 43.4339 51.7817 43.3728 51.8814C43.2386 52.0862 43.07 52.2662 42.8745 52.4136C42.8474 52.4357 42.8864 52.5085 42.9169 52.4865L42.9084 52.4984Z" fill="#455A64"/>
</svg>
