<svg width="188" height="160" viewBox="0 0 188 160" fill="none" xmlns="http://www.w3.org/2000/svg">
			<path
				d="M178.746 155.308H50.1966C49.796 155.311 49.3991 155.231 49.0311 155.073C48.663 154.915 48.3317 154.682 48.0582 154.389C47.7846 154.097 47.5747 153.75 47.4417 153.373C47.3087 152.995 47.2555 152.593 47.2855 152.194L52.5796 68.1846C52.6467 67.3473 53.0226 66.5648 53.6345 65.9892C54.2463 65.4137 55.0503 65.0862 55.8902 65.0704H184.433C184.833 65.0674 185.23 65.1475 185.598 65.3056C185.966 65.4638 186.297 65.6965 186.571 65.9892C186.845 66.2818 187.054 66.628 187.187 67.0059C187.32 67.3838 187.374 67.7851 187.344 68.1846L182.05 152.194C181.983 153.03 181.608 153.812 180.997 154.387C180.387 154.962 179.584 155.291 178.746 155.308Z"
				fill="#263238"
			/>
			<path
				opacity="0.6"
				d="M178.746 155.308H50.1966C49.796 155.311 49.3991 155.231 49.0311 155.073C48.663 154.915 48.3317 154.682 48.0582 154.389C47.7846 154.097 47.5747 153.75 47.4417 153.373C47.3087 152.995 47.2555 152.593 47.2855 152.194L52.5796 68.1846C52.6467 67.3473 53.0226 66.5648 53.6345 65.9892C54.2463 65.4137 55.0503 65.0862 55.8902 65.0704H184.433C184.833 65.0674 185.23 65.1475 185.598 65.3056C185.966 65.4638 186.297 65.6965 186.571 65.9892C186.845 66.2818 187.054 66.628 187.187 67.0059C187.32 67.3838 187.374 67.7851 187.344 68.1846L182.05 152.194C181.983 153.03 181.608 153.812 180.997 154.387C180.387 154.962 179.584 155.291 178.746 155.308Z"
				fill="black"
			/>
			<path
				d="M177.785 155.308H49.2424C48.8413 155.312 48.4436 155.233 48.0748 155.075C47.7059 154.917 47.3738 154.685 47.0995 154.392C46.8252 154.099 46.6147 153.753 46.4813 153.374C46.3479 152.996 46.2945 152.594 46.3245 152.194L51.6187 68.1847C51.6857 67.3473 52.0617 66.5649 52.6736 65.9893C53.2854 65.4138 54.0894 65.0863 54.9292 65.0705H183.472C183.873 65.0664 184.27 65.1458 184.638 65.3036C185.007 65.4614 185.339 65.6942 185.612 65.987C185.886 66.2799 186.096 66.6265 186.229 67.0048C186.361 67.3832 186.414 67.785 186.383 68.1847L181.089 152.194C181.022 153.03 180.647 153.812 180.036 154.387C179.426 154.962 178.624 155.291 177.785 155.308Z"
				fill="#263238"
			/>
			<path
				d="M177.624 156.379H24.6689C23.9647 156.373 23.2732 156.566 22.6742 156.936C22.0751 157.306 21.5931 157.838 21.2839 158.471C21.2055 158.635 21.1704 158.817 21.1818 158.998C21.1932 159.18 21.2508 159.356 21.3491 159.509C21.4473 159.662 21.5831 159.788 21.7435 159.874C21.9038 159.96 22.0835 160.004 22.2655 160.001H179.994C180.176 160.004 180.355 159.96 180.516 159.874C180.676 159.788 180.812 159.662 180.91 159.509C181.008 159.356 181.066 159.18 181.077 158.998C181.089 158.817 181.054 158.635 180.975 158.471C180.67 157.843 180.193 157.313 179.601 156.943C179.008 156.573 178.323 156.377 177.624 156.379Z"
				fill="#263238"
			/>
			<path
				opacity="0.6"
				d="M177.625 156.379H155.873C155.174 156.377 154.489 156.572 153.896 156.942C153.303 157.312 152.827 157.842 152.522 158.471C152.444 158.635 152.409 158.816 152.42 158.997C152.431 159.178 152.488 159.353 152.586 159.506C152.683 159.659 152.818 159.785 152.977 159.871C153.137 159.958 153.316 160.002 153.497 160.001H179.995C180.177 160.004 180.357 159.96 180.517 159.874C180.677 159.788 180.813 159.662 180.911 159.509C181.01 159.356 181.067 159.18 181.079 158.998C181.09 158.817 181.055 158.635 180.977 158.471C180.671 157.842 180.195 157.313 179.602 156.943C179.009 156.573 178.324 156.377 177.625 156.379Z"
				fill="black"
			/>
			<path
				d="M164.138 159.016H158.519C158.389 159.014 158.265 158.961 158.174 158.869C158.082 158.776 158.031 158.651 158.031 158.522C158.031 158.392 158.082 158.267 158.174 158.174C158.265 158.082 158.389 158.029 158.519 158.027H164.138C164.203 158.027 164.267 158.04 164.327 158.065C164.387 158.09 164.441 158.126 164.487 158.172C164.533 158.218 164.57 158.272 164.594 158.332C164.619 158.392 164.632 158.457 164.632 158.522C164.632 158.586 164.619 158.651 164.594 158.711C164.57 158.771 164.533 158.825 164.487 158.871C164.441 158.917 164.387 158.953 164.327 158.978C164.267 159.003 164.203 159.016 164.138 159.016Z"
				fill="#407BFF"
			/>
			<path
				opacity="0.7"
				d="M91.88 159.016H86.2677C86.1366 159.016 86.0109 158.964 85.9182 158.871C85.8255 158.778 85.7734 158.653 85.7734 158.522C85.7734 158.457 85.7862 158.392 85.8111 158.332C85.8359 158.272 85.8723 158.218 85.9182 158.172C85.9641 158.126 86.0186 158.09 86.0785 158.065C86.1385 158.04 86.2028 158.027 86.2677 158.027H91.88C91.9449 158.027 92.0092 158.04 92.0691 158.065C92.1291 158.09 92.1836 158.126 92.2295 158.172C92.2754 158.218 92.3118 158.272 92.3366 158.332C92.3614 158.392 92.3742 158.457 92.3742 158.522C92.3742 158.653 92.3221 158.778 92.2295 158.871C92.1368 158.964 92.0111 159.016 91.88 159.016Z"
				fill="white"
			/>
			<path
				d="M169.953 158.027H166.277C166.053 158.027 165.871 158.209 165.871 158.434V158.61C165.871 158.834 166.053 159.016 166.277 159.016H169.953C170.178 159.016 170.36 158.834 170.36 158.61V158.434C170.36 158.209 170.178 158.027 169.953 158.027Z"
				fill="#407BFF"
			/>
			<path
				d="M49.2251 149.16L54.1401 71.2169C54.1655 70.8918 54.3115 70.5878 54.5495 70.3648C54.7875 70.1418 55.1003 70.0159 55.4265 70.0118H182.358C182.513 70.0095 182.667 70.0396 182.811 70.1003C182.954 70.1611 183.083 70.251 183.189 70.3645C183.296 70.4779 183.377 70.6123 183.429 70.7591C183.48 70.9059 183.5 71.0619 183.488 71.2169L178.58 149.16C178.553 149.486 178.406 149.79 178.166 150.013C177.927 150.236 177.614 150.361 177.287 150.365H50.3625C50.207 150.367 50.0528 150.336 49.9098 150.275C49.7667 150.214 49.6378 150.124 49.531 150.011C49.4243 149.898 49.342 149.764 49.2894 149.617C49.2367 149.471 49.2149 149.315 49.2251 149.16Z"
				fill="white"
			/>
			<path
				opacity="0.1"
				d="M121.433 67.6094L79.1545 147.97H47.965C47.8086 147.972 47.6534 147.942 47.5094 147.881C47.3654 147.819 47.2357 147.729 47.1286 147.615C47.0215 147.501 46.9395 147.366 46.8877 147.218C46.8358 147.07 46.8154 146.914 46.8277 146.758L51.7427 68.8212C51.7679 68.4954 51.9137 68.1907 52.1516 67.9666C52.3894 67.7425 52.7023 67.6151 53.029 67.6094H121.433Z"
				fill="#407BFF"
			/>
			<path opacity="0.1" d="M158.46 67.6094L116.181 147.97H106.324L148.603 67.6094H158.46Z" fill="#407BFF" />
			<path
				opacity="0.1"
				d="M181.089 68.8216L176.174 146.758C176.15 147.084 176.005 147.39 175.767 147.614C175.528 147.839 175.215 147.966 174.887 147.97H126.82L169.099 67.6098H179.931C180.089 67.6056 180.246 67.6345 180.392 67.6946C180.538 67.7548 180.67 67.8448 180.779 67.959C180.888 68.0731 180.972 68.2089 181.025 68.3575C181.079 68.506 181.1 68.6641 181.089 68.8216Z"
				fill="#407BFF"
			/>
			<path
				opacity="0.4"
				d="M119.949 67.6914C119.93 67.9369 119.821 68.1667 119.642 68.3358C119.463 68.5048 119.227 68.6009 118.981 68.6053C118.863 68.6066 118.746 68.5834 118.638 68.5371C118.53 68.4908 118.433 68.4225 118.353 68.3365C118.272 68.2505 118.211 68.1487 118.172 68.0376C118.133 67.9266 118.118 67.8086 118.128 67.6914C118.145 67.4452 118.254 67.2145 118.433 67.0452C118.613 66.8758 118.849 66.7802 119.096 66.7774C119.213 66.7761 119.33 66.7993 119.438 66.8456C119.546 66.8919 119.644 66.9602 119.724 67.0462C119.804 67.1322 119.866 67.234 119.904 67.3451C119.943 67.4561 119.958 67.5741 119.949 67.6914Z"
				fill="white"
			/>
			<path
				d="M98.9779 48.998C95.2747 53.236 93.1354 66.2277 95.8773 72.6186C98.6191 79.0095 66.8068 85.4072 93.0541 95.7924C119.302 106.178 140.295 94.1337 132.699 83.3762C125.103 72.6186 133.519 54.7051 124.724 50.203C116.776 46.1004 106.398 40.5016 98.9779 48.998Z"
				fill="#263238"
			/>
			<path
				d="M91.1319 101.312C89.744 106.051 88.2682 110.79 86.7381 115.529C85.2081 120.268 83.6172 124.953 81.9314 129.658L81.2883 131.431L80.9633 132.318L80.8618 132.582L80.6993 132.982C80.5977 133.239 80.442 133.517 80.3066 133.781C79.6448 134.99 78.6574 135.989 77.4564 136.665C76.3662 137.257 75.1493 137.577 73.9089 137.599C72.1694 137.607 70.4456 137.269 68.8382 136.604C67.5225 136.07 66.2484 135.439 65.0267 134.715C60.5879 131.985 56.5194 128.695 52.9219 124.926L55.8398 121.486C56.8214 122.116 57.8708 122.786 58.8863 123.416C59.9018 124.045 60.9647 124.655 61.9937 125.257C64.0101 126.437 66.0918 127.502 68.2289 128.446C69.2027 128.875 70.2075 129.231 71.2348 129.509C71.9452 129.744 72.6963 129.832 73.4418 129.766C73.6314 129.766 73.5975 129.658 73.4418 129.719C73.2861 129.78 73.1169 129.956 73.1101 129.935C73.1033 129.915 73.1101 129.935 73.1101 129.895C73.1133 129.881 73.1133 129.867 73.1101 129.854L73.1642 129.685L73.4215 128.811L73.9428 127.051L78.0793 112.834C79.4874 108.095 80.9362 103.356 82.4256 98.6172L91.1319 101.312Z"
				fill="#B65B52"
			/>
			<path
				d="M55.6285 121.376L47.7617 118.465L50.8827 126.778C50.8827 126.778 56.4341 127.577 58.587 124.659L56.8335 122.31C56.5296 121.89 56.1114 121.566 55.6285 121.376Z"
				fill="#B55B52"
			/>
			<path d="M40.8203 120.884L43.8127 127.701L50.9144 126.767L47.7867 118.453L40.8203 120.884Z" fill="#B55B52" />
			<path
				d="M85.3899 89.0484C81.7882 89.9624 79.2969 104.768 79.2969 104.768L89.215 111.538C89.215 111.538 98.693 96.6038 95.9511 92.6501C93.04 88.5001 90.6367 87.7147 85.3899 89.0484Z"
				fill="#407BFF"
			/>
			<path
				opacity="0.5"
				d="M85.3899 89.0484C81.7882 89.9624 79.2969 104.768 79.2969 104.768L89.215 111.538C89.215 111.538 98.693 96.6038 95.9511 92.6501C93.04 88.5001 90.6367 87.7147 85.3899 89.0484Z"
				fill="white"
			/>
			<path
				opacity="0.2"
				d="M85.0636 94.4297L92.7611 96.2102L93.499 103.745C92.1948 106.405 90.7555 108.997 89.1865 111.51L83.168 107.448C83.432 103.962 84.0819 96.7992 85.0636 94.4297Z"
				fill="black"
			/>
			<path
				d="M85.3877 89.0512C85.3877 89.0512 81.2241 90.5135 89.558 141.736H125.006C124.41 127.309 124.397 118.406 131.288 88.8007C126.327 87.7747 121.297 87.1117 116.239 86.8171C110.274 86.526 105.407 86.3364 100.14 86.8171C93.2274 87.4467 85.3877 89.0512 85.3877 89.0512Z"
				fill="#407BFF"
			/>
			<path
				opacity="0.5"
				d="M85.3877 89.0512C85.3877 89.0512 81.2241 90.5135 89.558 141.736H125.006C124.41 127.309 124.397 118.406 131.288 88.8007C126.327 87.7747 121.297 87.1117 116.239 86.8171C110.274 86.526 105.407 86.3364 100.14 86.8171C93.2274 87.4467 85.3877 89.0512 85.3877 89.0512Z"
				fill="white"
			/>
			<path
				opacity="0.2"
				d="M122.951 102.543L127.527 106.443C126.552 111.622 125.896 115.921 125.496 119.773C124.623 115.927 122.443 105.488 122.951 102.543Z"
				fill="black"
			/>
			<path
				d="M114.644 68.6875C113.629 73.8666 112.613 83.3581 116.242 86.8176C116.242 86.8176 112.857 94.5761 103.886 94.5761C94.9162 94.5761 100.143 86.8176 100.143 86.8176C105.917 85.4636 105.769 81.1511 104.767 77.1297L114.644 68.6875Z"
				fill="#B55B52"
			/>
			<path
				d="M115.09 84.8778C114.237 86.6042 111.489 90.5511 103.811 91.9593C103.598 91.9985 103.378 91.9549 103.195 91.8374C101.76 90.8354 100.866 88.7164 101.496 86.2589C101.538 86.1079 101.536 85.9483 101.492 85.798C101.448 85.6477 101.363 85.5128 101.246 85.4086C101.129 85.3044 100.985 85.2349 100.831 85.2081C100.676 85.1813 100.517 85.1982 100.372 85.2569C99.7825 85.5037 99.2161 85.8028 98.6797 86.1506C98.5619 86.2287 98.4663 86.336 98.4022 86.462C97.8403 87.5181 95.5655 92.6904 102.43 95.8791C102.54 95.926 102.657 95.9534 102.776 95.9603C106.838 96.0416 113.939 95.2427 118.428 87.1593C118.508 87.0133 118.544 86.8471 118.53 86.681C118.517 86.515 118.456 86.3565 118.353 86.225C117.75 85.5647 117.049 85.0007 116.275 84.5529C116.178 84.4902 116.068 84.4488 115.953 84.4313C115.839 84.4139 115.722 84.4206 115.61 84.4513C115.498 84.4819 115.394 84.5358 115.305 84.6092C115.215 84.6827 115.142 84.7742 115.09 84.8778Z"
				fill="#FAFAFA"
			/>
			<path
				d="M116.973 106.19L107.833 105.926C107.738 105.927 107.643 105.907 107.556 105.869C107.469 105.83 107.39 105.774 107.326 105.703C107.262 105.632 107.214 105.548 107.185 105.457C107.156 105.366 107.146 105.27 107.156 105.175L107.244 104.044C107.271 103.854 107.366 103.68 107.512 103.556C107.658 103.431 107.845 103.364 108.037 103.367L117.176 103.631C117.272 103.631 117.367 103.65 117.455 103.689C117.543 103.728 117.622 103.786 117.686 103.857C117.75 103.929 117.798 104.014 117.827 104.106C117.856 104.197 117.865 104.294 117.853 104.39L117.765 105.513C117.739 105.704 117.643 105.877 117.497 106.002C117.352 106.127 117.165 106.194 116.973 106.19Z"
				fill="#FAFAFA"
			/>
			<path
				opacity="0.2"
				d="M110.615 72.1328L104.766 77.1223C105.017 78.058 105.184 79.014 105.267 79.9793C107.467 79.6611 110.5 77.2374 110.737 74.9288C110.866 73.9972 110.825 73.0497 110.615 72.1328Z"
				fill="black"
			/>
			<path
				d="M121.468 58.8881C119.836 67.398 119.329 71.0335 114.427 74.8721C107.055 80.6537 96.9605 76.7813 96.0262 67.9599C95.1799 60.0187 97.9895 47.44 106.858 45.1111C108.802 44.5946 110.845 44.5828 112.794 45.0768C114.743 45.5707 116.534 46.554 117.997 47.9336C119.46 49.3133 120.547 51.0435 121.154 52.9605C121.762 54.8774 121.87 56.9177 121.468 58.8881Z"
				fill="#B55B52"
			/>
			<path
				d="M116.628 52.5921C115.572 57.9201 115.321 64.9812 120.202 64.9812C125.084 64.9812 128.909 56.6744 124.698 50.1684C120.487 43.6624 117.244 49.4508 116.628 52.5921Z"
				fill="#263238"
			/>
			<path
				d="M125.063 53.2497C125.063 59.0448 117.765 56.1811 114.535 53.6829C111.306 51.1848 111.15 51.4556 105.166 51.4488C99.181 51.4421 97.9827 51.0291 96.2157 48.1721C94.4487 45.3152 94.6112 43.4331 98.592 44.0357C102.573 44.6382 99.2284 40.5762 102.194 38.3218C105.159 36.0673 108.673 36.636 112.728 41.7812C116.783 46.9265 125.063 43.2097 125.063 53.2497Z"
				fill="#263238"
			/>
			<path
				d="M122.919 66.4617C123.687 63.8424 122.934 61.3158 121.236 60.8183C119.539 60.3207 117.541 62.0406 116.773 64.6599C116.005 67.2791 116.759 69.8057 118.456 70.3032C120.153 70.8008 122.151 69.0809 122.919 66.4617Z"
				fill="white"
			/>
			<path
				d="M109.37 73.0101C107.799 73.0098 106.244 72.6896 104.801 72.0691C104.77 72.0565 104.742 72.0378 104.718 72.0143C104.694 71.9907 104.676 71.9626 104.663 71.9317C104.65 71.9008 104.644 71.8677 104.645 71.8343C104.645 71.8009 104.652 71.7679 104.665 71.7373C104.693 71.6756 104.744 71.627 104.807 71.6018C104.87 71.5766 104.941 71.5766 105.004 71.6019C106.364 72.1857 107.828 72.4907 109.308 72.4988C110.788 72.507 112.255 72.2181 113.622 71.6493C114.951 71.1054 116.158 70.3011 117.172 69.2838C118.186 68.2665 118.986 67.0567 119.525 65.7256C121.556 59.9101 123.628 52.6526 121.231 48.1235C120.749 47.242 120.082 46.4752 119.276 45.8757C118.47 45.2762 117.543 44.8583 116.56 44.6505C116.495 44.633 116.439 44.5905 116.405 44.5322C116.371 44.4739 116.361 44.4046 116.377 44.339C116.395 44.2738 116.437 44.218 116.496 44.1838C116.554 44.1496 116.623 44.1397 116.689 44.1563C117.739 44.3823 118.728 44.8318 119.589 45.4743C120.45 46.1168 121.163 46.9373 121.678 47.8798C124.17 52.5579 122.091 59.9575 119.999 65.8813C119.432 67.2792 118.59 68.5493 117.524 69.6167C116.458 70.6841 115.189 71.5271 113.791 72.0961C112.391 72.6846 110.889 72.995 109.37 73.0101Z"
				fill="white"
			/>
			<path
				opacity="0.6"
				d="M122.672 66.4841C122.069 68.5151 120.688 69.9436 119.584 69.6254C118.481 69.3072 118.075 67.371 118.677 65.3129C119.28 63.2548 120.661 61.8467 121.764 62.1716C122.868 62.4966 123.274 64.426 122.672 66.4841Z"
				fill="#407BFF"
			/>
			<path
				d="M105.5 70.948L102.848 70.4363C102.382 70.3464 101.931 70.6514 101.841 71.1177L101.812 71.2706C101.722 71.7368 102.027 72.1877 102.493 72.2777L105.145 72.7894C105.611 72.8793 106.062 72.5743 106.152 72.108L106.182 71.9551C106.272 71.4889 105.967 71.038 105.5 70.948Z"
				fill="white"
			/>
			<path
				d="M102.037 59.6016C102.037 59.6016 100.466 62.4517 98.9766 63.7313C99.7822 64.7129 101.407 64.5234 101.407 64.5234L102.037 59.6016Z"
				fill="#A02724"
			/>
			<path
				d="M103.534 68.1642H103.595C105.129 68.2854 106.653 67.821 107.86 66.8644C107.885 66.8391 107.898 66.8051 107.898 66.7696C107.898 66.7342 107.885 66.7001 107.86 66.6748C107.848 66.6628 107.834 66.6532 107.818 66.6466C107.802 66.6401 107.785 66.6367 107.768 66.6367C107.751 66.6367 107.734 66.6401 107.719 66.6466C107.703 66.6532 107.689 66.6628 107.677 66.6748C106.525 67.5803 105.076 68.0222 103.615 67.9138C103.597 67.9109 103.58 67.9116 103.563 67.916C103.545 67.9203 103.529 67.9281 103.515 67.9389C103.501 67.9497 103.49 67.9633 103.481 67.9787C103.473 67.9942 103.468 68.0113 103.466 68.0288C103.462 68.0556 103.467 68.0828 103.479 68.1069C103.491 68.131 103.51 68.151 103.534 68.1642Z"
				fill="#263238"
			/>
			<path
				d="M111.277 56.2492C111.316 56.2706 111.359 56.2817 111.403 56.2817C111.446 56.2817 111.489 56.2706 111.528 56.2492C111.586 56.2105 111.627 56.1508 111.642 56.0827C111.657 56.0146 111.645 55.9433 111.609 55.8836C111.285 55.3415 110.837 54.8842 110.301 54.5499C109.766 54.2155 109.158 54.0136 108.529 53.9609C108.458 53.9609 108.39 53.9885 108.339 54.0378C108.289 54.0872 108.26 54.1543 108.258 54.225C108.258 54.2938 108.285 54.36 108.333 54.4093C108.381 54.4586 108.446 54.4872 108.515 54.489C109.057 54.5407 109.58 54.7197 110.04 55.0115C110.5 55.3032 110.884 55.6995 111.162 56.168C111.192 56.205 111.232 56.2331 111.277 56.2492Z"
				fill="#263238"
			/>
			<path
				d="M107.398 59.7167C107.282 60.3937 106.815 60.915 106.355 60.8405C105.895 60.7661 105.631 60.1635 105.746 59.4324C105.861 58.7012 106.335 58.2341 106.788 58.3086C107.242 58.383 107.519 59.0194 107.398 59.7167Z"
				fill="#263238"
			/>
			<path
				d="M99.503 58.3737C99.3879 59.0507 98.9208 59.572 98.4604 59.4976C98 59.4231 97.736 58.7867 97.8511 58.0894C97.9662 57.3921 98.4401 56.8843 98.8937 56.9656C99.3473 57.0468 99.6248 57.6697 99.503 58.3737Z"
				fill="#263238"
			/>
			<path d="M99.0938 57.0413L97.4961 56.2695C97.4961 56.2695 98.1325 57.7251 99.0938 57.0413Z" fill="#263238" />
			<path d="M106.984 58.3822L105.387 57.6172C105.387 57.6172 106.023 59.0727 106.984 58.3822Z" fill="#263238" />
			<path
				d="M96.8252 53.6563C96.8662 53.6807 96.913 53.6936 96.9606 53.6936C97.0083 53.6936 97.0551 53.6807 97.096 53.6563C97.5138 53.3051 98.0102 53.0602 98.543 52.9423C99.0758 52.8244 99.6292 52.8371 100.156 52.9793C100.223 53.0026 100.296 52.9986 100.359 52.9681C100.422 52.9377 100.471 52.8832 100.495 52.8168C100.518 52.7503 100.514 52.6774 100.483 52.6139C100.453 52.5504 100.399 52.5016 100.332 52.4783C99.7245 52.3053 99.0842 52.2814 98.4655 52.4087C97.8467 52.5359 97.2678 52.8106 96.7778 53.2094C96.7495 53.2294 96.7257 53.2551 96.7078 53.2847C96.6899 53.3144 96.6784 53.3475 96.674 53.3818C96.6695 53.4162 96.6722 53.4511 96.6819 53.4843C96.6917 53.5176 96.7082 53.5485 96.7305 53.575C96.7531 53.6111 96.7861 53.6394 96.8252 53.6563Z"
				fill="#263238"
			/>
			<path
				d="M88.2122 150.366C88.2122 150.366 88.1174 145.519 89.5662 141.734H125.007C125.007 141.734 128.196 146.88 129.022 150.366H88.2122Z"
				fill="#407BFF"
			/>
			<path
				d="M125.544 139.657L125.822 142.826C125.95 143.076 125.659 143.327 125.246 143.327H89.365C89.0468 143.327 88.7828 143.171 88.7625 142.968L88.4375 139.793C88.4375 139.576 88.6948 139.387 89.0468 139.387H124.928C125.045 139.374 125.164 139.393 125.272 139.44C125.38 139.488 125.474 139.562 125.544 139.657Z"
				fill="#407BFF"
			/>
			<path
				opacity="0.3"
				d="M125.544 139.657L125.822 142.826C125.95 143.076 125.659 143.327 125.246 143.327H89.365C89.0468 143.327 88.7828 143.171 88.7625 142.968L88.4375 139.793C88.4375 139.576 88.6948 139.387 89.0468 139.387H124.928C125.045 139.374 125.164 139.393 125.272 139.44C125.38 139.488 125.474 139.562 125.544 139.657Z"
				fill="#FAFAFA"
			/>
			<path
				d="M120.715 143.662H121.677C121.873 143.662 122.015 143.567 122.002 143.445L121.555 139.322C121.555 139.2 121.372 139.105 121.183 139.105H120.201C120.005 139.105 119.862 139.2 119.876 139.322L120.323 143.445C120.357 143.567 120.526 143.662 120.715 143.662Z"
				fill="#407BFF"
			/>
			<path
				d="M92.0846 143.662H93.046C93.2355 143.662 93.3845 143.567 93.3709 143.445L92.9173 139.322C92.9173 139.2 92.7413 139.105 92.545 139.105H91.5836C91.3941 139.105 91.2451 139.2 91.2587 139.322L91.7123 143.445C91.7258 143.567 91.8951 143.662 92.0846 143.662Z"
				fill="#407BFF"
			/>
			<path
				d="M106.405 143.662H107.339C107.528 143.662 107.677 143.567 107.664 143.445L107.21 139.322C107.21 139.2 107.028 139.105 106.838 139.105H105.877C105.687 139.105 105.538 139.2 105.552 139.322L106.005 143.445C106.046 143.567 106.208 143.662 106.405 143.662Z"
				fill="#407BFF"
			/>
			<path
				d="M134.322 98.832C135.879 103.887 137.375 108.969 138.811 114.078L140.97 121.701L142.047 125.492L142.318 126.427L142.453 126.894L142.487 127.002L142.378 126.833C142.207 126.588 141.997 126.373 141.756 126.196C141.226 125.811 140.596 125.588 139.941 125.553C139.447 125.53 138.954 125.627 138.506 125.838C138.019 126.102 138.066 126.163 138.107 126.115C138.221 126.015 138.326 125.904 138.418 125.783C138.737 125.385 139.031 124.966 139.298 124.531C139.894 123.556 140.483 122.459 141.038 121.336C142.189 119.088 143.225 116.705 144.274 114.308C145.323 111.912 146.305 109.488 147.321 107.044C148.336 104.6 149.304 102.143 150.306 99.7189L154.632 101.005C153.508 106.286 152.195 111.472 150.57 116.637C149.771 119.23 148.884 121.796 147.862 124.396C147.334 125.695 146.772 126.995 146.075 128.343C145.703 129.071 145.287 129.777 144.829 130.455C144.545 130.88 144.228 131.283 143.881 131.66C143.332 132.283 142.665 132.792 141.918 133.156C141.173 133.518 140.349 133.691 139.522 133.657C138.54 133.602 137.597 133.256 136.813 132.662C136.314 132.285 135.882 131.828 135.534 131.308C135.314 130.974 135.122 130.623 134.958 130.258C134.898 130.11 134.83 129.954 134.782 129.818L134.654 129.487L134.478 129.006L134.126 128.051C133.665 126.785 133.198 125.519 132.772 124.253C131.905 121.721 131.039 119.196 130.226 116.658C128.565 111.584 127.017 106.487 125.582 101.364L134.322 98.832Z"
				fill="#B65B52"
			/>
			<path
				d="M131.289 88.8008C134.843 89.8772 140.28 103.817 140.28 103.817L126.503 113.667C126.503 113.667 120.308 101.752 121.798 97.1618C123.355 92.3821 127.241 87.5687 131.289 88.8008Z"
				fill="#407BFF"
			/>
			<path
				opacity="0.5"
				d="M131.289 88.8008C134.843 89.8772 140.28 103.817 140.28 103.817L126.503 113.667C126.503 113.667 120.308 101.752 121.798 97.1618C123.355 92.3821 127.241 87.5687 131.289 88.8008Z"
				fill="white"
			/>
			<path d="M150.463 101.573L148.574 93.2461L156.427 97.3893C156.427 97.3893 156.522 102.995 153.354 104.762L150.463 101.573Z" fill="#B55B52" />
			<path d="M151.864 86.6406L156.874 90.1949L156.427 97.3914L148.574 93.2482L151.864 86.6406Z" fill="#B55B52" />
			<path
				d="M10.1551 44.6136H64.9923C66.0393 44.6033 67.0771 44.8104 68.04 45.2216C69.0029 45.6329 69.8699 46.2395 70.5864 47.0031C71.3028 47.7666 71.8531 48.6705 72.2023 49.6576C72.5516 50.6446 72.6922 51.6935 72.6154 52.7377L71.0853 77.5566C70.9171 79.7414 69.9398 81.7849 68.3447 83.2874C66.7496 84.7899 64.6513 85.6432 62.4603 85.6806H56.1101L58.703 94.2041L46.3003 85.6806H7.64346C6.59647 85.6909 5.55872 85.4839 4.59583 85.0726C3.63294 84.6613 2.76586 84.0548 2.0494 83.2912C1.33294 82.5277 0.782696 81.6238 0.433453 80.6367C0.0842098 79.6496 -0.0564329 78.6008 0.0204138 77.5566L1.5369 52.7377C1.70502 50.554 2.68132 48.5114 4.27502 47.0091C5.86873 45.5068 7.96532 44.6527 10.1551 44.6136Z"
				fill="#407BFF"
			/>
			<path
				d="M59.9683 57.6116H13.5937C13.3968 57.6105 13.2023 57.5686 13.0224 57.4884C12.8426 57.4082 12.6814 57.2916 12.549 57.1458C12.4166 57.0001 12.3159 56.8284 12.2534 56.6417C12.1908 56.455 12.1677 56.2574 12.1855 56.0613C12.2158 55.6504 12.3986 55.2657 12.698 54.9826C12.9973 54.6996 13.3916 54.5386 13.8036 54.5312H60.185C60.3809 54.5317 60.5746 54.5724 60.754 54.6509C60.9335 54.7293 61.0949 54.8439 61.2283 54.9874C61.3616 55.1308 61.464 55.3002 61.5291 55.485C61.5942 55.6697 61.6206 55.8659 61.6067 56.0613C61.5825 56.4798 61.3995 56.8733 61.095 57.1614C60.7906 57.4496 60.3876 57.6106 59.9683 57.6116Z"
				fill="white"
			/>
			<path
				d="M32.4975 66.6773H13.0404C12.8434 66.6788 12.6482 66.6394 12.4671 66.5618C12.2861 66.4842 12.123 66.3699 11.9882 66.2262C11.8534 66.0825 11.7498 65.9125 11.6839 65.7268C11.618 65.5411 11.5912 65.3438 11.6052 65.1473C11.6356 64.7353 11.8193 64.3496 12.1201 64.0664C12.4209 63.7832 12.8169 63.6229 13.23 63.6173H32.7073C32.9049 63.6149 33.1009 63.6536 33.2827 63.7308C33.4646 63.808 33.6285 63.9221 33.764 64.0659C33.8996 64.2097 34.0038 64.3801 34.0701 64.5662C34.1364 64.7523 34.1634 64.9502 34.1494 65.1473C34.117 65.5634 33.929 65.952 33.6228 66.2356C33.3166 66.5191 32.9148 66.6769 32.4975 66.6773Z"
				fill="white"
			/>
			<path
				d="M49.1725 75.7438H12.4857C12.2887 75.7452 12.0935 75.7058 11.9125 75.6282C11.7314 75.5506 11.5683 75.4363 11.4335 75.2926C11.2987 75.1489 11.1951 74.9789 11.1292 74.7932C11.0633 74.6076 11.0365 74.4102 11.0505 74.2137C11.0794 73.8011 11.2627 73.4146 11.5638 73.1311C11.8649 72.8475 12.2617 72.6878 12.6753 72.6837H49.3621C49.5594 72.6812 49.755 72.7199 49.9366 72.7972C50.1182 72.8745 50.2816 72.9887 50.4166 73.1326C50.5516 73.2765 50.6552 73.447 50.7207 73.6331C50.7863 73.8192 50.8123 74.017 50.7973 74.2137C50.7669 74.6257 50.5831 75.0114 50.2824 75.2946C49.9816 75.5779 49.5856 75.7381 49.1725 75.7438Z"
				fill="white"
			/>
			<path
				d="M46.789 66.6773H39.1185C38.9215 66.6788 38.7263 66.6394 38.5453 66.5618C38.3642 66.4842 38.2011 66.3699 38.0663 66.2262C37.9315 66.0825 37.8279 65.9125 37.762 65.7268C37.6961 65.5411 37.6693 65.3438 37.6833 65.1473C37.7152 64.7359 37.8994 64.3511 38.1999 64.0682C38.5003 63.7852 38.8955 63.6245 39.3081 63.6173H46.9718C47.1691 63.6148 47.3647 63.6535 47.5463 63.7308C47.7279 63.8081 47.8914 63.9223 48.0264 64.0662C48.1614 64.2101 48.2649 64.3806 48.3305 64.5667C48.396 64.7528 48.4221 64.9506 48.407 65.1473C48.3767 65.5582 48.1939 65.9429 47.8946 66.226C47.5952 66.509 47.2009 66.67 46.789 66.6773Z"
				fill="white"
			/>
			<path
				d="M86.5154 0.000262135H56.619C54.9141 0.0258503 53.2805 0.688098 52.039 1.85688C50.7976 3.02566 50.0381 4.61646 49.9099 6.31669L48.7454 25.6383C48.6874 26.4507 48.7983 27.2663 49.0712 28.0337C49.344 28.801 49.7728 29.5036 50.3306 30.097C50.8884 30.6904 51.5631 31.1619 52.3122 31.4816C53.0612 31.8013 53.8684 31.9625 54.6828 31.9548H59.5775L56.7476 38.5894L67.2141 31.9548H84.5589C86.2637 31.9292 87.8974 31.2669 89.1388 30.0981C90.3803 28.9294 91.1397 27.3386 91.268 25.6383L92.4527 6.31669C92.5107 5.50433 92.3998 4.68875 92.127 3.92138C91.8542 3.154 91.4253 2.45146 90.8675 1.85804C90.3097 1.26461 89.635 0.793169 88.886 0.473428C88.137 0.153688 87.3298 -0.00741674 86.5154 0.000262135Z"
				fill="#407BFF"
			/>
			<g opacity="0.5">
				<path
					opacity="0.5"
					d="M86.5154 0.000262135H56.619C54.9141 0.0258503 53.2805 0.688098 52.039 1.85688C50.7976 3.02566 50.0381 4.61646 49.9099 6.31669L48.7454 25.6383C48.6874 26.4507 48.7983 27.2663 49.0712 28.0337C49.344 28.801 49.7728 29.5036 50.3306 30.097C50.8884 30.6904 51.5631 31.1619 52.3122 31.4816C53.0612 31.8013 53.8684 31.9625 54.6828 31.9548H59.5775L56.7476 38.5894L67.2141 31.9548H84.5589C86.2637 31.9292 87.8974 31.2669 89.1388 30.0981C90.3803 28.9294 91.1397 27.3386 91.268 25.6383L92.4527 6.31669C92.5107 5.50433 92.3998 4.68875 92.127 3.92138C91.8542 3.154 91.4253 2.45146 90.8675 1.85804C90.3097 1.26461 89.635 0.793169 88.886 0.473428C88.137 0.153688 87.3298 -0.00741674 86.5154 0.000262135Z"
					fill="#FAFAFA"
				/>
			</g>
			<path
				d="M72.1013 19.1402C71.9983 19.5658 71.7556 19.9444 71.4119 20.2157C71.0682 20.4869 70.6435 20.6351 70.2057 20.6364H68.4388C68.4388 20.1354 68.4794 19.8308 68.4862 19.7225C68.5117 18.7466 68.7619 17.7899 69.2173 16.9264C69.857 15.964 70.6696 15.1284 71.6139 14.4622C72.367 13.9164 73.0776 13.3144 73.7397 12.6613C74.0909 12.2457 74.2997 11.7285 74.3354 11.1855C74.3621 10.8257 74.3057 10.4647 74.1707 10.1301C74.0357 9.79561 73.8257 9.49655 73.5569 9.25601C72.9001 8.69336 72.0508 8.40703 71.1874 8.45715C70.2795 8.43237 69.3921 8.72976 68.6825 9.29663C68.2608 9.64455 67.9151 10.0755 67.667 10.5626C67.4841 10.9185 67.2003 11.2124 66.851 11.4075C66.5017 11.6026 66.1026 11.6903 65.7037 11.6594C65.4166 11.6238 65.1432 11.5165 64.9087 11.3473C64.6742 11.178 64.4861 10.9524 64.3619 10.6912C64.2377 10.43 64.1814 10.1417 64.1982 9.85296C64.215 9.56423 64.3044 9.2844 64.458 9.03937C64.8665 8.35378 65.3911 7.74443 66.0083 7.23854C67.4755 6.05914 69.32 5.45072 71.2009 5.52572C73.4147 5.52572 75.1343 6.10118 76.3732 7.25885C76.9532 7.75751 77.4097 8.38382 77.7069 9.08861C78.0041 9.7934 78.1339 10.5575 78.086 11.3209C78.0239 12.1886 77.7241 13.0224 77.2195 13.731C76.2685 14.9019 75.1693 15.9442 73.9496 16.8317C73.3176 17.2729 72.7716 17.8258 72.3383 18.4632C72.2282 18.6768 72.1484 18.9046 72.1013 19.1402ZM68.2357 24.0011V23.7845C68.2713 23.2952 68.4894 22.8372 68.8467 22.5012C69.2041 22.1651 69.6746 21.9756 70.1651 21.9701H70.4088C70.6434 21.9667 70.8762 22.0121 71.0923 22.1034C71.3084 22.1947 71.5032 22.33 71.6643 22.5006C71.8253 22.6712 71.9492 22.8734 72.0279 23.0945C72.1066 23.3155 72.1386 23.5505 72.1216 23.7845V24.0011C72.0861 24.491 71.8683 24.9498 71.5111 25.2869C71.1539 25.6241 70.6833 25.8151 70.1922 25.8223H69.9756C69.7381 25.8296 69.5017 25.7869 69.2819 25.6968C69.062 25.6068 68.8636 25.4715 68.6994 25.2997C68.5353 25.1279 68.4092 24.9235 68.3293 24.6998C68.2494 24.4761 68.2175 24.238 68.2357 24.0011Z"
				fill="white"
			/>
		</svg>