<svg width="28" height="28" viewBox="0 0 28 28" fill="none" xmlns="http://www.w3.org/2000/svg">
<path d="M24.5 24.5V7.875L16.625 0H7C6.07174 0 5.1815 0.368749 4.52513 1.02513C3.86875 1.6815 3.5 2.57174 3.5 3.5V24.5C3.5 25.4283 3.86875 26.3185 4.52513 26.9749C5.1815 27.6313 6.07174 28 7 28H21C21.9283 28 22.8185 27.6313 23.4749 26.9749C24.1313 26.3185 24.5 25.4283 24.5 24.5ZM16.625 5.25C16.625 5.94619 16.9016 6.61387 17.3938 7.10616C17.8861 7.59844 18.5538 7.875 19.25 7.875H22.75V24.5C22.75 24.9641 22.5656 25.4092 22.2374 25.7374C21.9092 26.0656 21.4641 26.25 21 26.25H7C6.53587 26.25 6.09075 26.0656 5.76256 25.7374C5.43437 25.4092 5.25 24.9641 5.25 24.5V3.5C5.25 3.03587 5.43437 2.59075 5.76256 2.26256C6.09075 1.93437 6.53587 1.75 7 1.75H16.625V5.25Z" fill="#EF0C0C"/>
<path d="M8.05464 24.6524C7.71356 24.516 7.43875 24.2525 7.28814 23.9174C6.94689 23.2384 7.06064 22.5594 7.42814 21.9889C7.77464 21.4516 8.34864 20.9949 8.99789 20.6116C9.82029 20.1452 10.6896 19.7669 11.5914 19.4829C12.2917 18.2239 12.9124 16.9223 13.4499 15.5856C13.1286 14.8555 12.8766 14.0967 12.6974 13.3194C12.5469 12.6194 12.4891 11.9264 12.6169 11.3314C12.7481 10.7119 13.0964 10.1554 13.7544 9.89114C14.0904 9.75639 14.4544 9.68114 14.8079 9.75639C14.9857 9.79425 15.1529 9.87121 15.2973 9.98169C15.4416 10.0922 15.5596 10.2334 15.6426 10.3951C15.7966 10.6821 15.8526 11.0181 15.8649 11.3366C15.8771 11.6656 15.8439 12.0296 15.7826 12.4111C15.6356 13.3036 15.3101 14.3956 14.8726 15.5506C15.3555 16.5832 15.9294 17.5706 16.5876 18.5011C17.3666 18.4396 18.15 18.469 18.9221 18.5886C19.5591 18.7041 20.2066 18.9299 20.6021 19.4024C20.8121 19.6544 20.9399 19.9624 20.9521 20.3089C20.9644 20.6449 20.8699 20.9774 20.7106 21.2941C20.5727 21.5877 20.3588 21.839 20.0911 22.0221C19.8266 22.1947 19.5142 22.2793 19.1986 22.2636C18.6194 22.2391 18.0541 21.9206 17.5659 21.5339C16.9722 21.043 16.4372 20.4851 15.9716 19.8714C14.7882 20.0057 13.6188 20.2434 12.4769 20.5819C11.954 21.5093 11.357 22.393 10.6919 23.2244C10.1809 23.8369 9.62614 24.3724 9.06964 24.6016C8.7499 24.7463 8.38722 24.7644 8.05464 24.6524ZM10.4679 21.3256C10.1774 21.4586 9.90789 21.5986 9.66464 21.7421C9.09064 22.0816 8.71789 22.4124 8.53239 22.6994C8.36789 22.9531 8.36439 23.1369 8.46239 23.3311C8.47989 23.3696 8.49739 23.3941 8.50789 23.4081C8.52877 23.4026 8.54924 23.3956 8.56914 23.3871C8.80889 23.2891 9.19039 22.9759 9.68039 22.3861C9.95907 22.0449 10.2219 21.6911 10.4679 21.3256ZM13.3379 18.9981C13.9223 18.8618 14.5119 18.7491 15.1054 18.6604C14.7867 18.1728 14.489 17.6718 14.2129 17.1589C13.9384 17.7794 13.6466 18.3922 13.3379 18.9964V18.9981ZM17.6184 19.7856C17.8809 20.0709 18.1364 20.3106 18.3796 20.5031C18.7996 20.8356 19.0919 20.9459 19.2511 20.9511C19.2938 20.9567 19.337 20.9474 19.3736 20.9249C19.4464 20.8674 19.5031 20.792 19.5381 20.7061C19.6004 20.5995 19.6358 20.4794 19.6414 20.3561C19.6404 20.315 19.6242 20.2757 19.5959 20.2459C19.5049 20.1374 19.2459 19.9799 18.6894 19.8801C18.3354 19.8209 17.9773 19.7899 17.6184 19.7874V19.7856ZM14.1359 13.6501C14.2832 13.1751 14.4001 12.6911 14.4859 12.2011C14.5401 11.8721 14.5611 11.6009 14.5524 11.3874C14.5529 11.2696 14.534 11.1525 14.4964 11.0409C14.4089 11.0517 14.3234 11.0753 14.2426 11.1109C14.0904 11.1721 13.9661 11.2964 13.8996 11.6061C13.8296 11.9421 13.8471 12.4269 13.9801 13.0446C14.0221 13.2389 14.0746 13.4419 14.1376 13.6501H14.1359Z" fill="#EF0C0C"/>
</svg>
