<svg width="181" height="180" viewBox="0 0 181 180" fill="none" xmlns="http://www.w3.org/2000/svg">
<path opacity="0.1" d="M90.843 180.001C140.485 180.001 180.727 156.766 180.727 128.104C180.727 99.442 140.485 76.207 90.843 76.207C41.2014 76.207 0.958984 99.442 0.958984 128.104C0.958984 156.766 41.2014 180.001 90.843 180.001Z" fill="#F5F5F5"/>
<path d="M133.368 104.991L121.857 98.25L128.711 107.676L133.368 104.991Z" fill="#407BFF"/>
<path opacity="0.6" d="M133.368 104.991L121.857 98.25L128.711 107.676L133.368 104.991Z" fill="black"/>
<path d="M126.527 129.939L59.1605 91.041C58.8714 90.8746 58.6312 90.6349 58.4642 90.3461C58.2971 90.0574 58.2091 89.7297 58.209 89.3961V43.3977C58.2092 43.0642 58.2971 42.7366 58.4639 42.4477C58.6306 42.1588 58.8704 41.9189 59.1591 41.7519C59.4478 41.5848 59.7753 41.4966 60.1088 41.4961C60.4424 41.4955 60.7702 41.5827 61.0594 41.7487L128.434 80.6472C128.723 80.8146 128.963 81.055 129.13 81.3444C129.297 81.6338 129.385 81.962 129.386 82.2961V128.294C129.386 128.629 129.297 128.957 129.13 129.247C128.962 129.536 128.722 129.776 128.432 129.943C128.142 130.11 127.813 130.197 127.479 130.197C127.145 130.196 126.816 130.107 126.527 129.939Z" fill="#E0E0E0"/>
<path d="M128.712 107.677L133.368 104.992V159.421C133.369 159.912 133.24 160.394 132.994 160.819C132.748 161.243 132.395 161.596 131.969 161.84L127.369 164.505L128.712 107.677Z" fill="#407BFF"/>
<path opacity="0.3" d="M128.712 107.677L133.368 104.992V159.421C133.369 159.912 133.24 160.394 132.994 160.819C132.748 161.243 132.395 161.596 131.969 161.84L127.369 164.505L128.712 107.677Z" fill="black"/>
<path d="M123.471 131.662L56.0959 92.7631C55.8078 92.5949 55.5687 92.3541 55.4025 92.0648C55.2363 91.7755 55.1487 91.4478 55.1484 91.1141V45.1037C55.1482 44.77 55.2358 44.4421 55.4025 44.1531C55.5693 43.8641 55.8092 43.6241 56.0982 43.4573C56.3872 43.2906 56.7151 43.2029 57.0487 43.2031C57.3824 43.2034 57.7101 43.2915 57.9989 43.4587L125.374 82.3571C125.663 82.5236 125.903 82.7632 126.07 83.052C126.237 83.3408 126.325 83.6685 126.325 84.0021V130.013C126.325 130.347 126.237 130.675 126.071 130.964C125.904 131.254 125.663 131.494 125.374 131.661C125.085 131.828 124.756 131.916 124.422 131.916C124.088 131.917 123.76 131.829 123.471 131.662Z" fill="#EBEBEB"/>
<path d="M120.41 133.462L53.0394 94.5674C52.7502 94.4 52.5101 94.1595 52.3431 93.8701C52.1762 93.5807 52.0881 93.2525 52.0879 92.9184V46.9201C52.0876 46.5864 52.1753 46.2586 52.342 45.9695C52.5087 45.6805 52.7487 45.4405 53.0377 45.2738C53.3267 45.107 53.6545 45.0193 53.9882 45.0195C54.3219 45.0198 54.6496 45.1079 54.9383 45.2751L122.313 84.1735C122.603 84.3407 122.844 84.5816 123.011 84.8719C123.179 85.1622 123.266 85.4916 123.265 85.8266V131.817C123.264 132.151 123.176 132.478 123.008 132.767C122.841 133.056 122.601 133.296 122.312 133.463C122.023 133.629 121.695 133.717 121.361 133.717C121.027 133.717 120.699 133.629 120.41 133.462Z" fill="#FAFAFA"/>
<path d="M42.6055 46.3143V113.927C42.6054 114.886 42.8579 115.829 43.3378 116.66C43.8176 117.491 44.5079 118.181 45.3391 118.66L124.765 164.509C125.166 164.741 125.621 164.862 126.084 164.862C126.548 164.862 127.003 164.74 127.404 164.508C127.805 164.277 128.138 163.944 128.37 163.543C128.601 163.142 128.724 162.687 128.724 162.223V107.678L86.834 83.4872L79.5969 66.7957C78.2462 63.6784 75.9278 61.0787 72.9848 59.3813L46.476 44.0606C46.0824 43.8333 45.6356 43.714 45.1811 43.7148C44.7265 43.7157 44.2802 43.8366 43.8874 44.0653C43.4945 44.2941 43.1691 44.6225 42.944 45.0175C42.7189 45.4124 42.6022 45.8598 42.6055 46.3143Z" fill="#407BFF"/>
<path opacity="0.2" d="M42.6055 46.3143V113.927C42.6054 114.886 42.8579 115.829 43.3378 116.66C43.8176 117.491 44.5079 118.181 45.3391 118.66L124.765 164.509C125.166 164.741 125.621 164.862 126.084 164.862C126.548 164.862 127.003 164.74 127.404 164.508C127.805 164.277 128.138 163.944 128.37 163.543C128.601 163.142 128.724 162.687 128.724 162.223V107.678L86.834 83.4872L79.5969 66.7957C78.2462 63.6784 75.9278 61.0787 72.9848 59.3813L46.476 44.0606C46.0824 43.8333 45.6356 43.714 45.1811 43.7148C44.7265 43.7157 44.2802 43.8366 43.8874 44.0653C43.4945 44.2941 43.1691 44.6225 42.944 45.0175C42.7189 45.4124 42.6022 45.8598 42.6055 46.3143Z" fill="black"/>
<path d="M105.55 120.095C105.328 119.966 105.107 119.853 104.889 119.752C104.719 114.551 101.091 108.403 96.656 105.839C95.1602 104.972 93.7571 104.629 92.5476 104.734C90.8543 99.2425 86.9636 93.8481 82.4319 91.2193C76.6504 87.881 71.909 90.288 71.4494 96.5614C71.1712 96.3679 70.889 96.1865 70.6068 96.0212C66.2162 93.4892 62.6602 95.5414 62.6602 100.609C62.6602 105.677 66.2162 111.842 70.6068 114.374L105.562 134.557C109.025 136.573 111.832 134.936 111.832 130.928C111.832 126.921 109.013 122.074 105.55 120.095Z" fill="#407BFF"/>
<path opacity="0.4" d="M105.55 120.095C105.328 119.966 105.107 119.853 104.889 119.752C104.719 114.551 101.091 108.403 96.656 105.839C95.1602 104.972 93.7571 104.629 92.5476 104.734C90.8543 99.2425 86.9636 93.8481 82.4319 91.2193C76.6504 87.881 71.909 90.288 71.4494 96.5614C71.1712 96.3679 70.889 96.1865 70.6068 96.0212C66.2162 93.4892 62.6602 95.5414 62.6602 100.609C62.6602 105.677 66.2162 111.842 70.6068 114.374L105.562 134.557C109.025 136.573 111.832 134.936 111.832 130.928C111.832 126.921 109.013 122.074 105.55 120.095Z" fill="white"/>
<path d="M75.7676 119.621L84.0045 134.639L92.8058 129.305L89.3264 127.342V112.477L79.9485 107.074V122.06L75.7676 119.621Z" fill="white"/>
<path d="M52.0723 24.7109C43.2938 24.7108 34.7431 27.5052 27.6589 32.6895C20.5748 37.8738 15.3249 45.1787 12.6699 53.5461L9.33563 51.627C9.23792 51.5697 9.12721 51.5384 9.014 51.5359C8.90079 51.5334 8.78882 51.5599 8.6887 51.6128C8.58857 51.6657 8.5036 51.7432 8.44184 51.8381C8.38007 51.9331 8.34356 52.0422 8.33575 52.1551C7.72996 58.6177 8.66253 65.1319 11.0572 71.1649C12.2348 74.1592 13.8282 76.9728 15.7905 79.5227C15.8533 79.602 15.9359 79.6634 16.0299 79.7007C16.124 79.738 16.2262 79.7499 16.3262 79.7352C16.4263 79.7205 16.5208 79.6797 16.6001 79.6169C16.6795 79.5541 16.7409 79.4716 16.7783 79.3776C18.2313 75.7332 20.2356 72.3338 22.7211 69.2982C24.3286 67.3032 26.1362 65.4781 28.1156 63.8513C28.2267 63.7606 28.3141 63.6443 28.3702 63.5123C28.4263 63.3803 28.4493 63.2366 28.4374 63.0937C28.4255 62.9508 28.379 62.8129 28.3018 62.692C28.2247 62.5711 28.1192 62.4708 27.9946 62.3998L23.9951 60.0896C26.127 52.3862 30.7864 45.6229 37.2249 40.8864C43.6634 36.15 51.5071 33.7152 59.496 33.9734C67.4848 34.2316 75.155 37.1677 81.2742 42.31C87.3935 47.4522 91.6065 54.5022 93.2365 62.3273C92.3077 52.0509 87.5692 42.4934 79.9522 35.533C72.3352 28.5725 62.3905 24.7123 52.0723 24.7109Z" fill="#407BFF"/>
<path opacity="0.4" d="M52.0723 24.7109C43.2938 24.7108 34.7431 27.5052 27.6589 32.6895C20.5748 37.8738 15.3249 45.1787 12.6699 53.5461L9.33563 51.627C9.23792 51.5697 9.12721 51.5384 9.014 51.5359C8.90079 51.5334 8.78882 51.5599 8.6887 51.6128C8.58857 51.6657 8.5036 51.7432 8.44184 51.8381C8.38007 51.9331 8.34356 52.0422 8.33575 52.1551C7.72996 58.6177 8.66253 65.1319 11.0572 71.1649C12.2348 74.1592 13.8282 76.9728 15.7905 79.5227C15.8533 79.602 15.9359 79.6634 16.0299 79.7007C16.124 79.738 16.2262 79.7499 16.3262 79.7352C16.4263 79.7205 16.5208 79.6797 16.6001 79.6169C16.6795 79.5541 16.7409 79.4716 16.7783 79.3776C18.2313 75.7332 20.2356 72.3338 22.7211 69.2982C24.3286 67.3032 26.1362 65.4781 28.1156 63.8513C28.2267 63.7606 28.3141 63.6443 28.3702 63.5123C28.4263 63.3803 28.4493 63.2366 28.4374 63.0937C28.4255 62.9508 28.379 62.8129 28.3018 62.692C28.2247 62.5711 28.1192 62.4708 27.9946 62.3998L23.9951 60.0896C26.127 52.3862 30.7864 45.6229 37.2249 40.8864C43.6634 36.15 51.5071 33.7152 59.496 33.9734C67.4848 34.2316 75.155 37.1677 81.2742 42.31C87.3935 47.4522 91.6065 54.5022 93.2365 62.3273C92.3077 52.0509 87.5692 42.4934 79.9522 35.533C72.3352 28.5725 62.3905 24.7123 52.0723 24.7109Z" fill="white"/>
<path d="M131.556 33.2738C136.103 30.6486 136.104 22.1361 131.557 14.2606C127.01 6.38522 119.638 2.12911 115.091 4.75437C110.544 7.37963 110.543 15.8921 115.09 23.7675C119.637 31.643 127.009 35.8991 131.556 33.2738Z" fill="#407BFF"/>
<path opacity="0.2" d="M131.556 33.2738C136.103 30.6486 136.104 22.1361 131.557 14.2606C127.01 6.38522 119.638 2.12911 115.091 4.75437C110.544 7.37963 110.543 15.8921 115.09 23.7675C119.637 31.643 127.009 35.8991 131.556 33.2738Z" fill="black"/>
<path d="M130.873 33.6683C135.42 31.0431 135.42 22.5306 130.873 14.6552C126.326 6.77975 118.954 2.52364 114.407 5.1489C109.86 7.77415 109.86 16.2866 114.407 24.1621C118.954 32.0375 126.326 36.2936 130.873 33.6683Z" fill="#407BFF"/>
<path d="M118.023 23.3329L126.986 28.5339C127.095 28.5978 127.219 28.6318 127.346 28.6324C127.472 28.6329 127.596 28.6 127.706 28.5369C127.816 28.4739 127.907 28.383 127.97 28.2734C128.033 28.1638 128.067 28.0395 128.066 27.913V16.8256C128.064 16.5481 127.988 16.276 127.847 16.0373C127.705 15.7986 127.503 15.6018 127.26 15.4669L118.297 10.2821C118.188 10.2181 118.064 10.1841 117.938 10.1836C117.811 10.1831 117.687 10.216 117.577 10.279C117.467 10.342 117.376 10.433 117.313 10.5425C117.25 10.6521 117.216 10.7765 117.217 10.903V21.9903C117.222 22.2651 117.299 22.5338 117.44 22.7695C117.582 23.0051 117.783 23.1994 118.023 23.3329Z" fill="#407BFF"/>
<path opacity="0.6" d="M118.023 23.3329L126.986 28.5339C127.095 28.5978 127.219 28.6318 127.346 28.6324C127.472 28.6329 127.596 28.6 127.706 28.5369C127.816 28.4739 127.907 28.383 127.97 28.2734C128.033 28.1638 128.067 28.0395 128.066 27.913V16.8256C128.064 16.5481 127.988 16.276 127.847 16.0373C127.705 15.7986 127.503 15.6018 127.26 15.4669L118.297 10.2821C118.188 10.2181 118.064 10.1841 117.938 10.1836C117.811 10.1831 117.687 10.216 117.577 10.279C117.467 10.342 117.376 10.433 117.313 10.5425C117.25 10.6521 117.216 10.7765 117.217 10.903V21.9903C117.222 22.2651 117.299 22.5338 117.44 22.7695C117.582 23.0051 117.783 23.1994 118.023 23.3329Z" fill="white"/>
<path d="M118.922 21.7209L126.127 25.8615C126.215 25.9136 126.316 25.9409 126.418 25.9408C126.521 25.9406 126.621 25.9129 126.71 25.8606C126.798 25.8083 126.87 25.7332 126.919 25.6433C126.969 25.5534 126.993 25.4519 126.99 25.3495V17.0441C126.989 16.8234 126.931 16.6066 126.821 16.4156C126.71 16.2245 126.552 16.0658 126.361 15.9555L119.156 11.7987C119.068 11.7486 118.969 11.7224 118.868 11.7227C118.767 11.7229 118.668 11.7497 118.581 11.8004C118.493 11.851 118.421 11.9236 118.37 12.0111C118.32 12.0985 118.293 12.1977 118.293 12.2987V20.6162C118.29 20.8396 118.347 21.0597 118.458 21.2538C118.568 21.448 118.729 21.6092 118.922 21.7209Z" fill="#407BFF"/>
<path opacity="0.4" d="M126.99 17.0431V25.3486C126.991 25.45 126.965 25.5499 126.915 25.6381C126.865 25.7263 126.792 25.7996 126.704 25.8504C126.616 25.9013 126.517 25.9279 126.415 25.9276C126.314 25.9272 126.214 25.9 126.127 25.8485L118.922 21.72C118.731 21.6109 118.572 21.4531 118.461 21.2626C118.351 21.0721 118.293 20.8557 118.293 20.6354V12.2978C118.292 12.1963 118.318 12.0964 118.368 12.0082C118.418 11.92 118.491 11.8468 118.578 11.7959C118.666 11.745 118.766 11.7184 118.867 11.7188C118.969 11.7191 119.068 11.7464 119.156 11.7978L126.361 15.9586C126.552 16.0676 126.711 16.2255 126.821 16.416C126.932 16.6065 126.99 16.8229 126.99 17.0431Z" fill="white"/>
<path d="M126.989 25.0527V25.347C126.991 25.4485 126.965 25.5484 126.915 25.6366C126.864 25.7248 126.792 25.798 126.704 25.8489C126.616 25.8997 126.517 25.9264 126.415 25.926C126.314 25.9257 126.214 25.8984 126.127 25.847L118.922 21.7184C118.731 21.6094 118.572 21.4516 118.461 21.2611C118.351 21.0705 118.293 20.8541 118.293 20.6339V19.8275L120.18 18.2148L122.405 21.3838L124.578 18.7994L126.989 25.0527Z" fill="#FAFAFA"/>
<path d="M120.777 15.7211C120.796 16.0575 120.893 16.3849 121.061 16.6769C121.229 16.9689 121.463 17.2174 121.745 17.4023C122.281 17.7128 122.717 17.4628 122.717 16.8419C122.698 16.5052 122.6 16.1776 122.431 15.8855C122.262 15.5935 122.027 15.3452 121.745 15.1607C121.213 14.8664 120.777 15.1042 120.777 15.7211Z" fill="#FAFAFA"/>
<path d="M151.736 74.6683C156.283 72.0431 156.283 63.5306 151.736 55.6552C147.19 47.7798 139.817 43.5236 135.27 46.1489C130.723 48.7742 130.723 57.2866 135.27 65.1621C139.817 73.0375 147.189 77.2936 151.736 74.6683Z" fill="#407BFF"/>
<path opacity="0.2" d="M151.736 74.6683C156.283 72.0431 156.283 63.5306 151.736 55.6552C147.19 47.7798 139.817 43.5236 135.27 46.1489C130.723 48.7742 130.723 57.2866 135.27 65.1621C139.817 73.0375 147.189 77.2936 151.736 74.6683Z" fill="black"/>
<path d="M151.052 75.0668C155.6 72.4415 155.6 63.929 151.053 56.0536C146.506 48.1782 139.134 43.9221 134.587 46.5473C130.04 49.1726 130.039 57.6851 134.586 65.5605C139.133 73.4359 146.505 77.692 151.052 75.0668Z" fill="#407BFF"/>
<path d="M138.477 51.6737C138.367 51.6108 138.243 51.5779 138.117 51.5781C137.99 51.5784 137.866 51.6118 137.757 51.6751C137.647 51.7384 137.557 51.8293 137.493 51.9387C137.43 52.0481 137.397 52.1722 137.396 52.2986V63.3859C137.396 63.661 137.469 63.9311 137.607 64.169C137.745 64.4069 137.944 64.6041 138.183 64.7406L147.165 69.9295C147.276 69.9984 147.403 70.0359 147.534 70.0379C147.664 70.04 147.793 70.0064 147.905 69.9409C148.018 69.8754 148.111 69.7805 148.174 69.6662C148.237 69.552 148.267 69.4227 148.262 69.2924V61.0636L145.843 55.907L138.477 51.6737Z" fill="#407BFF"/>
<path opacity="0.6" d="M138.477 51.6737C138.367 51.6108 138.243 51.5779 138.117 51.5781C137.99 51.5784 137.866 51.6118 137.757 51.6751C137.647 51.7384 137.557 51.8293 137.493 51.9387C137.43 52.0481 137.397 52.1722 137.396 52.2986V63.3859C137.396 63.661 137.469 63.9311 137.607 64.169C137.745 64.4069 137.944 64.6041 138.183 64.7406L147.165 69.9295C147.276 69.9984 147.403 70.0359 147.534 70.0379C147.664 70.04 147.793 70.0064 147.905 69.9409C148.018 69.8754 148.111 69.7805 148.174 69.6662C148.237 69.552 148.267 69.4227 148.262 69.2924V61.0636L145.843 55.907L138.477 51.6737Z" fill="white"/>
<path d="M145.492 57.797L145.806 55.9102L148.225 61.0708L146.028 59.2605C145.818 59.085 145.658 58.8574 145.564 58.6005C145.47 58.3437 145.445 58.0666 145.492 57.797Z" fill="#407BFF"/>
<path opacity="0.4" d="M145.492 57.797L145.806 55.9102L148.225 61.0708L146.028 59.2605C145.818 59.085 145.658 58.8574 145.564 58.6005C145.47 58.3437 145.445 58.0666 145.492 57.797Z" fill="white"/>
<path d="M146.366 62.1235C146.322 62.1229 146.279 62.1103 146.241 62.0872L139.149 58.003C139.093 57.9695 139.052 57.9152 139.036 57.8518C139.019 57.7885 139.028 57.7212 139.06 57.6644C139.093 57.6085 139.147 57.5678 139.209 57.5512C139.272 57.5346 139.339 57.5434 139.395 57.5757L146.491 61.6679C146.547 61.7015 146.588 61.7558 146.604 61.8191C146.621 61.8825 146.612 61.9498 146.58 62.0066C146.557 62.0432 146.526 62.0734 146.489 62.0939C146.451 62.1144 146.409 62.1247 146.366 62.1235Z" fill="#FAFAFA"/>
<path d="M146.366 64.53C146.322 64.5289 146.28 64.5179 146.241 64.4978L139.149 60.4015C139.093 60.3679 139.052 60.3136 139.036 60.2503C139.019 60.1869 139.028 60.1196 139.06 60.0628C139.093 60.0069 139.147 59.9662 139.209 59.9496C139.272 59.933 139.339 59.9418 139.395 59.9741L146.491 64.0543C146.547 64.0879 146.588 64.1421 146.604 64.2055C146.621 64.2688 146.612 64.3361 146.58 64.3929C146.56 64.4333 146.53 64.4675 146.492 64.4918C146.454 64.516 146.411 64.5292 146.366 64.53Z" fill="#FAFAFA"/>
<path d="M146.366 66.9324C146.322 66.9313 146.28 66.9202 146.241 66.9001L139.149 62.8038C139.093 62.7702 139.052 62.7159 139.036 62.6526C139.019 62.5893 139.028 62.522 139.06 62.4652C139.093 62.4093 139.147 62.3686 139.209 62.352C139.272 62.3353 139.339 62.3442 139.395 62.3765L146.491 66.4727C146.538 66.4997 146.575 66.5417 146.596 66.5921C146.617 66.6424 146.621 66.6983 146.606 66.751C146.592 66.8036 146.561 66.85 146.517 66.8828C146.474 66.9157 146.42 66.9331 146.366 66.9324Z" fill="#FAFAFA"/>
<path d="M109.61 50.7211C114.178 48.0958 114.195 39.5541 109.648 31.6425C105.101 23.7309 97.712 19.4455 93.144 22.0708C88.5761 24.696 88.559 33.2378 93.1059 41.1494C97.6528 49.061 105.042 53.3464 109.61 50.7211Z" fill="#407BFF"/>
<path opacity="0.2" d="M109.61 50.7211C114.178 48.0958 114.195 39.5541 109.648 31.6425C105.101 23.7309 97.712 19.4455 93.144 22.0708C88.5761 24.696 88.559 33.2378 93.1059 41.1494C97.6528 49.061 105.042 53.3464 109.61 50.7211Z" fill="black"/>
<path d="M108.443 50.8832C112.99 48.2579 112.99 39.7454 108.443 31.87C103.897 23.9946 96.5244 19.7385 91.9774 22.3637C87.4303 24.989 87.4301 33.5015 91.977 41.3769C96.5239 49.2523 103.896 53.5084 108.443 50.8832Z" fill="#407BFF"/>
<path d="M95.5698 40.5654L104.553 45.7503C104.662 45.8142 104.786 45.8482 104.912 45.8488C105.039 45.8493 105.163 45.8164 105.273 45.7533C105.383 45.6903 105.474 45.5994 105.537 45.4898C105.6 45.3802 105.633 45.2559 105.633 45.1294V34.042C105.633 33.7665 105.56 33.4958 105.422 33.2572C105.284 33.0187 105.086 32.8208 104.847 32.6833L95.848 27.4985C95.7389 27.4355 95.6152 27.4024 95.4893 27.4023C95.3634 27.4023 95.2397 27.4354 95.1306 27.4983C95.0215 27.5613 94.9309 27.6518 94.8679 27.7608C94.8048 27.8698 94.7716 27.9935 94.7715 28.1194V39.2067C94.7732 39.4834 94.848 39.7547 94.9881 39.9933C95.1283 40.2319 95.3289 40.4292 95.5698 40.5654Z" fill="#407BFF"/>
<path opacity="0.6" d="M95.5698 40.5654L104.553 45.7503C104.662 45.8142 104.786 45.8482 104.912 45.8488C105.039 45.8493 105.163 45.8164 105.273 45.7533C105.383 45.6903 105.474 45.5994 105.537 45.4898C105.6 45.3802 105.633 45.2559 105.633 45.1294V34.042C105.633 33.7665 105.56 33.4958 105.422 33.2572C105.284 33.0187 105.086 32.8208 104.847 32.6833L95.848 27.4985C95.7389 27.4355 95.6152 27.4024 95.4893 27.4023C95.3634 27.4023 95.2397 27.4354 95.1306 27.4983C95.0215 27.5613 94.9309 27.6518 94.8679 27.7608C94.8048 27.8698 94.7716 27.9935 94.7715 28.1194V39.2067C94.7732 39.4834 94.848 39.7547 94.9881 39.9933C95.1283 40.2319 95.3289 40.4292 95.5698 40.5654Z" fill="white"/>
<path d="M98.0176 34.7476V38.5092C98.0176 38.6578 98.0766 38.8004 98.1817 38.9055C98.2868 39.0106 98.4294 39.0696 98.578 39.0696H101.84C101.947 39.0696 102.052 39.0387 102.143 38.9806C102.233 38.9225 102.305 38.8396 102.349 38.7419C102.394 38.6443 102.409 38.5358 102.394 38.4295C102.379 38.3232 102.333 38.2235 102.263 38.1423L99.0013 34.3807C98.9265 34.2944 98.8271 34.2331 98.7164 34.2049C98.6058 34.1767 98.4892 34.1829 98.3822 34.2228C98.2752 34.2627 98.1829 34.3344 98.1178 34.4282C98.0526 34.5219 98.0176 34.6334 98.0176 34.7476Z" fill="#FAFAFA"/>
<path d="M123.325 35.2329C123.249 35.2329 123.177 35.2028 123.123 35.1491C123.069 35.0954 123.039 35.0226 123.039 34.9467V34.1847C123.039 34.1088 123.069 34.036 123.123 33.9823C123.177 33.9286 123.249 33.8984 123.325 33.8984C123.363 33.8984 123.4 33.9059 123.434 33.9203C123.469 33.9347 123.5 33.9559 123.526 33.9825C123.553 34.0092 123.573 34.0407 123.587 34.0755C123.601 34.1102 123.608 34.1473 123.608 34.1847V34.9467C123.608 34.9841 123.601 35.0212 123.587 35.0559C123.573 35.0906 123.553 35.1222 123.526 35.1489C123.5 35.1755 123.469 35.1967 123.434 35.2111C123.4 35.2255 123.363 35.233 123.325 35.2329Z" fill="#407BFF"/>
<path d="M123.325 77.8801C123.249 77.8801 123.177 77.8499 123.123 77.7962C123.069 77.7425 123.039 77.6697 123.039 77.5938V76.0698C123.039 75.9939 123.069 75.9211 123.123 75.8674C123.177 75.8137 123.249 75.7835 123.325 75.7835C123.363 75.7835 123.4 75.791 123.434 75.8054C123.469 75.8198 123.5 75.841 123.526 75.8676C123.553 75.8943 123.573 75.9258 123.587 75.9606C123.601 75.9953 123.608 76.0324 123.608 76.0698V77.5938C123.608 77.6312 123.601 77.6683 123.587 77.703C123.573 77.7378 123.553 77.7693 123.526 77.796C123.5 77.8226 123.469 77.8438 123.434 77.8582C123.4 77.8726 123.363 77.8801 123.325 77.8801ZM123.325 74.8321C123.249 74.8321 123.177 74.8019 123.123 74.7482C123.069 74.6945 123.039 74.6217 123.039 74.5458V73.0258C123.039 72.9499 123.069 72.8771 123.123 72.8234C123.177 72.7697 123.249 72.7396 123.325 72.7396C123.363 72.7396 123.4 72.747 123.434 72.7614C123.469 72.7759 123.5 72.797 123.526 72.8236C123.553 72.8503 123.573 72.8819 123.587 72.9166C123.601 72.9513 123.608 72.9884 123.608 73.0258V74.5337C123.61 74.5721 123.604 74.6105 123.591 74.6467C123.578 74.6828 123.557 74.7158 123.531 74.7438C123.504 74.7717 123.473 74.794 123.437 74.8091C123.402 74.8243 123.364 74.8321 123.325 74.8321ZM123.325 71.7881C123.249 71.7881 123.177 71.7579 123.123 71.7042C123.069 71.6505 123.039 71.5777 123.039 71.5018V69.9778C123.039 69.9019 123.069 69.8291 123.123 69.7754C123.177 69.7217 123.249 69.6916 123.325 69.6916C123.363 69.6916 123.4 69.699 123.434 69.7134C123.469 69.7278 123.5 69.749 123.526 69.7756C123.553 69.8023 123.573 69.8339 123.587 69.8686C123.601 69.9033 123.608 69.9404 123.608 69.9778V71.5018C123.608 71.5392 123.601 71.5763 123.587 71.6111C123.573 71.6458 123.553 71.6773 123.526 71.704C123.5 71.7306 123.469 71.7518 123.434 71.7662C123.4 71.7806 123.363 71.7881 123.325 71.7881ZM123.325 68.7401C123.249 68.7401 123.177 68.7099 123.123 68.6562C123.069 68.6025 123.039 68.5297 123.039 68.4538V66.9298C123.039 66.8924 123.046 66.8554 123.061 66.8209C123.075 66.7864 123.097 66.7551 123.123 66.7288C123.15 66.7025 123.181 66.6818 123.216 66.6679C123.251 66.6539 123.288 66.647 123.325 66.6476C123.4 66.6476 123.472 66.6773 123.525 66.7302C123.578 66.7832 123.608 66.8549 123.608 66.9298V68.4538C123.608 68.4912 123.601 68.5283 123.587 68.563C123.573 68.5978 123.553 68.6293 123.526 68.656C123.5 68.6826 123.469 68.7038 123.434 68.7182C123.4 68.7326 123.363 68.7401 123.325 68.7401ZM123.325 65.6961C123.249 65.6961 123.177 65.6659 123.123 65.6122C123.069 65.5586 123.039 65.4857 123.039 65.4098V63.8858C123.039 63.8099 123.069 63.7371 123.123 63.6834C123.177 63.6297 123.249 63.5996 123.325 63.5996C123.363 63.5996 123.4 63.607 123.434 63.6214C123.469 63.6359 123.5 63.657 123.526 63.6836C123.553 63.7103 123.573 63.7419 123.587 63.7766C123.601 63.8113 123.608 63.8484 123.608 63.8858V65.4098C123.608 65.4472 123.601 65.4844 123.587 65.5191C123.573 65.5538 123.553 65.5854 123.526 65.612C123.5 65.6386 123.469 65.6598 123.434 65.6742C123.4 65.6887 123.363 65.6961 123.325 65.6961ZM123.325 62.6481C123.249 62.6481 123.177 62.6179 123.123 62.5642C123.069 62.5105 123.039 62.4377 123.039 62.3618V60.8257C123.039 60.7498 123.069 60.677 123.123 60.6233C123.177 60.5696 123.249 60.5395 123.325 60.5395C123.363 60.5395 123.4 60.5469 123.434 60.5613C123.469 60.5758 123.5 60.5969 123.526 60.6235C123.553 60.6502 123.573 60.6818 123.587 60.7165C123.601 60.7512 123.608 60.7883 123.608 60.8257V62.3497C123.61 62.3881 123.604 62.4266 123.591 62.4627C123.578 62.4988 123.557 62.5318 123.531 62.5598C123.504 62.5877 123.473 62.61 123.437 62.6252C123.402 62.6403 123.364 62.6481 123.325 62.6481ZM123.325 59.6001C123.288 59.6006 123.251 59.5937 123.216 59.5797C123.181 59.5658 123.15 59.5451 123.123 59.5188C123.097 59.4926 123.075 59.4613 123.061 59.4268C123.046 59.3923 123.039 59.3552 123.039 59.3178V57.7938C123.039 57.7179 123.069 57.6451 123.123 57.5914C123.177 57.5377 123.249 57.5076 123.325 57.5076C123.363 57.5076 123.4 57.515 123.434 57.5294C123.469 57.5439 123.5 57.565 123.526 57.5917C123.553 57.6183 123.573 57.6499 123.587 57.6846C123.601 57.7193 123.608 57.7564 123.608 57.7938V59.3178C123.61 59.3562 123.604 59.3947 123.591 59.4308C123.578 59.4669 123.557 59.5 123.531 59.5279C123.504 59.5558 123.473 59.5781 123.437 59.5933C123.402 59.6084 123.364 59.6162 123.325 59.6162V59.6001ZM123.325 56.5561C123.249 56.5561 123.177 56.5259 123.123 56.4722C123.069 56.4186 123.039 56.3457 123.039 56.2698V54.7458C123.039 54.6699 123.069 54.5971 123.123 54.5434C123.177 54.4897 123.249 54.4596 123.325 54.4596C123.363 54.4596 123.4 54.467 123.434 54.4814C123.469 54.4959 123.5 54.517 123.526 54.5436C123.553 54.5703 123.573 54.6019 123.587 54.6366C123.601 54.6713 123.608 54.7084 123.608 54.7458V56.2698C123.608 56.3072 123.601 56.3444 123.587 56.3791C123.573 56.4138 123.553 56.4454 123.526 56.472C123.5 56.4986 123.469 56.5198 123.434 56.5342C123.4 56.5487 123.363 56.5561 123.325 56.5561ZM123.325 53.5081C123.288 53.5081 123.251 53.5007 123.216 53.4863C123.181 53.4719 123.149 53.4508 123.123 53.4242C123.096 53.3976 123.075 53.3661 123.061 53.3314C123.046 53.2966 123.039 53.2594 123.039 53.2218V51.7018C123.039 51.6259 123.069 51.5531 123.123 51.4994C123.177 51.4457 123.249 51.4156 123.325 51.4156C123.363 51.4156 123.4 51.423 123.434 51.4374C123.469 51.4519 123.5 51.473 123.526 51.4997C123.553 51.5263 123.573 51.5579 123.587 51.5926C123.601 51.6273 123.608 51.6644 123.608 51.7018V53.2218C123.608 53.2592 123.601 53.2963 123.587 53.3311C123.573 53.3658 123.553 53.3974 123.526 53.424C123.5 53.4506 123.469 53.4718 123.434 53.4862C123.4 53.5006 123.363 53.5081 123.325 53.5081ZM123.325 50.4641C123.249 50.4641 123.177 50.4339 123.123 50.3802C123.069 50.3266 123.039 50.2538 123.039 50.1778V48.6538C123.039 48.5779 123.069 48.5051 123.123 48.4514C123.177 48.3977 123.249 48.3676 123.325 48.3676C123.363 48.3676 123.4 48.375 123.434 48.3894C123.469 48.4039 123.5 48.425 123.526 48.4517C123.553 48.4783 123.573 48.5099 123.587 48.5446C123.601 48.5793 123.608 48.6164 123.608 48.6538V50.1778C123.608 50.2152 123.601 50.2524 123.587 50.2871C123.573 50.3218 123.553 50.3534 123.526 50.38C123.5 50.4066 123.469 50.4278 123.434 50.4422C123.4 50.4567 123.363 50.4641 123.325 50.4641ZM123.325 47.4161C123.249 47.4161 123.177 47.3859 123.123 47.3322C123.069 47.2786 123.039 47.2057 123.039 47.1298V45.6058C123.039 45.5684 123.046 45.5314 123.061 45.4969C123.075 45.4624 123.097 45.4311 123.123 45.4048C123.15 45.3786 123.181 45.3579 123.216 45.3439C123.251 45.33 123.288 45.3231 123.325 45.3236C123.4 45.3236 123.472 45.3533 123.525 45.4063C123.578 45.4592 123.608 45.531 123.608 45.6058V47.1177C123.61 47.1561 123.604 47.1946 123.591 47.2307C123.578 47.2668 123.557 47.2999 123.531 47.3278C123.504 47.3557 123.473 47.378 123.437 47.3932C123.402 47.4083 123.364 47.4161 123.325 47.4161ZM123.325 44.3721C123.249 44.3721 123.177 44.3419 123.123 44.2883C123.069 44.2346 123.039 44.1618 123.039 44.0858V42.5618C123.039 42.4859 123.069 42.4131 123.123 42.3594C123.177 42.3057 123.249 42.2756 123.325 42.2756C123.363 42.2756 123.4 42.283 123.434 42.2974C123.469 42.3119 123.5 42.333 123.526 42.3597C123.553 42.3863 123.573 42.4179 123.587 42.4526C123.601 42.4873 123.608 42.5244 123.608 42.5618V44.0858C123.608 44.1232 123.601 44.1604 123.587 44.1951C123.573 44.2298 123.553 44.2614 123.526 44.288C123.5 44.3147 123.469 44.3358 123.434 44.3502C123.4 44.3647 123.363 44.3721 123.325 44.3721ZM123.325 41.3241C123.249 41.3241 123.177 41.2939 123.123 41.2402C123.069 41.1866 123.039 41.1138 123.039 41.0378V39.5138C123.039 39.4379 123.069 39.3651 123.123 39.3114C123.177 39.2577 123.249 39.2276 123.325 39.2276C123.363 39.2276 123.4 39.235 123.434 39.2494C123.469 39.2639 123.5 39.285 123.526 39.3117C123.553 39.3383 123.573 39.3699 123.587 39.4046C123.601 39.4393 123.608 39.4764 123.608 39.5138V41.0378C123.608 41.0752 123.601 41.1124 123.587 41.1471C123.573 41.1818 123.553 41.2134 123.526 41.24C123.5 41.2666 123.469 41.2878 123.434 41.3022C123.4 41.3167 123.363 41.3241 123.325 41.3241ZM123.325 38.2761C123.288 38.2766 123.251 38.2697 123.216 38.2558C123.181 38.2418 123.15 38.2211 123.123 38.1949C123.097 38.1686 123.075 38.1373 123.061 38.1028C123.046 38.0683 123.039 38.0313 123.039 37.9939V36.4698C123.039 36.3939 123.069 36.3211 123.123 36.2674C123.177 36.2138 123.249 36.1836 123.325 36.1836C123.363 36.1836 123.4 36.191 123.434 36.2055C123.469 36.2199 123.5 36.241 123.526 36.2677C123.553 36.2943 123.573 36.3259 123.587 36.3606C123.601 36.3953 123.608 36.4324 123.608 36.4698V37.9939C123.608 38.0309 123.6 38.0676 123.586 38.1019C123.572 38.1361 123.551 38.1672 123.525 38.1934C123.499 38.2196 123.468 38.2404 123.433 38.2546C123.399 38.2688 123.362 38.2761 123.325 38.2761Z" fill="#407BFF"/>
<path d="M123.325 80.182C123.288 80.1826 123.251 80.1757 123.216 80.1617C123.181 80.1478 123.15 80.1271 123.123 80.1008C123.097 80.0746 123.075 80.0433 123.061 80.0088C123.046 79.9743 123.039 79.9372 123.039 79.8998V79.1378C123.039 79.0619 123.069 78.9891 123.123 78.9354C123.177 78.8817 123.249 78.8516 123.325 78.8516C123.363 78.8516 123.4 78.859 123.434 78.8734C123.469 78.8879 123.5 78.909 123.526 78.9356C123.553 78.9623 123.573 78.9939 123.587 79.0286C123.601 79.0633 123.608 79.1004 123.608 79.1378V79.8998C123.608 79.9747 123.578 80.0465 123.525 80.0994C123.472 80.1523 123.4 80.182 123.325 80.182Z" fill="#407BFF"/>
<path d="M130.521 61.4284C130.468 61.4291 130.416 61.4147 130.371 61.3868C130.326 61.359 130.29 61.3189 130.267 61.2712C130.25 61.2377 130.24 61.201 130.237 61.1635C130.234 61.1259 130.239 61.0882 130.251 61.0525C130.263 61.0168 130.282 60.9839 130.307 60.9556C130.332 60.9274 130.362 60.9045 130.396 60.8882L131.078 60.5495C131.111 60.5328 131.147 60.5229 131.185 60.5202C131.222 60.5176 131.259 60.5223 131.295 60.5341C131.33 60.5459 131.363 60.5645 131.391 60.589C131.419 60.6134 131.442 60.6432 131.459 60.6765C131.475 60.7099 131.485 60.7462 131.488 60.7834C131.491 60.8206 131.486 60.8579 131.474 60.8933C131.462 60.9287 131.444 60.9614 131.419 60.9896C131.395 61.0178 131.365 61.0408 131.332 61.0575L130.65 61.4002C130.61 61.4195 130.566 61.4292 130.521 61.4284Z" fill="#407BFF"/>
<path d="M127.167 63.0972C127.114 63.0979 127.062 63.0835 127.017 63.0556C126.972 63.0278 126.936 62.9877 126.913 62.94C126.892 62.9056 126.879 62.8673 126.875 62.8275C126.87 62.7877 126.874 62.7474 126.886 62.7093C126.899 62.6712 126.919 62.6361 126.946 62.6063C126.972 62.5766 127.005 62.5529 127.042 62.5368L128.719 61.7023C128.754 61.6824 128.792 61.6699 128.832 61.6657C128.871 61.6614 128.911 61.6655 128.949 61.6777C128.987 61.6898 129.022 61.7098 129.052 61.7362C129.082 61.7627 129.106 61.795 129.122 61.8313C129.142 61.8658 129.155 61.9041 129.159 61.9437C129.163 61.9833 129.159 62.0234 129.147 62.0614C129.135 62.0993 129.115 62.1343 129.088 62.1641C129.062 62.1939 129.03 62.2179 128.993 62.2344L127.296 63.069C127.256 63.0884 127.212 63.098 127.167 63.0972Z" fill="#407BFF"/>
<path d="M124.81 64.2693C124.757 64.27 124.705 64.2555 124.66 64.2277C124.615 64.1998 124.579 64.1597 124.556 64.1121C124.535 64.0777 124.522 64.0393 124.517 63.9996C124.513 63.9598 124.517 63.9195 124.529 63.8814C124.541 63.8432 124.561 63.8081 124.588 63.7784C124.615 63.7487 124.648 63.725 124.685 63.7089L125.366 63.3702C125.4 63.3503 125.439 63.3379 125.478 63.3336C125.518 63.3294 125.558 63.3335 125.596 63.3457C125.634 63.3578 125.669 63.3777 125.699 63.4042C125.729 63.4306 125.753 63.463 125.769 63.4992C125.803 63.5672 125.808 63.6456 125.784 63.7174C125.76 63.7892 125.708 63.8485 125.64 63.8823L124.959 64.2209C124.914 64.2506 124.863 64.2674 124.81 64.2693Z" fill="#407BFF"/>
<path d="M114.252 43.6088C114.204 43.6092 114.156 43.5967 114.113 43.5727C114.071 43.5486 114.035 43.5138 114.011 43.4717L113.607 42.8186C113.586 42.7865 113.571 42.7502 113.563 42.712C113.556 42.6739 113.557 42.6346 113.566 42.5968C113.574 42.5589 113.591 42.5233 113.614 42.4921C113.637 42.4609 113.666 42.4348 113.7 42.4154C113.733 42.3949 113.769 42.3811 113.807 42.3749C113.845 42.3687 113.884 42.3701 113.922 42.3791C113.96 42.3881 113.995 42.4045 114.026 42.4274C114.057 42.4502 114.083 42.4791 114.103 42.5122L114.506 43.1653C114.533 43.2085 114.548 43.2582 114.549 43.3091C114.55 43.3599 114.537 43.4101 114.512 43.4543C114.487 43.4986 114.45 43.5351 114.406 43.5602C114.362 43.5853 114.311 43.5979 114.26 43.5967L114.252 43.6088Z" fill="#407BFF"/>
<path d="M120.512 53.9381C120.462 53.9383 120.414 53.9259 120.371 53.9018C120.328 53.8778 120.292 53.8431 120.266 53.801L119.484 52.5108C119.462 52.4788 119.447 52.4426 119.439 52.4046C119.432 52.3665 119.432 52.3274 119.441 52.2895C119.449 52.2516 119.464 52.2158 119.487 52.1842C119.509 52.1526 119.538 52.1259 119.571 52.1056C119.604 52.0854 119.641 52.0721 119.679 52.0666C119.718 52.061 119.757 52.0633 119.794 52.0733C119.832 52.0832 119.867 52.1007 119.897 52.1247C119.928 52.1486 119.953 52.1785 119.971 52.2125L120.754 53.5026C120.774 53.5353 120.788 53.5718 120.794 53.6099C120.8 53.648 120.799 53.687 120.79 53.7245C120.781 53.7621 120.765 53.7974 120.742 53.8286C120.719 53.8597 120.69 53.886 120.657 53.9058C120.612 53.9297 120.562 53.9409 120.512 53.9381ZM118.947 51.3577C118.898 51.358 118.85 51.3455 118.806 51.3215C118.763 51.2975 118.727 51.2627 118.701 51.2206L117.919 49.9305C117.899 49.8978 117.885 49.8613 117.879 49.8232C117.873 49.7851 117.874 49.7461 117.883 49.7086C117.892 49.671 117.908 49.6357 117.931 49.6045C117.954 49.5734 117.983 49.5471 118.016 49.5273C118.049 49.5062 118.085 49.492 118.123 49.4855C118.162 49.4789 118.201 49.4802 118.238 49.4893C118.276 49.4983 118.312 49.5149 118.343 49.5381C118.374 49.5613 118.4 49.5905 118.419 49.6241L119.201 50.9142C119.227 50.9577 119.24 51.0069 119.24 51.057C119.241 51.1072 119.228 51.1566 119.204 51.2005C119.179 51.2444 119.144 51.2812 119.101 51.3073C119.059 51.3334 119.01 51.348 118.96 51.3497L118.947 51.3577ZM117.383 48.7774C117.334 48.7765 117.285 48.7631 117.242 48.7384C117.199 48.7137 117.163 48.6786 117.137 48.6363L116.355 47.3461C116.324 47.282 116.319 47.2087 116.339 47.1407C116.36 47.0726 116.405 47.0146 116.466 46.9779C116.526 46.9412 116.599 46.9284 116.668 46.9421C116.738 46.9557 116.8 46.9949 116.843 47.0518L117.621 48.3299C117.643 48.362 117.658 48.3983 117.665 48.4364C117.672 48.4746 117.671 48.5138 117.663 48.5517C117.654 48.5895 117.637 48.6252 117.614 48.6564C117.591 48.6876 117.562 48.7137 117.528 48.733C117.484 48.7599 117.434 48.7752 117.383 48.7774ZM115.819 46.193C115.77 46.1929 115.721 46.1803 115.678 46.1563C115.635 46.1323 115.599 46.0978 115.573 46.056L114.791 44.7658C114.771 44.7335 114.759 44.6977 114.753 44.6605C114.748 44.6232 114.749 44.5853 114.759 44.5488C114.768 44.5123 114.784 44.4779 114.807 44.4477C114.829 44.4175 114.857 44.392 114.889 44.3727C114.922 44.3534 114.958 44.3406 114.995 44.3351C115.032 44.3296 115.07 44.3315 115.106 44.3407C115.143 44.3498 115.177 44.3661 115.208 44.3886C115.238 44.411 115.263 44.4392 115.283 44.4715L116.065 45.7616C116.092 45.8048 116.106 45.8545 116.107 45.9054C116.108 45.9563 116.096 46.0065 116.07 46.0507C116.045 46.0949 116.008 46.1314 115.964 46.1565C115.92 46.1816 115.87 46.1942 115.819 46.193Z" fill="#407BFF"/>
<path d="M121.684 55.8818C121.635 55.8814 121.587 55.8681 121.544 55.8434C121.502 55.8187 121.467 55.7833 121.442 55.7407L121.039 55.0916C121.004 55.0271 120.995 54.9515 121.014 54.8804C121.033 54.8094 121.078 54.7484 121.141 54.71C121.204 54.6717 121.279 54.6589 121.35 54.6744C121.422 54.6899 121.486 54.7325 121.527 54.7933L121.93 55.4464C121.952 55.4788 121.966 55.5153 121.973 55.5536C121.98 55.592 121.979 55.6313 121.97 55.6692C121.961 55.707 121.944 55.7426 121.92 55.7737C121.897 55.8047 121.867 55.8306 121.833 55.8496C121.787 55.8738 121.736 55.885 121.684 55.8818Z" fill="#407BFF"/>
</svg>
