<svg width="454" height="170" viewBox="0 0 454 170" fill="none" xmlns="http://www.w3.org/2000/svg">
<rect width="454" height="170" rx="8" fill="#EDF3FA"/>
<path d="M194.726 149.818L193.401 149.059C193.181 148.916 192.997 148.723 192.866 148.495C192.734 148.268 192.657 148.013 192.643 147.75V49.6351C192.657 49.3725 192.733 49.1171 192.865 48.8896C192.997 48.6621 193.181 48.469 193.401 48.326L254.266 13.1849C254.501 13.0646 254.761 13.002 255.025 13.002C255.288 13.002 255.549 13.0646 255.783 13.1849L257.108 13.9438C257.328 14.087 257.512 14.2802 257.644 14.5076C257.776 14.7351 257.852 14.9904 257.867 15.2529V113.368C257.853 113.631 257.776 113.886 257.644 114.114C257.513 114.341 257.329 114.534 257.108 114.677L196.236 149.818C196.002 149.938 195.743 150 195.481 150C195.218 150 194.96 149.938 194.726 149.818Z" fill="#203864"/>
<path opacity="0.4" d="M257.841 15.1342C257.791 14.7548 257.461 14.5992 257.082 14.8193L196.237 49.9604C196.015 50.1006 195.831 50.2935 195.702 50.522L192.863 48.8866C192.993 48.6581 193.176 48.4651 193.398 48.325L254.266 13.1839C254.501 13.063 254.761 13 255.025 13C255.289 13 255.549 13.063 255.784 13.1839L257.112 13.9428C257.312 14.0775 257.48 14.2537 257.606 14.4593C257.732 14.6648 257.812 14.895 257.841 15.1342Z" fill="white"/>
<path opacity="0.15" d="M196.105 149.878C196.09 149.881 196.074 149.881 196.059 149.878L195.983 149.904H195.953C195.907 149.904 195.862 149.927 195.812 149.938C195.512 149.995 195.201 149.97 194.913 149.866C194.856 149.845 194.8 149.819 194.746 149.79L193.418 149.032C193.198 148.888 193.015 148.694 192.883 148.467C192.752 148.24 192.675 147.985 192.659 147.722V49.6339C192.668 49.3665 192.744 49.1055 192.879 48.875L195.718 50.5104C195.577 50.7392 195.5 51.001 195.494 51.2694V149.384C195.485 149.527 195.527 149.668 195.611 149.783C195.658 149.842 195.721 149.885 195.793 149.908C195.864 149.931 195.941 149.933 196.014 149.912C196.045 149.903 196.075 149.892 196.105 149.878Z" fill="black"/>
<path d="M238.842 31.2506L238.732 31.1823L237.476 30.4613C237.02 30.2067 236.523 30.0309 236.008 29.9415C235.792 29.8922 235.598 29.8352 235.427 29.7783C235.238 29.7163 235.053 29.6415 234.873 29.5544L234.964 29.4368L233.553 28.6134C233.434 28.5469 233.306 28.4972 233.173 28.4654C232.638 28.3326 231.838 28.6438 231.041 28.5527C230.751 28.5243 230.471 28.4325 230.22 28.2836C229.97 28.1347 229.755 27.9325 229.591 27.6913C229.106 27.0387 228.814 25.8965 228.385 24.9479L228.764 24.3977C228.726 24.3739 228.687 24.3524 228.647 24.3332L227.345 23.5743C227.125 23.4449 226.875 23.3768 226.62 23.377C226.134 23.4026 225.663 23.5557 225.254 23.8209C222.139 25.6233 222.033 29.8922 220.91 32.7077C219.786 35.5232 218.196 36.3998 217.331 37.6102C216.466 38.8207 216.405 39.7162 214.489 42.3572C212.573 44.9982 212.497 45.6432 212.497 46.1517V50.0866L213.916 50.9062L239.423 36.1721L238.842 31.2506ZM215.453 46.4287C215.123 46.6146 214.85 46.3604 214.85 45.8481C214.847 45.6032 214.899 45.3607 215.004 45.1391C215.108 44.9175 215.262 44.7227 215.453 44.5694C215.783 44.3797 216.053 44.6415 216.053 45.1537C216.055 45.3966 216.003 45.637 215.899 45.8565C215.795 46.0761 215.643 46.2692 215.453 46.4211V46.4287ZM226.658 35.3828C226.497 35.5001 226.312 35.5784 226.115 35.6114C225.919 35.6445 225.718 35.6314 225.528 35.5732C225.337 35.5151 225.163 35.4134 225.019 35.2763C224.875 35.1392 224.764 34.9704 224.696 34.7833C223.706 34.973 222.97 34.0244 222.97 32.3776C222.97 30.4424 223.991 28.2909 225.247 27.5623C225.408 27.4451 225.594 27.367 225.79 27.3342C225.987 27.3014 226.188 27.3148 226.378 27.3734C226.569 27.4319 226.743 27.534 226.887 27.6715C227.031 27.809 227.141 27.9782 227.208 28.1656C228.199 27.9683 228.931 28.9246 228.931 30.5676C228.931 32.4952 227.918 34.6467 226.658 35.3752V35.3828ZM235.131 35.0641C234.797 35.2576 234.528 34.9996 234.528 34.4873C234.522 34.2419 234.573 33.9985 234.678 33.7764C234.783 33.5544 234.938 33.3599 235.131 33.2086C235.465 33.015 235.735 33.2731 235.735 33.7853C235.739 34.0294 235.687 34.2713 235.583 34.4919C235.478 34.7124 235.323 34.9057 235.131 35.0565V35.0641Z" fill="#455A64"/>
<path opacity="0.5" d="M215.34 47.1214L212.597 45.5391C212.535 45.7366 212.504 45.9428 212.506 46.15V50.0849L213.925 50.9045L215.34 50.0849V47.1214Z" fill="#37474F"/>
<path opacity="0.5" d="M218.16 42.2124L219.58 38.9377L217.326 37.6172C216.665 38.5317 216.472 39.2716 215.584 40.7249L218.16 42.2124Z" fill="#37474F"/>
<path opacity="0.5" d="M223.831 35.6659L224.013 34.7097C223.387 34.4479 222.97 33.6017 222.97 32.3685C222.97 30.7254 223.706 28.9306 224.696 27.9782L222.731 26.8398C221.896 28.7371 221.592 31.0138 220.902 32.71C220.757 33.0894 220.602 33.4044 220.446 33.7079L223.831 35.6659Z" fill="#37474F"/>
<path d="M238.844 31.2501L238.734 31.1818C238.316 30.9879 237.877 30.8452 237.425 30.7568C236.683 30.6265 235.992 30.2928 235.429 29.793C235.286 29.6641 235.131 29.5497 234.966 29.4515C234.848 29.3815 234.72 29.3303 234.587 29.2997C233.729 29.091 232.166 30.0282 231.042 28.5711C231.029 28.5576 231.017 28.5423 231.008 28.5256C230.223 27.4707 229.934 25.1105 228.758 24.4161C228.72 24.3924 228.681 24.3708 228.641 24.3516C228.155 24.1239 227.525 24.1657 226.66 24.659C223.544 26.4614 223.438 30.7302 222.315 33.5458C221.192 36.3613 219.606 37.2378 218.741 38.4483C217.875 39.6587 217.819 40.5542 215.898 43.1952C213.978 45.8362 213.91 46.4851 213.91 46.9898V50.9285L239.417 36.1943V32.2404C239.436 32.0363 239.391 31.8312 239.289 31.6537C239.186 31.4762 239.031 31.3351 238.844 31.2501ZM216.859 47.2478C216.525 47.4413 216.255 47.1833 216.255 46.6672C216.251 46.4226 216.303 46.1802 216.407 45.959C216.512 45.7378 216.666 45.5438 216.859 45.3923C217.192 45.1987 217.458 45.4606 217.458 45.9728C217.463 46.2172 217.412 46.4594 217.308 46.6805C217.204 46.9017 217.05 47.0958 216.859 47.2478ZM226.648 35.3861C226.488 35.5034 226.302 35.5816 226.105 35.6147C225.909 35.6477 225.708 35.6346 225.518 35.5765C225.327 35.5183 225.153 35.4167 225.009 35.2796C224.865 35.1425 224.754 34.9737 224.687 34.7866C224.464 34.287 224.357 33.7433 224.375 33.1967C224.375 31.2652 225.392 29.11 226.652 28.3852C226.822 28.2832 227.008 28.2102 227.202 28.1689C228.193 27.9716 228.925 28.9278 228.925 30.5708C228.933 32.4947 227.92 34.6462 226.66 35.3747L226.648 35.3861ZM236.548 35.8642C236.214 36.0577 235.945 35.7997 235.945 35.2912C235.939 35.0464 235.991 34.8038 236.096 34.5824C236.201 34.3611 236.356 34.1673 236.548 34.0163C236.878 33.8228 237.148 34.0808 237.148 34.593C237.153 34.8368 237.101 35.0783 236.997 35.2988C236.893 35.5193 236.739 35.7128 236.548 35.8642Z" fill="#37474F"/>
<path d="M228.934 30.5508C228.934 32.486 227.921 34.6375 226.657 35.3661C226.496 35.4834 226.31 35.5616 226.114 35.5947C225.918 35.6277 225.717 35.6146 225.526 35.5565C225.336 35.4983 225.162 35.3967 225.018 35.2596C224.873 35.1225 224.763 34.9537 224.695 34.7666C224.889 34.7237 225.075 34.6507 225.246 34.5503C226.502 33.8217 227.522 31.6702 227.522 29.735C227.539 29.1897 227.432 28.6476 227.211 28.1489C228.201 27.9592 228.934 28.9116 228.934 30.5508Z" fill="#263238"/>
<path d="M216.86 47.247C216.527 47.4367 216.257 47.1787 216.257 46.6702C216.253 46.425 216.305 46.1821 216.409 45.9603C216.514 45.7385 216.668 45.5438 216.86 45.3915C217.191 45.198 217.46 45.4636 217.46 45.9721C217.464 46.2163 217.412 46.4582 217.308 46.6792C217.204 46.9002 217.051 47.0945 216.86 47.247Z" fill="#263238"/>
<path d="M236.548 35.8646C236.214 36.0543 235.945 35.8001 235.945 35.2878C235.94 35.0426 235.992 34.7997 236.097 34.5779C236.201 34.3561 236.356 34.1614 236.548 34.0091C236.878 33.8193 237.147 34.0812 237.147 34.5934C237.151 34.837 237.099 35.0783 236.995 35.2987C236.891 35.519 236.738 35.7126 236.548 35.8646Z" fill="#263238"/>
<path d="M200.188 59.1393L253.152 28.5592C253.292 28.4882 253.448 28.4512 253.605 28.4512C253.763 28.4512 253.918 28.4882 254.059 28.5592L254.571 28.8552C254.703 28.9414 254.812 29.0575 254.891 29.194C254.969 29.3304 255.014 29.4835 255.022 29.6407V110.441C255.015 110.599 254.97 110.752 254.891 110.888C254.813 111.025 254.703 111.141 254.571 111.227L201.607 141.807C201.466 141.878 201.311 141.915 201.153 141.915C200.996 141.915 200.841 141.878 200.7 141.807L200.188 141.511C200.055 141.425 199.945 141.309 199.866 141.173C199.786 141.036 199.741 140.883 199.732 140.725V59.9248C199.741 59.7673 199.787 59.6142 199.866 59.4777C199.945 59.3413 200.056 59.2253 200.188 59.1393Z" fill="#F5F5F5"/>
<path d="M255.008 29.5041C254.951 29.3181 254.777 29.2574 254.572 29.3788L201.608 59.9589C201.471 60.0398 201.36 60.1566 201.285 60.2966L199.866 59.4808C199.943 59.3413 200.054 59.2238 200.189 59.1393L253.153 28.5592C253.293 28.4882 253.449 28.4512 253.606 28.4512C253.764 28.4512 253.919 28.4882 254.06 28.5592L254.572 28.8552C254.684 28.9287 254.781 29.024 254.856 29.1355C254.931 29.2469 254.983 29.3722 255.008 29.5041Z" fill="#FAFAFA"/>
<path d="M201.499 141.856C201.445 141.875 201.389 141.891 201.332 141.901H201.245C201.153 141.911 201.06 141.911 200.968 141.901C200.911 141.89 200.855 141.875 200.801 141.856L200.698 141.806L200.19 141.514C200.058 141.428 199.949 141.312 199.871 141.175C199.792 141.039 199.747 140.886 199.738 140.729V59.9244C199.741 59.7676 199.786 59.6143 199.867 59.4805L201.286 60.2963C201.206 60.4322 201.16 60.5861 201.154 60.744V141.545C201.154 141.791 201.305 141.913 201.499 141.856Z" fill="#E0E0E0"/>
<path d="M243.09 40.0032L241.679 39.1874C241.457 39.0788 241.213 39.0258 240.966 39.0331C240.719 39.0404 240.478 39.1077 240.264 39.2291C238.617 39.9539 237.903 40.284 237.053 40.6407L236.439 40.8873C236.105 41.0201 235.441 40.9063 235.646 39.749L237.835 33.8561H237.801L236.416 33.0554C236.346 33.0113 236.267 32.9828 236.184 32.972C236.143 32.972 236.09 32.972 236.033 32.972C235.137 32.9492 234.894 27.1701 234.875 26.9918L234.811 26.9576L233.441 26.1684C233.203 26.0333 232.933 25.9652 232.659 25.9711C232.201 25.9922 231.755 26.1223 231.358 26.3505C229.206 27.4889 227.032 30.8318 226.501 33.8409C226.167 35.7382 224.258 38.66 223.154 39.7376C222.05 40.8152 221.974 41.7108 221.974 41.7108L221.116 46.5753L220.839 48.1349C220.638 49.296 219.447 50.4116 219.447 50.4116L215.003 53.6977C212.222 56.0047 211.437 58.3384 210.905 61.2222V61.245C210.905 61.3474 210.905 61.4157 210.955 61.4423C210.962 61.447 210.971 61.4495 210.979 61.4495C210.988 61.4495 210.997 61.447 211.004 61.4423L211.573 61.1198L242.142 43.4904C242.214 43.4413 242.275 43.3785 242.323 43.3056C242.37 43.2326 242.403 43.151 242.419 43.0654C242.593 42.0143 243.102 40.0298 243.102 40.0298L243.09 40.0032ZM234.253 31.0747C233.923 32.9226 232.591 34.9868 231.267 35.6812C230.352 36.1594 229.684 35.8634 229.461 35.021C229.296 35.0853 229.118 35.1073 228.943 35.0847C228.768 35.0622 228.601 34.9959 228.459 34.892C228.034 34.5581 231.927 27.8721 232.253 28.0201C232.405 28.1 232.537 28.2132 232.639 28.3512C232.74 28.4892 232.81 28.6484 232.841 28.817C233.934 28.4868 234.545 29.4127 234.253 31.0747Z" fill="#455A64"/>
<path opacity="0.5" d="M215.341 56.9465L213.113 55.6602C211.823 57.3601 211.303 59.1473 210.92 61.2229V61.2457C210.92 61.3481 210.92 61.4165 210.969 61.443C210.977 61.4478 210.985 61.4503 210.994 61.4503C211.003 61.4503 211.011 61.4478 211.019 61.443L212.775 60.0542L215.341 56.9465Z" fill="#37474F"/>
<path opacity="0.5" d="M220.695 48.5864L223.837 50.3964L225.253 42.2116L222.422 40.5762C222.196 40.8998 222.045 41.269 221.978 41.6576L221.12 46.5222L220.843 48.0817C220.812 48.2548 220.762 48.4239 220.695 48.5864Z" fill="#37474F"/>
<path opacity="0.5" d="M227.99 29.8809C227.274 31.0889 226.771 32.4109 226.503 33.7892C226.277 34.7661 225.903 35.7028 225.395 36.5668L228.085 38.1226L229.424 35.03C229.265 35.0876 229.093 35.1053 228.925 35.0815C228.757 35.0577 228.598 34.9931 228.461 34.8934C228.24 34.7189 229.166 32.8709 230.157 31.1331L227.99 29.8809Z" fill="#37474F"/>
<path d="M243.108 40.0158H243.089C242.867 39.9109 242.623 39.8603 242.378 39.8682C242.132 39.8761 241.892 39.9423 241.677 40.0613C239.659 40.953 239.048 41.2452 237.849 41.7195C237.53 41.8485 236.881 41.7461 237.052 40.6533C237.05 40.628 237.05 40.6026 237.052 40.5774L237.329 39.0216L238.088 34.7831C238.088 34.7831 238.262 34.1153 237.822 33.8649H237.788C237.677 33.8138 237.557 33.7878 237.435 33.789C237.177 33.758 236.93 33.6692 236.711 33.5292C236.492 33.3893 236.308 33.2018 236.171 32.9807C235.935 32.6285 235.771 32.2326 235.69 31.8162C235.608 31.3998 235.611 30.9714 235.697 30.556C236.02 28.7384 235.667 27.4635 234.862 26.9892L234.798 26.9512C234.278 26.6742 233.58 26.7198 232.764 27.1485C230.609 28.2869 228.434 31.6299 227.907 34.6389C227.569 36.5362 225.661 39.4618 224.556 40.5356C223.452 41.6095 223.38 42.5088 223.38 42.5088L222.549 47.3468L222.276 48.9026C222.071 50.0637 220.88 51.1793 220.88 51.1793L216.44 54.5109C214.668 55.9212 213.389 57.8567 212.786 60.0395C212.786 60.0395 211.12 61.3334 211.018 61.4359L211.587 61.1133L242.243 43.4916C242.243 43.4916 242.592 43.298 242.672 43.2487C242.751 43.1994 243.984 42.0345 243.984 42.0345C243.916 41.0403 243.62 40.3231 243.108 40.0158ZM234.251 31.0759C233.921 32.9238 232.589 34.988 231.265 35.6824C230.351 36.1605 229.683 35.8646 229.459 35.0222C229.359 34.5493 229.359 34.0607 229.459 33.5879C229.789 31.7361 231.125 29.6757 232.449 28.9851C232.57 28.9185 232.697 28.8627 232.829 28.8181C233.933 28.488 234.544 29.4139 234.251 31.0759Z" fill="#37474F"/>
<path d="M234.254 31.076C233.924 32.9239 232.592 34.9882 231.268 35.6826C230.354 36.1607 229.686 35.8647 229.462 35.0223C229.592 34.9792 229.719 34.9259 229.841 34.8629C231.169 34.1685 232.498 32.1043 232.828 30.2526C232.927 29.7797 232.927 29.2912 232.828 28.8183C233.936 28.4881 234.547 29.414 234.254 31.076Z" fill="#263238"/>
<path d="M232.974 28.8973C233.098 28.8898 233.222 28.9145 233.334 28.969C233.446 29.0235 233.541 29.106 233.612 29.2084C234.162 29.9901 233.635 31.9784 233.407 32.6235C233.092 33.5076 231.035 35.587 230.47 35.587C230.283 35.5561 230.104 35.4874 229.944 35.3849C229.784 35.2825 229.647 35.1485 229.54 34.9913C229.447 34.5356 229.447 34.0657 229.54 33.6101C229.863 31.7811 231.183 29.7472 232.485 29.0566C232.601 28.9955 232.721 28.9435 232.845 28.9011H232.971L232.974 28.8973ZM232.971 28.8138H232.83C232.699 28.8583 232.572 28.9142 232.451 28.9807C231.126 29.6713 229.795 31.7318 229.461 33.5835C229.361 34.0564 229.361 34.5449 229.461 35.0178C229.575 35.1887 229.723 35.3342 229.896 35.4452C230.069 35.5562 230.263 35.6303 230.466 35.6629C231.081 35.6629 233.149 33.5645 233.479 32.6273C233.809 31.69 234.526 28.791 232.963 28.791L232.971 28.8138Z" fill="#263238"/>
<path d="M211.007 61.4462L242.228 43.4981L242.661 43.2591C242.737 43.2135 243.97 42.041 243.97 42.041L212.771 60.0498C212.771 60.0498 210.882 61.5145 211.007 61.4462Z" fill="#263238"/>
<path d="M206.822 74.0341V74.7437C206.822 75.1231 207.095 75.2863 207.429 75.0928L248.737 51.2404C248.913 51.1255 249.059 50.9709 249.165 50.789C249.27 50.6071 249.332 50.403 249.344 50.1931V49.4797C249.344 49.1003 249.071 48.9371 248.737 49.1306L207.429 72.9868C207.253 73.1015 207.106 73.256 207.001 73.438C206.895 73.6199 206.834 73.8241 206.822 74.0341Z" fill="#E0E0E0"/>
<path d="M206.822 78.3253V79.0349C206.822 79.4143 207.095 79.5775 207.429 79.384L248.737 55.5278C248.913 55.4131 249.06 55.2586 249.165 55.0766C249.271 54.8947 249.332 54.6905 249.344 54.4805V53.7671C249.344 53.3877 249.071 53.2283 248.737 53.418L207.429 77.278C207.253 77.3927 207.106 77.5472 207.001 77.7292C206.895 77.9111 206.834 78.1153 206.822 78.3253Z" fill="#E0E0E0"/>
<path d="M206.822 82.5908V83.2965C206.822 83.676 207.095 83.8392 207.429 83.6456L248.737 59.797C248.913 59.6822 249.059 59.5275 249.165 59.3457C249.27 59.1638 249.332 58.9596 249.344 58.7497V58.0364C249.344 57.6569 249.071 57.4937 248.737 57.6873L207.429 81.5435C207.253 81.6581 207.106 81.8127 207.001 81.9946C206.895 82.1766 206.834 82.3808 206.822 82.5908Z" fill="#E0E0E0"/>
<path d="M206.822 92.0424V92.752C206.822 93.1315 207.095 93.2946 207.429 93.1011L248.737 69.2563C248.913 69.1417 249.06 68.9871 249.165 68.8052C249.271 68.6232 249.332 68.419 249.344 68.209V67.4956C249.344 67.1162 249.071 66.9568 248.737 67.1465L207.429 90.9951C207.253 91.1098 207.106 91.2643 207.001 91.4463C206.895 91.6282 206.834 91.8325 206.822 92.0424Z" fill="#E0E0E0"/>
<path d="M206.822 96.329V97.0424C206.822 97.4219 207.095 97.5812 207.429 97.3915L248.737 73.5353C248.913 73.4207 249.06 73.2661 249.165 73.0842C249.271 72.9022 249.332 72.698 249.344 72.488V71.7746C249.344 71.3952 249.071 71.232 248.737 71.4256L207.429 95.2817C207.253 95.3966 207.107 95.5512 207.001 95.7331C206.896 95.915 206.834 96.1191 206.822 96.329Z" fill="#E0E0E0"/>
<path d="M206.822 100.599V101.308C206.822 101.688 207.095 101.851 207.429 101.657L248.737 77.8012C248.913 77.6866 249.06 77.532 249.165 77.3501C249.271 77.1681 249.332 76.9639 249.344 76.7539V76.0406C249.344 75.6611 249.071 75.5017 248.737 75.6915L207.429 99.5514C207.253 99.6661 207.106 99.8206 207.001 100.003C206.895 100.185 206.834 100.389 206.822 100.599Z" fill="#E0E0E0"/>
<path d="M206.822 110.046V110.759C206.822 111.139 207.095 111.298 207.429 111.108L248.737 87.2521C248.913 87.1375 249.06 86.9829 249.165 86.801C249.271 86.619 249.332 86.4148 249.344 86.2048V85.4914C249.344 85.112 249.071 84.9488 248.737 85.1423L207.429 108.999C207.253 109.113 207.107 109.268 207.001 109.45C206.896 109.632 206.834 109.836 206.822 110.046Z" fill="#E0E0E0"/>
<path d="M206.822 114.339V115.048C206.822 115.428 207.095 115.591 207.429 115.397L248.737 91.5413C248.913 91.4275 249.06 91.2736 249.165 91.0923C249.271 90.9109 249.332 90.7072 249.344 90.4978V89.7844C249.344 89.405 249.071 89.2418 248.737 89.4353L207.429 113.291C207.253 113.406 207.106 113.561 207.001 113.743C206.895 113.925 206.834 114.129 206.822 114.339Z" fill="#E0E0E0"/>
<path d="M206.822 118.603V119.316C206.822 119.696 207.095 119.855 207.429 119.665L248.737 95.8166C248.913 95.7019 249.06 95.5474 249.165 95.3654C249.271 95.1835 249.332 94.9792 249.344 94.7693V94.0559C249.344 93.6764 249.071 93.5133 248.737 93.7068L207.429 117.555C207.253 117.67 207.107 117.825 207.001 118.007C206.896 118.189 206.834 118.393 206.822 118.603Z" fill="#E0E0E0"/>
<path d="M228.085 119.178L249.353 106.902V107.312L228.085 119.587V119.178Z" fill="#E0E0E0"/>
<path d="M233.035 112.802C233.92 112.21 234.906 111.212 234.747 110.032C234.652 109.315 234.068 109.038 233.407 109.292C232.113 109.789 231.298 111.736 230.846 112.912C230.467 113.94 229.947 115.879 231.491 116.209C233.301 116.589 234.701 113.933 235.111 112.551C235.168 112.358 234.853 112.252 234.762 112.426C234.603 112.741 233.536 114.82 234.709 114.559C235.126 114.468 235.365 113.819 235.517 113.489C235.783 112.897 235.915 112.073 236.333 111.565L236.025 111.424C236.044 111.971 236.025 112.343 236.405 112.768C236.434 112.807 236.477 112.834 236.525 112.841C236.574 112.849 236.623 112.838 236.663 112.809C237.263 112.252 237.304 111.345 237.964 110.84L237.695 110.711C237.695 110.886 237.615 111.383 237.604 111.614C237.604 111.724 237.752 111.796 237.839 111.762C237.925 111.744 238.005 111.705 238.071 111.648C238.138 111.591 238.188 111.518 238.219 111.436L237.93 111.329C238.181 112.669 239.323 111.329 239.714 110.821C240.852 109.303 241.664 107.675 241.695 105.733C241.695 105.577 241.402 105.497 241.399 105.683C241.372 107.178 240.719 108.548 240.298 109.96C239.847 111.477 239.471 113.029 239.16 114.593L239.429 114.691C239.515 113.585 239.797 112.503 240.264 111.496C240.558 110.6 241.05 109.78 241.702 109.098L241.452 109.003C241.518 109.394 241.498 109.793 241.393 110.175C241.288 110.556 241.101 110.91 240.845 111.212C240.765 111.314 240.943 111.508 241.023 111.405C241.44 110.882 242.127 110.715 242.575 110.206C242.996 109.635 243.37 109.031 243.694 108.4L243.489 108.298C243.463 109.573 244.666 107.584 244.829 107.372L244.631 107.296C244.711 107.558 244.817 107.732 245.113 107.736C245.702 107.736 245.922 106.879 246.366 106.78C246.366 106.78 246.559 106.943 246.627 106.951C246.872 106.986 247.122 106.94 247.337 106.818C247.833 106.497 248.234 106.049 248.498 105.52C248.566 105.399 248.335 105.247 248.259 105.38C247.967 105.873 247.056 107.182 246.396 106.541C246.354 106.503 246.267 106.465 246.221 106.518C246.043 106.738 245.022 107.907 244.833 107.277C244.81 107.201 244.7 107.118 244.639 107.201C244.483 107.406 244.358 107.634 244.214 107.85C244.134 107.968 243.69 108.715 243.706 108.336C243.706 108.245 243.565 108.138 243.501 108.233C243.087 108.867 242.784 109.698 242.207 110.214C241.778 110.593 241.216 110.738 240.845 111.197L241.023 111.39C241.31 111.067 241.521 110.684 241.641 110.269C241.761 109.855 241.787 109.418 241.717 108.992C241.712 108.966 241.7 108.942 241.682 108.922C241.665 108.901 241.643 108.886 241.618 108.876C241.593 108.867 241.566 108.864 241.54 108.868C241.513 108.871 241.488 108.881 241.467 108.897C240.757 109.55 240.359 110.468 240.006 111.348C239.533 112.376 239.245 113.48 239.156 114.608C239.156 114.726 239.395 114.858 239.425 114.707C239.746 113.02 240.163 111.352 240.674 109.713C241.091 108.393 241.657 107.121 241.683 105.717L241.387 105.668C241.359 107.122 240.901 108.535 240.07 109.728C239.858 110.058 239.634 110.388 239.391 110.7C239.285 110.84 238.344 112.069 238.223 111.356C238.204 111.254 238.002 111.109 237.934 111.25L237.661 111.493L237.896 111.637C237.915 111.329 237.976 111.041 237.991 110.73C237.991 110.612 237.809 110.536 237.722 110.605C237.05 111.117 237.001 112.024 236.397 112.582L236.655 112.623C236.45 112.28 236.35 111.885 236.367 111.485C236.367 111.352 236.162 111.223 236.06 111.345C235.597 111.899 235.453 112.783 235.149 113.428C234.982 113.781 234.39 114.722 234.58 113.72C234.705 113.305 234.885 112.908 235.115 112.54L234.766 112.415C234.409 113.621 233.457 115.45 232.155 115.83C230.493 116.327 230.781 114.266 231.085 113.348C231.446 112.278 231.982 111.276 232.671 110.381C232.797 110.203 232.941 110.037 233.1 109.888C233.438 109.584 233.536 109.508 234.007 109.778C234.477 110.047 234.5 110.195 234.386 110.703C234.317 110.956 234.212 111.197 234.075 111.421C233.775 111.879 233.397 112.282 232.96 112.612C232.899 112.661 232.986 112.825 233.054 112.775L233.035 112.802Z" fill="#455A64"/>
</svg>
